<svg style="1440/1341" viewBox="0 0 1440 1341" fill="none" xmlns="http://www.w3.org/2000/svg">
<path d="M2130.99 414.663C2131.27 448.123 2124.08 478.891 2110.02 508.545C2099.44 530.867 2089.18 553.375 2077.81 575.232C2053.92 621.222 2042.78 668.186 2044.45 721.601C2048.91 865.185 2047.51 1008.96 2048.12 1152.63C2048.16 1167.99 2047.28 1183.59 2044.73 1198.71C2041.94 1215.1 2032.06 1226.28 2014.84 1230.18C1947.14 1245.49 1879.63 1261.36 1811.92 1276.49C1753.27 1289.63 1694.15 1300.86 1635.82 1315.24C1601.44 1323.69 1565.66 1324.9 1531.88 1337.52C1518.28 1342.58 1500.88 1341.37 1486.03 1338.63C1381.16 1319.37 1274.67 1313.16 1169 1300.72C1061.86 1288.1 954.251 1277.51 847.198 1264.06C764.554 1253.66 680.889 1252.87 599.034 1234.96C563.025 1227.02 525.345 1228.55 488.454 1225.12C419.313 1218.76 351.24 1204.33 281.542 1201.87C219.965 1199.64 159.686 1183.35 97.8308 1180.43C16.161 1176.58 -63.8379 1157.41 -145.879 1154.44C-229.126 1151.47 -232.932 1145.11 -233.35 1061.4C-233.582 1007.28 -233.396 953.22 -233.396 899.156H-233.721C-233.721 835.763 -233.999 772.417 -233.581 709.071C-233.396 682.062 -239.15 657.234 -254.278 634.495C-261.98 622.939 -266.157 608.785 -274.973 598.39C-349.961 509.984 -342.072 404.222 -339.381 299.248C-338.731 275.07 -329.265 262.401 -304.579 259.477C-247.827 252.748 -191.447 241.517 -134.557 237.944C-22.0751 230.936 89.432 214.694 201.31 202.489C282.47 193.625 364.279 189.959 444.974 175.758C484.417 168.797 524.648 164.388 564.694 163.042C645.111 160.304 723.58 141.092 804.136 138.447C861.026 136.59 917.453 124.153 974.343 119.837C1058.94 113.387 1142.18 96.2624 1227.15 92.5034C1277.96 90.2294 1328.4 81.1799 1379.07 75.611C1506.26 61.596 1633.5 47.6739 1760.79 33.9373C1865.01 22.7532 1969.28 11.801 2073.55 0.941651C2082.73 -0.0329033 2092.06 -0.125684 2101.34 0.106353C2117.72 0.431204 2127.33 9.10939 2128.9 25.352C2130.16 37.6499 2130.67 50.0406 2130.67 62.3849C2130.76 179.795 2130.06 297.253 2130.99 414.663Z" fill="#163A3A"/>
</svg>
