<svg xmlns="http://www.w3.org/2000/svg" width="383" height="413" fill="none" viewBox="0 0 383 413">
  <path fill="#FFDA1D" fill-rule="evenodd" d="M9.39 264.353c-6.464-8.576-9.447-17.636-9.388-28.536.252-44.877.218-89.762.185-134.642a61796.98 61796.98 0 0 1-.023-46.164c0-1.005.034-2.012.07-3.02.05-1.44.099-2.883.047-4.32-.25-7.016 3.262-10.958 9.888-12.458 2.663-.598 5.32-1.218 7.975-1.837 5.448-1.272 10.894-2.542 16.386-3.62 19.491-3.8 38.988-7.567 58.485-11.334 28.516-5.51 57.031-11.02 85.531-16.629 3.09-.607 5.802-1.085 8.179-1.395 1.294-.315 2.806-.434 4.57-.389 1.764-.045 3.275.074 4.569.39 2.378.309 5.09.787 8.18 1.394 28.5 5.61 57.015 11.12 85.531 16.63 19.497 3.767 38.993 7.534 58.485 11.333 5.492 1.078 10.938 2.348 16.386 3.62a960.87 960.87 0 0 0 7.975 1.837c6.626 1.5 10.138 5.442 9.888 12.459-.052 1.436-.002 2.878.048 4.32.035 1.007.069 2.014.069 3.02 0 15.386-.011 30.774-.023 46.163-.033 44.881-.067 89.765.185 134.642.059 10.9-2.924 19.96-9.389 28.536-4.974 6.598-9.771 13.329-14.567 20.059-5.147 7.222-10.293 14.443-15.655 21.494-5.628 7.414-8.228 15.371-8.096 24.521.235 17.151.397 34.287.47 51.438.058 14.961-.082 14.993-13.622 18.117l-.85.196c-11.804 2.728-23.804 3.435-35.802 4.142-6.566.387-13.131.773-19.662 1.491-7.163.788-14.306 1.77-21.451 2.752-15.147 2.083-30.301 4.167-45.665 4.397-2.702.038-5.018.062-7.004.012-1.986.05-4.303.026-7.004-.012-15.364-.23-30.518-2.314-45.665-4.397-7.145-.982-14.288-1.964-21.451-2.752-6.532-.718-13.096-1.104-19.662-1.491-11.998-.707-23.998-1.414-35.802-4.142l-.85-.196c-13.54-3.124-13.68-3.156-13.622-18.117.073-17.151.235-34.287.47-51.438.132-9.15-2.469-17.107-8.096-24.521-5.362-7.051-10.508-14.272-15.655-21.495-4.796-6.729-9.593-13.46-14.567-20.058Z" clip-rule="evenodd"/>
  <mask id="b" width="383" height="413" x="0" y="0" maskUnits="userSpaceOnUse" style="mask-type:alpha">
    <mask id="a" width="383" height="413" x="0" y="0" maskUnits="userSpaceOnUse" style="mask-type:alpha">
      <path fill="#FFDA1D" fill-rule="evenodd" d="M9.39 264.353c-6.464-8.576-9.447-17.637-9.388-28.536.252-44.877.218-89.761.185-134.642C.175 85.786.164 70.398.164 55.011c0-1.005.034-2.012.07-3.02.05-1.441.099-2.883.047-4.32-.25-7.016 3.262-10.958 9.888-12.458 2.663-.598 5.32-1.218 7.975-1.837 5.448-1.272 10.894-2.542 16.386-3.62 19.492-3.8 38.988-7.567 58.485-11.334 28.516-5.51 57.031-11.02 85.531-16.629 3.09-.607 5.802-1.085 8.179-1.395 1.294-.315 2.806-.434 4.57-.389 1.764-.045 3.275.074 4.569.39 2.378.309 5.09.787 8.18 1.394 28.5 5.61 57.015 11.12 85.531 16.63a35473.14 35473.14 0 0 1 58.485 11.333c5.492 1.078 10.938 2.348 16.386 3.62a960.87 960.87 0 0 0 7.975 1.837c6.626 1.5 10.138 5.442 9.888 12.459-.052 1.436-.002 2.878.048 4.319a87.13 87.13 0 0 1 .069 3.02c0 15.387-.011 30.775-.023 46.164-.033 44.881-.067 89.765.185 134.642.059 10.899-2.924 19.96-9.389 28.536-4.974 6.598-9.771 13.329-14.567 20.059-5.147 7.222-10.293 14.443-15.655 21.494-5.628 7.414-8.228 15.371-8.096 24.521.235 17.151.397 34.287.47 51.438.058 14.961-.082 14.993-13.622 18.117l-.85.196c-11.804 2.728-23.804 3.435-35.802 4.142-6.566.387-13.13.773-19.662 1.491-7.163.788-14.306 1.77-21.451 2.752-15.147 2.083-30.301 4.167-45.665 4.397-2.702.038-5.018.062-7.004.012-1.986.05-4.303.026-7.004-.012-15.364-.23-30.518-2.314-45.665-4.397-7.145-.982-14.288-1.964-21.451-2.752-6.532-.718-13.096-1.104-19.662-1.491-11.998-.707-23.998-1.414-35.802-4.142l-.85-.196c-13.54-3.124-13.68-3.156-13.622-18.117.073-17.151.235-34.287.47-51.438.132-9.15-2.469-17.107-8.096-24.521-5.362-7.051-10.508-14.272-15.655-21.495-4.796-6.729-9.593-13.46-14.567-20.058Z" clip-rule="evenodd"/>
    </mask>
    <g mask="url(#a)">
      <path fill="#163A3A" d="M843.362 94.367c-9.359-2.922-18.674-5.974-28.014-8.963a263.388 263.388 0 0 0-6.643-2.044c-4.451-1.291-4.677-1.523-4.689-6.09-.022-8.886-.013-17.776-.016-26.663V33.462h.013c0-14.6-.01-29.204.006-43.805.003-5.214.225-5.427 5.111-3.717 10.257 3.584 20.466 7.304 30.711 10.925 5.986 2.115 5.666 1.571 5.821 8.325.416 18.403 1.117 36.8 1.361 55.21.134 10.152.673 20.301.955 30.45.127 4.656-.168 4.907-4.616 3.517Zm-30.384 261.47c-1.093 7.806-2.147 15.367-3.211 22.927a7731.435 7731.435 0 0 1-2.759 19.566c-.573 4.034-1.064 8.086-1.801 12.094-.631 3.442-.99 3.584-4.171 2.294-5.313-2.152-10.597-4.373-15.887-6.576-7.446-3.102-14.874-6.242-22.33-9.312-4.781-1.97-4.8-1.929-4.803-7.095-.007-7.957-.026-15.911-.01-23.867.007-3.062.465-3.726 3.534-4.113 7.287-.918 14.461-2.476 21.709-3.602 4.393-.683 8.812-1.438 13.185-2.363 4.573-.969 9.216-1.623 13.843-2.3 2.329-.343 2.845.255 2.701 2.347Zm27-21.227c-.016 2.665-.636 3.157-3.37 3.63-9.248 1.592-18.531 2.977-27.737 4.822-4.598.924-9.27 1.472-13.897 2.251-4.942.833-9.871 1.741-14.806 2.612-6.195 1.091-12.39 2.182-18.585 3.267-3.075.536-3.557.183-3.564-2.996-.029-11.971-.013-23.939-.013-35.908H758v-34.649c.003-4.162-.006-4.276 4.058-4.588 7.558-.584 15.061-1.684 22.647-2.044 4.479-.211 8.936-.876 13.402-1.346.742-.079 1.482-.221 2.227-.287 9.148-.792 18.299-1.561 27.447-2.365 2.024-.177 4.033-.518 6.057-.672 2.317-.177 2.815.246 3.104 2.545.72 5.746.398 11.545.88 17.294 1.074 12.769.662 25.605 1.922 38.364.331 3.334.254 6.714.234 10.07Zm15.991-93.258c-.012 4.119-.316 4.457-4.302 4.295-4.255-.176-8.503.051-12.751.159-2.799.074-3.128.459-3.045 3.176.051 1.595.208 3.189.131 4.774-.099 1.961-.744 2.563-2.697 2.933-.207.039-.424.08-.632.074-5.869-.134-11.592 1.342-17.449 1.517-4.66.141-9.304.893-13.954 1.372-5.276.538-10.596.602-15.834 1.565-1.034.192-2.122.153-3.182.118-2.052-.064-2.372-.379-2.531-2.42-.064-.845-.019-1.7-.029-2.548-.073-7.114-.124-14.228-.236-21.342-.041-2.777-.418-3.118-3.128-3.227a41.847 41.847 0 0 0-3.507.01c-2.927.131-3.416.647-3.543 3.676-.035.849-.016 1.7-.019 2.548-.013 6.48-.016 12.956-.042 19.435a30.056 30.056 0 0 1-.153 3.176c-.128 1.167-.763 1.974-1.973 2.191-2.416.434-4.857.516-7.305.437-1.185-.039-1.698-.743-1.753-1.843-.038-.743-.028-1.486-.028-2.229v-50.975H758v-50.655c0-.851-.006-1.7.039-2.548.067-1.307.628-2.114 2.042-2.41 4.568-.963 9.106-2.054 13.667-3.052 4.245-.928 8.519-1.744 12.754-2.72 1.462-.338 2.927-.481 4.405-.647 1.666-.188 2.361.637 2.448 2.155.07 1.164.095 2.331.095 3.498.007 19.225 0 38.446.007 57.668 0 5.545.175 5.727 5.738 5.73 16.693.016 33.386.012 50.078.022 7.871.006 6.623.689 6.687 6.655.07 6.476.032 12.955.009 19.432ZM628.921 180.56c-.382 2.953-.264 5.958-.768 8.867-1.365 7.848-1.757 15.804-2.64 23.696-.577 5.139-1.416 10.275-1.623 15.469-.207 5.241-.676 5.614-5.796 5.655-4.247.036-8.497.007-12.747.007v-.067c-4.779 0-9.561.083-14.337-.029-3.163-.076-3.319-.408-3.256-3.626.087-4.247.236-8.485.986-12.681.188-1.039.226-2.109.258-3.167.044-1.491-.733-2.399-2.174-2.702-.724-.153-1.467-.239-2.204-.312-5.48-.535-10.964-.953-16.432-1.743-4.384-.634-8.879-.679-13.292-1.325-5.557-.816-11.171-1.045-16.744-1.858-4.687-.682-9.501-.847-14.249-1.345-3.44-.356-4.039-1.054-3.88-4.419.478-10.18.497-20.366.529-30.552.016-5.487.217-5.554 5.561-5.035 5.904.574 11.739 1.695 17.688 1.963 3.797.172 7.56 1.106 11.36 1.392 4.967.38 9.839 1.447 14.825 1.695 3.912.195 7.802.867 11.704 1.316 7.786.896 15.591 1.67 23.361 2.712 5.461.733 11.002.816 16.41 2.026 1.326.297 2.748.169 4.122.277 2.863.224 3.698 1.017 3.338 3.786Zm119.077.187h-.006c0 7.386.012 14.768-.01 22.154-.009 2.966-.013 3.096-2.903 3.9-3.76 1.043-7.58 1.873-11.382 2.767-3.693.868-7.396 1.71-11.099 2.556-5.65 1.29-11.303 2.557-16.949 3.863-6.167 1.422-12.322 2.905-18.493 4.312-10.594 2.414-21.201 4.762-31.792 7.186-6.168 1.413-12.31 2.928-18.464 4.395-.41.098-.813.241-1.233.301-2.086.313-2.807-.235-2.645-2.332.251-3.257.673-6.502 1.007-9.756.59-5.76 1.165-11.52 1.753-17.281.362-3.564.644-7.141 1.137-10.69.419-3.035.743-6.061.886-9.122.155-3.346.495-3.571 3.741-4.281 6.291-1.378 12.55-2.899 18.858-4.204 6.3-1.305 12.509-3.039 18.883-4.034 1.346-.209 2.651-.693 3.976-1.045 2.289-.602 2.75-1.055 2.782-3.517.06-4.325-.013-8.65-.026-12.975-.008-3.851 1.92-5.768 5.783-5.751 3.599.01 7.194-.06 10.789-.006 2.826.041 3.334.548 3.391 3.343.067 3.165.026 6.33.035 9.496 0 .63-.035 1.27.032 1.894.213 1.949.813 2.38 2.68 1.958 6.279-1.419 12.551-2.873 18.839-4.258 5.666-1.245 11.325-2.532 17.029-3.577 3.341-.608 3.391-.412 3.398 2.867.009 7.278.003 14.559.003 21.837Zm-81.95 146.58c-4.058.054-8.12.067-12.175-.02-2.749-.061-3.102-.454-3.134-3.265-.058-5.038-.007-10.075-.036-15.115-.019-3.562-.51-4.019-4.109-4.08-5.586-.097-6.064.36-6.083 5.864-.019 4.287.042 8.577-.054 12.86-.074 3.227-.607 3.717-3.808 3.749-4.912.045-9.827.013-14.739.013v.007c-4.911 0-9.826.032-14.738-.013-2.791-.023-3.041-.303-3.442-3.076-.061-.422-.138-.85-.145-1.275-.118-11.044-1.504-22.023-1.575-33.07-.003-.319-.019-.641-.003-.963.119-2.354.289-2.615 2.624-2.618 3.523-.007 7.052.022 10.568.228 12.364.731 24.715 1.63 37.105 1.826.959.016 1.922.103 2.881.1 2.284-.013 3.491 1.227 4.1 3.327 2.114 7.295 4.27 14.58 6.404 21.872.991 3.391 1.982 6.779 2.942 10.177.811 2.879.426 3.436-2.583 3.472Zm81.949-43.955c-.073 2.63-.136 2.723-2.655 2.787-3.061.08-6.126.148-9.191.154-9.507.019-19.015.007-28.526.007v-.093c-12.36 0-24.719.038-37.082-.026-3.461-.019-3.055.32-4.172-3.098-.711-2.178-1.916-3.06-4.115-3.165-7.28-.34-14.561-.695-21.832-1.118-10.539-.619-21.084-1.045-31.623-1.628-1.266-.07-2.544-.339-3.791-.227-6.912.631-12.997-2.265-19.247-4.473-1.411-.499-1.932-1.595-1.716-3.027.784-5.277.311-10.662 1.409-15.923.342-1.646.199-3.395.272-5.1.178-4.254.682-4.812 4.851-4.825 10.881-.028 21.766-.083 32.644.026 4.276.042 8.378-.612 12.503-1.672 5.615-1.442 11.316-2.531 16.966-3.848 5.951-1.387 11.883-2.877 17.829-4.303 9.428-2.261 18.859-4.517 28.294-6.753a7621.711 7621.711 0 0 1 27.714-6.51 2753.57 2753.57 0 0 1 17.56-4.008c.717-.16 1.456-.291 2.186-.304.967-.016 1.602.477 1.652 1.525.038.746.064 1.493.064 2.239.003 20.908.006 41.815.006 62.722 0 .212.007.426 0 .641Zm-.009 19.347v45.176c0 .528 0 1.053-.003 1.581-.045 3.959-.496 4.427-4.321 5.236-9.41 1.999-18.808 4.073-28.213 6.096a3986.743 3986.743 0 0 1-20.485 4.351c-2.86.598-3.423.298-4.371-2.63-2.208-6.811-4.292-13.66-6.519-20.462-3.639-11.108-6.824-22.346-10.152-33.545-.84-2.824-1.753-5.629-2.5-8.478-.878-3.333-.595-3.684 2.818-3.69 11.657-.022 23.314-.009 34.971-.009v-.007c11.023 0 22.044 0 33.064.003.955 0 1.912-.028 2.861.035 2.335.155 2.681.5 2.818 2.868.07 1.157.035 2.318.035 3.475h-.003Zm-63.655 137.758c-10.49.038-20.983.013-31.474.013-9.652.003-19.305.003-28.957 0-.841 0-1.682.019-2.52-.023-2.73-.135-3.017-.348-3.432-3.097-.318-2.118-.627-4.253-.696-6.387-.284-8.686-1.074-17.327-1.83-25.977-.309-3.519-.252-7.07-.419-10.602-.079-1.722.762-2.579 2.296-2.904 5.228-1.111 10.456-2.205 15.683-3.316 6.456-1.371 12.906-2.762 19.365-4.121 3.594-.756 7.196-1.448 10.79-2.195 4.512-.937 9.032-1.861 13.532-2.866 5.524-1.229 5.864-.843 6.314 4.752.734 9.179 1.758 18.332 2.627 27.497.8 8.419 1.606 16.841 2.314 25.269.293 3.477-.17 3.944-3.593 3.957Zm-6.18-71.183c-6.353 1.264-12.637 2.852-19.038 3.885-3.917.631-7.743 1.806-11.654 2.476-6.488 1.108-12.855 2.785-19.353 3.865-5.558.926-11.05 2.277-16.567 3.446-.613.132-1.211.376-1.827.439-1.628.167-2.339-.382-2.65-1.949a4.63 4.63 0 0 1-.078-.941c.132-9.37-1.484-18.655-1.318-28.037.063-3.667-.405-7.343-.625-11.016-.211-3.493.251-4.048 3.813-4.061 9.95-.035 19.897-.013 29.847-.013 9.95 0 19.478-.019 29.218.007 3.76.009 4.017.246 5.118 3.742a26349.44 26349.44 0 0 0 7.488 23.723c.946 3.004.626 3.841-2.374 4.434Zm-111.166-17.837c-.188 7.294-.73 14.559-1.729 21.786-.171 1.254-.187 2.53-.25 3.793-.178 3.511-.565 3.917-4.189 3.955-3.906.045-7.816.019-11.726.023-.738 0-1.48-.023-2.216.006-2.657.098-3.263.581-3.875 3.225-1.309 5.653-2.593 11.315-3.884 16.975-1.88 8.23-3.764 16.457-5.638 24.691-1.005 4.425-1.959 8.862-2.993 13.277-.878 3.746-1.303 4.177-5.115 4.234a734.25 734.25 0 0 1-19.967.023c-3.424-.039-3.957-.626-4.004-4.206-.08-5.494-.032-10.995-.038-16.493-.003-1.161.025-2.326-.035-3.488-.149-2.936-.695-3.456-3.618-3.568-5.609-.219-5.904.061-5.917 5.707-.016 5.92.022 11.843-.038 17.763-.038 3.77-.485 4.18-4.198 4.291-1.795.054-3.593.079-5.372-.235-1.319-.229-2.086-.984-2.175-2.33a55.364 55.364 0 0 1-.111-3.482c-.009-15.013 0-30.026-.013-45.04 0-4.777.001-4.904-4.813-5.551-3.551-.48-7.007-1.597-10.638-1.568-.622.006-1.253-.184-1.865-.343-3.288-.854-3.548-1.098-3.554-4.545-.029-15.541-.013-31.084 0-46.624 0-.737.073-1.48.165-2.213.152-1.209.872-1.914 2.08-2.006a52.267 52.267 0 0 1 3.799-.136c12.147-.01 24.298-.004 36.445-.004v.013c12.465 0 24.933-.009 37.397.003 4.826.007 5.017.2 5.067 4.984.035 3.383-.022 6.767.019 10.15.045 3.311.4 3.679 3.644 3.698 5.387.035 10.774-.009 16.162.026 3.123.019 3.269.146 3.193 3.209Z"/>
      <path fill="#163A3A" d="M593.983 335.19c-.086 2.633-.488 3.014-3.208 3.169-.525.032-1.054.022-1.583.022h-30.694c-.421 0-.845.003-1.266-.012-3.065-.115-3.508-.486-3.568-3.508-.073-3.804-.007-7.607-.045-11.41-.038-3.619-.383-3.958-4.043-3.968-8.121-.015-16.243-.003-24.367-.003-7.805-.006-15.61-.006-23.415-.006-.737 0-1.478.019-2.216-.022-2.457-.137-2.85-.511-2.435-2.871.564-3.219 1.267-6.416 1.951-9.617 1.614-7.53 3.337-15.034 4.822-22.593 1.159-5.896 2.704-11.716 3.98-17.591 1.453-6.702 2.764-13.432 4.195-20.141 2.004-9.385 4.05-18.764 6.104-28.14.741-3.385 1.077-3.512 4.512-3.077 3.344.422 6.703.755 10.069.967 5.158.33 10.3.949 15.404 1.596 7.634.967 15.343 1.211 22.923 2.604 1.238.225 2.524.19 3.781.323 2.317.245 2.789.673 2.685 2.963-.174 3.901-.368 7.803-.804 11.694-.678 6.081-1.213 12.18-1.732 18.28-.577 6.73-.716 13.496-1.694 20.195-.551 3.781-.25 4.282 3.331 5.643 3.736 1.42 7.51 2.749 11.287 4.059 3.043 1.057 3.758 1.793 3.898 4.609.709 14.451 1.399 28.899 2.086 43.35.057 1.16.076 2.325.042 3.485Zm-84.054-171.532c0 11.832.026 23.664-.012 35.496-.016 4.981-.156 5.067-5.237 5.07-13.743.006-27.485.003-41.227.006-.632 0-1.267.006-1.902-.016-2.97-.095-3.074-.212-3.481-3.257-.407-3.041-.508-6.102-.711-9.159-.572-8.524-1.283-17.042-1.96-25.559-.47-5.896-.578-11.81-1.057-17.705-.321-3.994-.391-8.001-.944-11.988-.505-3.664-.378-7.378-.397-11.077-.006-1.577.67-2.362 2.277-2.311.74.023 1.48-.019 2.22-.019 15.959 0 31.921 0 47.883.003.74 0 1.48-.003 2.22.023 1.385.047 2.141.841 2.303 2.152.117.937.092 1.895.092 2.845.006 11.832.003 23.664.003 35.496h-.07Zm-129.925 148.58c-1.574 2.214-1.456 4.204-.16 6.495 4.714 8.328 9.322 16.714 13.965 25.08a57862.787 57862.787 0 0 1 17.014 30.685c.257.463.488.944.674 1.436.417 1.087-.106 1.652-1.155 1.713a12.266 12.266 0 0 1-2.552-.147c-8.536-1.311-17.05-2.772-25.605-3.914-3.595-.482-7.19-1.021-10.8-1.375-2.569-.252-3.284.342-3.332 2.983-.084 4.781-.013 9.562-.048 14.344-.026 3.521-.27 3.843-3.826 3.863-10.899.057-21.795.057-32.695.009-3.566-.016-3.899-.443-4.053-4.147-.494-11.993-.943-23.989-1.466-35.979-.567-13.053-1.199-26.102-1.799-39.151-.009-.214-.009-.424-.012-.638-.045-3.974.24-4.29 4.377-4.312 6.519-.032 13.035-.007 19.554-.007 5.506 0 5.82-.319 5.701-5.751-.077-3.553-.721-4.229-4.393-4.248-6.84-.035-13.676.012-20.516-.013-1.273-.006-2.556-.14-3.822-.31-.812-.108-1.354-.615-1.341-1.511.01-.846.478-1.49 1.248-1.656 1.032-.223 2.113-.297 3.171-.3 6.84-.028 13.677-.019 20.516-.032.959 0 1.924-.025 2.88-.108 1.218-.105 1.934-.804 2.123-2.013.048-.312.09-.631.099-.95.221-6.546-.349-6.341-5.701-6.313-6.41.039-12.824.013-19.234.01-.962 0-1.927.025-2.883-.048-2.251-.172-2.587-.412-2.863-2.616-.327-2.634-.606-5.282-.702-7.932-.199-5.417-.302-10.836-.366-16.255-.039-3.002.471-3.56 3.473-3.668 3.415-.122 6.836-.074 10.258-.077 11.217-.006 22.437 0 33.657 0v-.096c13.141 0 26.282-.003 39.426.004 1.279 0 2.562.016 3.845.07 3.921.166 4.146.603 1.933 3.99-9.658 14.788-19.333 29.562-28.997 44.343-1.864 2.849-3.618 5.774-5.593 8.542Z"/>
      <path fill="#163A3A" d="M507.757 218.668c-.843 3.063-1.333 6.189-2.001 9.283-2.046 9.483-4.05 18.972-6.112 28.451-1.861 8.554-3.804 17.089-5.656 25.646-1.966 9.067-3.846 18.15-5.809 27.221-.602 2.78-1.387 5.519-2.014 8.297-.344 1.518-1.257 2.041-2.73 2.022-2.86-.041-5.723.042-8.583-.025-2.44-.057-2.742-.336-2.781-2.787-.066-4.327-.019-8.658-.019-12.989h-.028c0-4.118.044-8.24-.013-12.358-.045-3.11-.627-3.646-3.741-3.82-6.105-.343-6.179-.289-6.201 5.909-.025 6.864-.013 13.731-.022 20.595-.003.951.019 1.906-.067 2.85-.21 2.258-.468 2.537-2.695 2.6-2.437.07-4.877-.016-7.314.044-2.395.061-2.997.609-3.143 2.99-.124 2.108-.105 4.223-.102 6.335.007 16.054.026 32.106.035 48.161.004 5.52-.073 5.71-5.411 5.101-5.256-.596-10.473-1.537-15.71-2.292-2.389-.342-3.884-1.585-5.068-3.735-10.381-18.879-20.813-37.731-31.375-56.506-1.667-2.964-1.613-5.199.287-8.065 12.413-18.759 24.534-37.712 37.015-56.427 5.507-8.253 11.634-16.09 17.482-24.117 3.175-4.356 6.404-8.671 9.506-13.078 1.412-2.01 3.076-2.758 5.609-2.73 13.673.156 27.347.098 41.02.117 1.063.004 2.129-.025 3.179.08 2.535.247 3.105.878 2.462 3.227ZM288.868 355.629c-1.352 8.473-2.199 17.02-3.614 25.49-.963 5.744-1.468 11.565-2.215 17.348-.502 3.887-.938 7.79-1.641 11.642-.69 3.788-1.091 3.967-4.504 2.521-5.293-2.243-10.534-4.611-15.814-6.884-7.099-3.057-14.217-6.076-21.326-9.114-.097-.038-.201-.064-.298-.102-2.959-1.198-4.438-3.442-4.436-6.731v-11.792h-.015c0-4.461-.013-8.923.003-13.388.009-2.747.298-3.217 2.826-3.657 6.977-1.219 14.004-2.164 20.94-3.578 4.298-.877 8.627-1.493 12.925-2.342a372.844 372.844 0 0 1 14.154-2.518c2.805-.447 3.473.233 3.015 3.105Zm43.101-113.254c-.047 2.88-.397 3.345-3.271 3.463-3.671.153-7.355.124-11.033.073-6.656-.092-5.514.889-5.432 5.632.013.742.054 1.488-.003 2.227-.145 1.955-.71 2.567-2.637 2.949-.205.042-.416.086-.624.077-5.703-.271-11.232 1.401-16.922 1.462-3.662.038-7.328.666-10.955 1.166-5.621.777-11.346.232-16.91 1.656-1.788.459-3.762.188-5.652.214-1.255.019-1.962-.695-2.104-1.908a31.825 31.825 0 0 1-.224-3.489c-.022-6.049-.009-12.095-.015-18.144 0-.955.025-1.914-.057-2.863-.189-2.252-.719-2.889-2.855-2.972-7.068-.274-6.74.086-6.74 6.109.003 6.155.006 12.309-.006 18.463a48.037 48.037 0 0 1-.13 3.498c-.129 1.697-1.022 2.733-2.731 2.981-2.297.338-4.605.351-6.917.315-1.199-.022-1.694-.653-1.716-1.787-.01-.532-.032-1.06-.032-1.592-.003-17.294-.003-34.591-.003-51.887h.035v-50.614c0-.532-.016-1.06.006-1.592.063-1.676.894-2.754 2.492-3.233 4.526-1.37 9.197-2.077 13.806-3.071 3.791-.819 7.598-1.583 11.348-2.561 1.656-.433 3.312-.513 4.971-.746 1.66-.229 2.328.653 2.435 2.144.076 1.058.073 2.122.073 3.182.003 19.205-.006 38.41 0 57.618.003 5.858.022 5.957 5.946 5.979 15.976.064 31.948.032 47.921.048 1.681.003 3.372-.026 5.04.14 2.508.245 2.855.621 2.887 3.189.063 4.88.028 9.763.028 14.643.003 3.077.035 6.154-.019 9.231ZM316 334.582c.003 2.451-.674 3.174-3.079 3.584-8.118 1.38-16.252 2.672-24.361 4.1-7.171 1.263-14.304 2.716-21.472 3.985-4.785.847-9.608 1.466-14.397 2.281-4.578.777-9.134 1.677-13.7 2.52-.728.133-1.455.3-2.189.341-.992.057-1.615-.452-1.694-1.459a36.679 36.679 0 0 1-.102-2.833c-.006-11.572-.006-23.14-.006-34.712v-34.081c0-.84.041-1.683.016-2.523-.041-1.529.702-2.356 2.211-2.53 1.471-.171 2.939-.411 4.417-.477 6.44-.29 12.795-1.468 19.242-1.768 4.114-.19 8.213-.765 12.322-1.144 10.205-.944 20.414-1.869 30.623-2.823 1.893-.174 3.781-.442 5.675-.651 2.843-.309 3.259.051 3.53 2.972.378 4.087.454 8.189.673 12.282.756 13.963.941 27.951 1.996 41.901.276 3.663.289 7.355.295 11.035Zm-92.002-33.858c.003 16.581.003 33.161-.003 49.741 0 3.835-.428 4.23-4.131 5.025-9.264 1.99-18.505 4.081-27.762 6.108a2764.09 2764.09 0 0 1-21.003 4.521c-3.136.658-3.589.403-4.556-2.714-4.299-13.879-8.864-27.675-12.83-41.656-1.912-6.734-4.001-13.413-5.865-20.159-1.642-5.942-1.186-5.221 3.944-5.233 11.295-.026 22.588-.007 33.884-.007 11.187.003 22.379.003 33.566.007.952 0 1.9.025 2.851.063 1.109.045 1.769.604 1.829 1.756.047.85.076 1.699.076 2.548Zm-63.737 139.759c-10.319.022-20.638.006-30.954.006v.007h-29.039c-.958-.003-1.915.019-2.87-.032-2.743-.146-3.008-.336-3.445-3.099-.33-2.084-.648-4.191-.703-6.294-.23-8.561-1.11-17.069-1.848-25.593-.288-3.366-.335-6.754-.4-10.132-.04-2.239.387-2.75 2.66-3.198 7.701-1.513 15.351-3.254 23.084-4.634 6.683-1.196 13.305-2.734 19.955-4.118 6.029-1.253 12.053-2.509 18.085-3.746.619-.127 1.264-.19 1.899-.212 2.194-.073 2.899.288 2.947 2.347.09 4.035 1.185 7.949 1.303 11.953.153 5.291.894 10.522 1.367 15.778.782 8.724 1.727 17.435 2.557 26.155.428 4.511.14 4.799-4.598 4.812Zm-17.999-113.219c-4.164.128-8.335.125-12.499.007-2.708-.08-3.009-.5-3.038-3.353-.045-4.91.003-9.82-.032-14.73-.026-3.522-.545-4.019-4.09-4.173-5.967-.256-6.064-.163-6.077 5.849-.009 4.16.039 8.327-.048 12.487-.067 3.445-.539 3.929-3.926 3.981-4.809.073-9.618.019-14.427.019v-.013c-4.703 0-9.406.048-14.106-.016-3.722-.055-4.11-.487-4.491-4.266-.01-.106-.026-.211-.026-.317.032-10.894-1.524-21.717-1.492-32.611 0-.211-.013-.426-.01-.641.039-2.955.18-3.173 3.032-3.163 3.738.013 7.485.035 11.216.253 12.155.705 24.304 1.606 36.485 1.817.854.016 1.71.077 2.564.09 2.104.023 3.346 1.077 3.926 3.083 2.172 7.471 4.383 14.932 6.577 22.397.962 3.275 1.973 6.535 2.881 9.82.738 2.676.301 3.397-2.419 3.48Zm13.69 41.788a233.424 233.424 0 0 1-8.676 1.927c-7.883 1.594-15.75 3.288-23.668 4.677-6.462 1.134-12.79 2.867-19.299 3.777-3.868.542-7.673 1.571-11.474 2.494-2.265.548-4.588.712-6.847 1.345-1.953.551-2.922-.308-2.89-2.598.108-8.092-1.443-16.088-1.3-24.177.09-5.146-.35-10.267-.742-15.392-.246-3.212.22-3.694 3.485-3.704 10.187-.031 20.376-.009 30.563-.009v-.006c9.976 0 19.952-.013 29.929.006 3.562.006 3.855.29 4.919 3.622 2.521 7.883 5.076 15.761 7.606 23.641.159.498.293 1.011.36 1.524.255 1.95 0 2.397-1.966 2.873ZM42.97 351.668c-.27 7.287-.808 14.556-1.771 21.789-.181 1.355-.159 2.739-.248 4.11-.177 2.711-.729 3.336-3.47 3.399-3.905.092-7.816.038-11.72.048-1.056 0-2.114-.032-3.17.019-2.317.111-3.036.6-3.55 2.825-1.448 6.271-2.792 12.568-4.205 18.846-1.087 4.84-2.216 9.668-3.325 14.502-1.537 6.684-3.08 13.368-4.602 20.059-.942 4.145-3.483 6.223-7.622 6.233-5.176.006-10.348.003-15.524-.006-.947-.003-1.901-.013-2.846-.105-2.91-.286-3.47-.771-3.518-3.751-.098-6.237-.041-12.477-.07-18.714-.022-5.059-.348-5.36-5.454-5.246-3.544.079-4.044.511-4.082 4.05-.057 5.814-.029 11.629-.035 17.443-.003.74.006 1.479-.022 2.219-.137 3.348-.583 3.856-3.89 4.012-1.79.085-3.59.028-5.38-.057-1.623-.077-2.495-.991-2.543-2.641-.031-1.057-.066-2.114-.066-3.171v-44.402c0-.845.028-1.692-.013-2.536-.12-2.536-.4-3.003-2.814-3.393-3.95-.641-7.838-1.705-11.863-1.879a9.37 9.37 0 0 1-.945-.105c-4.865-.73-5.207-1.098-5.21-6.056-.016-14.904-.016-29.812 0-44.72 0-4.764.279-5.046 5.008-5.056 12.458-.022 24.917-.006 37.38-.006v.009c12.141 0 24.286 0 36.428.004.95 0 1.905-.026 2.852.035 2.593.161 3.144.637 3.208 3.262.092 3.91.003 7.824.05 11.734.042 3.466.371 3.783 3.899 3.802 5.28.029 10.56-.012 15.837.023 3.28.019 3.417.184 3.3 3.421h-.004Z"/>
      <path fill="#163A3A" d="M70.999 335.025c0 2.883-.349 3.289-3.34 3.312-9.065.057-18.132.031-27.198.038-2.132 0-4.267.028-6.4-.023-3.303-.076-3.716-.456-3.777-3.66-.061-3.378-.02-6.759-.029-10.14 0-.847.035-1.697-.054-2.534-.199-1.875-.718-2.379-2.59-2.525-.849-.067-1.704-.029-2.558-.029H1.375c-7.68.004-15.36.007-23.04.004-.852 0-1.706.019-2.558-.019-2.667-.124-3.076-.514-2.612-3.036.611-3.321 1.383-6.613 2.087-9.915 1.543-7.225 3.08-14.454 4.63-21.676a3436.99 3436.99 0 0 1 3.476-16.093c1.585-7.216 3.205-14.426 4.792-21.641 2.11-9.589 4.191-19.183 6.31-28.768.698-3.159 1.105-3.302 4.39-2.934 7.308.818 14.63 1.497 21.942 2.268 8.794.926 17.578 1.893 26.37 2.835 1.482.159 2.974.257 4.456.409 2.558.267 2.961.682 2.868 3.147-.093 2.429-.198 4.859-.413 7.279-.832 9.464-1.68 18.929-2.587 28.39-.499 5.256-.556 10.547-1.373 15.783-.368 2.347.083 2.931 2.395 3.803 3.98 1.5 7.971 2.975 12.008 4.314 3.79 1.259 4.22 1.722 4.415 5.519.627 12.024 1.31 24.042 1.911 36.069.166 3.267.16 6.547.157 9.823Z"/>
      <path fill="#163A3A" d="M223.995 220.683c0 20.279.007 40.556.003 60.835-.002 3.127-1.575 4.695-4.72 4.703-11.968.007-23.937.003-35.905.003v.097c-12.286 0-24.572-.007-36.858.003-3.099 0-3.385-.048-4.307-3.06-.668-2.178-1.914-3.149-4.117-3.207-6.564-.166-13.084-1.134-19.667-1.047-4.342.057-8.685-.109-12.97-.968a8.56 8.56 0 0 0-1.897-.163c-9.012.227-17.983-.852-26.982-.92-4.393-.032-8.192-1.973-12.159-3.338-4.765-1.643-4.438-1.778-4.396-6.821.05-6.317 1.411-12.504 1.459-18.812.029-3.591.82-4.286 4.403-4.302 10.591-.045 21.183-.087 31.775 0 4.797.038 9.454-.455 14.114-1.73 5.496-1.506 11.138-2.448 16.695-3.742 6.278-1.458 12.505-3.134 18.796-4.527 5.569-1.234 11.12-2.573 16.673-3.867 7.715-1.797 15.42-3.652 23.135-5.459 5.856-1.371 11.736-2.656 17.592-4.034 4.933-1.163 9.851-2.406 14.775-3.617.512-.125 1.017-.307 1.538-.378 2.305-.314 2.871.151 3.001 2.432.038.637.019 1.278.019 1.919Zm.002-39.626c-.004 6.784 0 13.565-.007 20.346 0 .956-.022 1.911-.075 2.859-.076 1.296-.622 2.102-2.021 2.41-4.204.933-8.374 2.009-12.563 2.996-8.28 1.952-16.564 3.881-24.844 5.82-7.977 1.865-15.954 3.734-23.934 5.593-8.488 1.98-16.979 3.948-25.471 5.918-7.055 1.64-14.107 3.299-21.169 4.91-3.677.837-4.189.362-3.807-3.318.218-2.107.474-4.212.698-6.316 1.139-10.633 2.295-21.266 3.393-31.906.272-2.633.291-5.291.553-7.924.293-2.951.738-3.139 3.611-3.712 5.77-1.146 11.5-2.483 17.245-3.753 7.791-1.726 15.591-3.407 23.36-5.224 3.469-.809 3.699-1.213 3.734-4.757.044-4.555-.038-9.114.006-13.67.035-3.588.467-4.043 4.009-4.107 3.782-.073 7.567-.073 11.349-.006 3.655.067 4.05.512 4.11 4.349.047 3.072-.041 6.147.041 9.216.088 3.305.7 3.69 3.832 2.97 10.95-2.515 21.907-4.998 32.864-7.491.101-.025.205-.047.306-.067 4.391-.811 4.767-.518 4.776 3.884.013 6.995.004 13.986.004 20.98Zm-119.008-1.066c-.192 3.593-.262 7.236-.944 10.752-1.015 5.23-.868 10.555-1.761 15.775-.982 5.742-.784 11.615-2.025 17.339-.443 2.047-.22 4.232-.469 6.331-.418 3.507-.893 3.962-4.4 4.023-4.673.079-9.345.019-14.02.019v.016c-4.672 0-9.348.054-14.02-.019-3.387-.051-3.607-.37-3.556-3.673.064-4.242.192-8.481.999-12.666a13.47 13.47 0 0 0 .223-1.895c.166-3.102-.546-3.943-3.725-4.255-2.108-.21-4.235-.401-6.34-.503-5.307-.258-10.486-1.487-15.806-1.682-4.232-.153-8.441-.866-12.66-1.318-8.532-.911-17.066-1.813-25.597-2.72-.74-.077-1.476-.175-2.216-.242-1.665-.153-2.43-1.175-2.567-2.723-.09-1.055-.137-2.121-.08-3.176.539-9.749.504-19.504.539-29.259.02-5.077.236-5.284 5.25-4.701 10.214 1.188 20.42 2.468 30.634 3.643 7.37.848 14.772 1.424 22.117 2.431 5.042.687 10.129.847 15.155 1.821 3.505.679 7.178.491 10.75 1.093 5.645.949 11.411.926 17.034 2.143 1.534.335 3.179.14 4.755.325 2.152.255 2.841.962 2.73 3.121Zm-117.997-16.336h-.153c0 11.74.02 23.476-.01 35.213-.012 5.147-.267 5.363-5.373 5.363-13.91-.003-27.815-.006-41.721-.025-4.073-.007-4.437-.439-4.724-4.541-1.115-16.027-2.279-32.05-3.394-48.08-.561-8.015-1.052-16.033-1.572-24.051-.019-.314-.04-.632-.044-.949-.022-2.842.344-3.214 3.308-3.341.424-.019.848-.016 1.272-.016 16.032-.032 32.06-.067 48.093-.089 3.451-.003 4.29.775 4.302 4.351.042 12.057.016 24.111.016 36.165ZM6.988 56.109c0 7.163.004 14.326 0 21.489 0 .945.016 1.9-.08 2.84-.22 2.147-.809 2.858-2.91 3.09-1.901.205-3.83.16-5.746.214-1.485.045-2.118-.759-2.144-2.144-.019-.949-.048-1.894-.05-2.843-.007-6.53.015-13.064-.014-19.594-.019-3.549-.483-4.02-4.043-4.096-2.876-.06-5.755-.085-8.631-.006-3.183.085-3.747.636-3.76 3.747-.034 9.06-.022 18.118-.006 27.178.01 7.163.084 14.326.068 21.489-.013 5.652-.052 5.658-5.944 5.655-11.19-.007-22.381-.019-33.575-.029-2.665-.003-5.33.041-7.991-.034-3.065-.086-3.59-.535-3.74-3.47-.49-9.566-1.72-19.072-2.297-28.639-.313-5.23-.81-10.49-1.43-15.72-.444-3.757-.483-7.562-.688-11.347-.083-1.528.519-2.508 2.083-3.106 6.555-2.501 13.052-5.142 19.591-7.681 10.592-4.115 21.213-8.156 31.793-12.302 2.805-1.1 5.598-1.838 8.663-1.762 5.432.133 10.87.016 16.309.054 4.149.025 4.514.376 4.533 4.576.038 7.48.013 14.958.013 22.44h-.004Z"/>
      <path fill="#163A3A" d="M157.502 111.801c-5.486 11.561-4.479 7.019-4.499 20.18-.012 7.673.205 15.342.304 23.015a38.417 38.417 0 0 1-.099 3.147c-.102 1.439-.892 2.291-2.329 2.607-4.77 1.044-9.53 2.124-14.3 3.172-5.907 1.297-11.83 2.531-17.722 3.885-1.702.391-3.386.54-5.054.173-5.108-1.123-10.341-1.177-15.5-1.84-11.275-1.451-22.591-2.578-33.891-3.815-7.495-.821-15.003-1.629-22.491-2.497-5.265-.609-10.598-.72-15.814-1.862-2.368-.521-4.857-.574-7.294-.691-5.208-.243-10.294-1.61-15.527-1.604-1.495.004-2.942-.385-4.406-.656-1.792-.335-2.498-1.313-2.485-3.052.038-4.624.013-9.248.013-13.874h-.058c0-3.993-.041-7.989.016-11.981.032-2.273-.485-4.318-1.687-6.287-1.648-2.696-3.111-5.501-4.638-8.269-.304-.549-.735-1.118-.786-1.701-.39-4.403-.256-8.816-.1-13.225.036-.972.69-1.499 1.61-1.698.624-.132 1.256-.255 1.889-.3 5.725-.42 11.376-1.442 17.118-1.82 4.114-.275 8.204-1.14 12.338-1.38 5.629-.322 11.16-1.483 16.801-1.748 4.022-.19 8.01-1.064 12.032-1.339 5.725-.394 11.357-1.552 17.105-1.805 3.92-.17 7.805-.997 11.724-1.288 5.933-.445 11.783-1.562 17.735-1.859 3.498-.173 6.971-.801 10.456-1.18 8.022-.874 16.06-1.62 24.07-2.61 5.901-.732 11.856-.978 17.724-2.017 2.189-.385 4.454-.319 6.681-.483 1.597-.117 2.389.616 2.473 2.165.022.42.076.84.076 1.26.007 8.616-.006 17.235.013 25.855.003 1.957-.681 3.699-1.498 5.422Zm66.467-35.477c-.003 10.364 0 20.73 0 31.098h-.007c0 11.107.01 22.213-.006 33.317-.006 3.696-.048 3.807-3.717 4.655-6.377 1.473-12.779 2.829-19.169 4.248-2.06.458-4.098 1.029-6.174 1.401-2.133.381-2.653-.01-2.818-2.217-.159-2.105-.08-4.229-.108-6.344-.013-.949.025-1.908-.08-2.851-.222-2.054-.745-2.578-2.752-2.769-.942-.089-1.901-.057-2.853-.06-6.663-.003-13.325.025-19.988-.013-3.603-.019-3.895-.505-4.177-4.013-.492-6.071.492-11.749 3.682-17.019 2.019-3.334 2.685-6.967 2.59-10.914-.2-8.455-.073-16.92-.051-25.382.013-3.626.572-4.074 4.2-4.455 8.189-.857 16.369-1.82 24.552-2.743.946-.105 1.889-.299 2.835-.308 6.573-.057 13.039-1.277 19.575-1.74.631-.045 1.266-.153 1.895-.133 1.93.053 2.431.501 2.561 2.435.086 1.264.01 2.537.01 3.807Zm46.025 8.244c.003 15.025.01 30.046 0 45.067 0 5.693-.069 5.763-5.541 6.77-1.444.264-2.884.613-4.341.709-1.796.117-2.174-.29-2.285-2.17-.085-1.373-.034-2.752-.038-4.124-.003-5.398.026-10.793-.015-16.187-.026-3.222-.448-3.594-3.695-3.667a60.084 60.084 0 0 0-2.206 0c-3.66.058-4.085.464-4.136 4.283-.047 3.701-.009 7.406-.015 11.107-.007 3.279.034 6.561-.048 9.839-.075 3.238-.302 3.298-3.344 4.404-2.307.839-4.737.877-7.076 1.474-1.359.346-2.226-.343-2.232-1.865-.003-.527-.019-1.058-.022-1.585v-29.197h.025V82.132c0-.846-.012-1.694.01-2.539.082-3.104.242-3.298 3.19-3.323 8.712-.076 17.424-.127 26.136-.181.839-.007 1.684-.007 2.519.057 2.509.19 2.925.562 3.054 3.028.098 1.795.057 3.596.06 5.394Zm174.177 133.193c-2.056 2.947-4.24 5.801-6.385 8.688-3.976 5.345-8.025 10.636-11.902 16.047-1.324 1.849-2.849 2.471-5.074 2.465a8964.521 8964.521 0 0 0-53.14.044c-6.789.022-13.573.222-20.362.27-4.925.035-5.16-.225-5.17-5.215-.022-9.722-.006-19.444-.009-29.167 0-.843.022-1.69-.029-2.534-.162-2.566-.71-3.125-3.263-3.286-.948-.061-1.906-.026-2.861-.029-16.973-.003-33.942 0-50.915-.009-4.874-.007-5.045-.165-5.052-4.977-.016-17.12-.006-34.239-.006-51.358h.006c0-16.803-.006-33.605.003-50.407 0-5.884.125-5.932 5.6-4.19 11.083 3.527 22.228 6.874 33.26 10.559 5.765 1.929 5.377.885 5.708 7.001.372 6.858.716 13.716.859 20.583.08 3.845.3 3.975 4.04 4.619 4.587.793 9.142 1.776 13.729 2.579 7.289 1.275 14.607 2.385 21.881 3.739 3.953.733 7.894 1.529 11.867 2.164 1.426.228 2.253 1.148 2.352 2.598.096 1.37.15 2.743.15 4.114.006 18.81 0 37.62.003 56.43 0 5.57.028 5.716 5.714 5.567 17.179-.457 34.327 1.088 51.5.752 2.015-.042 4.036-.073 6.045.057 2.511.165 2.874.859 1.451 2.896Z"/>
      <path fill="#163A3A" d="M445.607 204.23c-17.744.006-35.491-.016-53.238-.061-3.006-.009-3.526-.497-3.558-3.546-.076-7.531-.06-15.063-.066-22.598-.007-12.094.003-24.191.003-36.285 0-.742-.013-1.484-.029-2.227-.032-1.472-.727-2.392-2.22-2.651-4.071-.7-8.145-1.376-12.206-2.112-4.904-.886-9.791-1.838-14.695-2.73-4.38-.797-8.75-1.686-13.159-2.265-3.053-.402-5.969-1.472-9.08-1.571-1.735-.057-2.612-1.265-2.769-2.954-.163-1.793-.367-3.59-.418-5.39-.118-4.136-.239-8.274-.214-12.41.083-12.737-.717-25.45-.947-38.177-.083-4.693.188-5.056 4.961-5.06 16.047-.012 32.09-.006 48.137-.006v-.108c15.62 0 31.242.02 46.862-.006 7.516-.013 6.119 1.14 6.69 5.941 1.263 10.648 1.754 21.35 2.59 32.019.686 8.765 1.662 17.526 1.697 26.345.013 3.597.348 7.204.715 10.788.935 9.074.957 18.214 2.058 27.275.539 4.425.303 8.898.724 13.343.664 6.964 1.104 13.954 1.515 20.941.185 3.189-.172 3.502-3.353 3.505Zm84.362-125.096c-.009 3.603-.678 4.224-4.205 4.484a41.08 41.08 0 0 1-3.797.105c-2.24-.045-2.576-.295-2.63-2.572-.095-4.114-.054-8.228-.06-12.338-.01-3.376.031-6.752-.019-10.125-.048-3.09-.596-3.639-3.759-3.718a187.63 187.63 0 0 0-8.547-.012c-3.505.07-4.066.608-4.082 4.088-.041 8.329-.013 16.661-.013 24.993h.092c0 7.908 0 15.819-.003 23.726 0 .947-.041 1.897-.063 2.844-.038 1.524-.818 2.334-2.342 2.41-.948.048-1.895.102-2.846.102-13.406.006-26.811.012-40.216 0-4.928-.004-4.839-.14-5.359-5.153-.631-6.077-.742-12.19-1.537-18.267-.723-5.522-.799-11.131-1.303-16.698-.542-5.98-1.185-11.959-1.264-17.979-.044-3.306-.2-3.376 2.969-4.633 11.755-4.655 23.528-9.266 35.298-13.877 5.688-2.23 11.402-4.396 17.085-6.635a11.593 11.593 0 0 1 4.319-.83c6.123 0 12.246-.04 18.368.007 3.328.025 3.905.548 3.914 3.889.041 15.397.041 30.794 0 46.192v-.003Z"/>
      <path fill="#163A3A" d="M681.999 105.568c.019 2.298-.472 4.411-1.433 6.448-.724 1.533-1.425 3.079-2.202 4.58-1.634 3.159-2.395 6.384-2.281 10.053.305 9.862.209 19.736.251 29.605.003 1.055-.058 2.126-.232 3.165-.19 1.125-.866 1.893-2.043 2.161-4.629 1.052-9.244 2.142-13.873 3.181-4.01.902-8.051 1.673-12.039 2.661-2.351.58-4.797.663-7.106 1.53-.93.348-2.119.265-3.135.077-7.169-1.323-14.45-1.75-21.673-2.604-7.326-.867-14.682-1.594-22.001-2.518-5.65-.714-11.37-.769-16.966-1.999-2.462-.545-5.038-.44-7.56-.676-4.727-.436-9.381-1.428-14.146-1.597-4.209-.153-8.33-1.271-12.559-1.472-5.583-.265-11.053-1.581-16.661-1.785-5.692-.204-5.952-.641-5.98-6.391-.016-3.716-.004-7.43-.004-11.143h-.022c0-4.354-.019-8.705.01-13.056.012-1.855-.381-3.56-1.415-5.122-.527-.793-.812-1.766-1.415-2.48-5.127-6.072-4.587-13.336-4.403-20.546.044-1.66.691-2.53 2.379-2.731 3.88-.462 7.734-1.234 11.624-1.48 7.69-.48 15.313-1.596 22.961-2.434 5.549-.609 11.142-.86 16.659-1.836a58.303 58.303 0 0 1 8.184-.874c5.498-.188 10.863-1.507 16.37-1.689 3.889-.127 7.747-.982 11.636-1.278 5.784-.443 11.475-1.62 17.284-1.877 3.473-.157 6.922-.778 10.386-1.16 8.696-.963 17.394-1.92 26.096-2.863 7.125-.768 14.254-1.52 21.382-2.266a14.502 14.502 0 0 1 1.9-.058c1.12.023 1.777.619 1.885 1.734.085.845.12 1.696.12 2.544.007 8.064-.041 16.131.022 24.196Zm65.999 2.021c-.006 11.199-.006 22.399-.006 33.599 0 3.248.016 3.334-3.1 4.048-6.599 1.51-13.219 2.919-19.83 4.378-2.171.479-4.317 1.076-6.503 1.453-1.834.321-2.298-.047-2.518-1.897-.175-1.462-.147-2.95-.15-4.429-.016-8.776.586-7.929-8.145-7.963-5.303-.023-10.603.003-15.906.003-.846 0-1.696.025-2.543-.035-2.549-.175-3.164-.724-3.25-3.29-.092-2.849-.025-5.702 0-8.554.016-2.205 1.044-4.156 2.107-5.917 3.413-5.647 4.409-11.669 4.107-18.189-.335-7.167-.096-14.363-.064-21.55.016-3.258.605-3.826 3.807-4.18 8.731-.972 17.443-2.187 26.199-2.879 7.499-.593 14.97-1.456 22.466-2.062 2.852-.228 3.32.311 3.323 3.55.013 11.305.006 22.61.006 33.914Zm45.956 24.019c-.01 3.141-.441 3.609-3.551 4.369a50.452 50.452 0 0 1-5.727 1.035c-2.876.359-3.223.063-3.246-2.759-.042-5.617-.016-11.234-.019-16.851 0-1.269.052-2.545-.036-3.812-.136-2.04-.684-2.578-2.788-2.683-1.615-.079-3.24-.019-4.861.01-1.547.029-2.393.843-2.513 2.345a36.28 36.28 0 0 0-.091 2.858c-.01 6.145 0 12.29-.02 18.438a33.075 33.075 0 0 1-.184 3.488c-.111 1.005-.607 1.753-1.687 2.103-2.98.968-6.089 1.34-9.147 1.954-1.346.271-2.024-.429-2.04-1.76-.01-.849-.039-1.696-.039-2.542-.003-9.537-.003-19.075-.003-28.612.003-9.222.003-18.441.003-27.66 0-.847-.019-1.696.016-2.543.117-2.536.309-2.727 2.766-2.877.429-.025.863-.019 1.294-.019 9.291 0 18.578-.013 27.865.007 3.638.006 4.034.305 4.04 3.691.026 17.273.016 34.547-.032 51.82ZM794 23.455h-.013c0 12.392.013 24.788-.006 37.183-.01 6.667-.756 5.306-5.576 5.35-8.537.077-17.073.023-25.607.02-.973 0-1.946-.035-2.916-.067-1.174-.038-1.764-.665-1.806-1.797-.033-.846-.068-1.693-.068-2.539-.007-23.095-.007-46.191-.007-69.287 0-.423-.006-.846.01-1.272.094-2.602.188-2.888 2.776-3.502 4.505-1.072 9.053-1.966 13.581-2.933 4.949-1.06 9.895-2.131 14.848-3.178 4.479-.945 4.742-.754 4.761 3.88.033 9.114.017 18.224.023 27.334v10.808ZM747.948-2.387c-.006 8.652-.003 17.303-.003 25.955.003 10.898.003 21.793 0 32.687 0 3.732-.016 3.694-3.799 4.396-3.167.588-6.365.344-9.548.52-1.546.087-2.109-.757-2.153-2.12a181.441 181.441 0 0 1-.109-5.764c-.016-5.446.026-10.895-.022-16.34-.032-3.8-.508-4.23-4.253-4.281-5.036-.068-5.253.128-5.266 5.105-.013 6.514 0 13.032-.016 19.546 0 1.069-.035 2.138-.131 3.2-.118 1.331-.876 2.182-2.195 2.368-1.048.148-2.119.17-3.18.186-1.291.016-1.965-.744-2.083-1.96a41.323 41.323 0 0 1-.188-3.839c-.068-14.312-.042-28.624-.208-42.936-.112-9.717-.448-19.431-.758-29.145-.172-5.458.064-5.82 5.324-4.7 7.157 1.52 14.27 3.256 21.412 4.874 1.55.35 3.157.465 4.687.889 2.355.648 2.521.924 2.537 3.35.02 2.67-.044 5.34-.048 8.01ZM693-38.938c-.01 2.91-.169 3.242-2.985 2.655-7.435-1.553-14.846-3.22-22.271-4.814-3.817-.814-7.65-1.544-11.467-2.355-3.611-.767-7.202-1.613-10.81-2.39-6.183-1.332-12.369-2.638-18.555-3.955-.308-.066-.632-.085-.93-.183-5.945-1.906-5.72-.458-5.993-7.194-.168-4.195-.946-8.352-.978-12.566-.006-.84-.032-1.683.026-2.52.076-1.088.641-1.751 1.806-1.773.953-.02 1.903-.048 2.855-.048 10.261-.003 20.521-.003 30.778-.003 10.578.003 21.156-.006 31.734.01 3.277 0 3.211.053 3.913 3.14.946 4.136.822 8.369 1.133 12.545.483 6.496 1.769 12.914 1.744 19.451Zm13 98.998c0 3.321-.07 3.617-3.304 4.284-4.371.909-8.822 1.3-13.289 1.494-5.202.225-10.333 1.144-15.513 1.617-5.179.474-10.368.982-15.529 1.646-5.16.664-10.355.998-15.503 1.716-4.796.67-4.847.337-5.285-4.306-.572-6.075 1.358-10.886 5.106-15.652 6.637-8.44 5.49-5.351 5.538-16.396.06-14.28.019-28.56.009-42.836 0-5.745-.01-5.783-5.726-6.921-5.828-1.16-11.678-2.215-17.513-3.355-2.837-.553-2.991-.785-3.333-3.73-.562-4.843-.639-9.708-.658-14.576-.013-2.974.63-3.483 3.7-2.85 4.988 1.026 9.953 2.167 14.932 3.237 10.79 2.32 21.59 4.592 32.371 6.95 8.707 1.903 17.391 3.915 26.092 5.843 1.24.277 2.54.29 3.777.572 2.39.547 3.013 1.22 3.275 3.635.195 1.786.278 3.588.281 5.383.026 11.846.013 23.692.013 35.537h.556c0 12.904-.007 25.808.003 38.709Z"/>
      <path fill="#163A3A" d="M638 38.43c.003 1.57-.588 2.833-1.497 4.054-2.388 3.212-4.682 6.494-7.109 9.68-1.211 1.595-1.711 3.282-1.664 5.276.089 3.79.054 7.588 0 11.382-.038 2.696-.107 2.766-2.673 3.456-1.114.3-2.272.54-3.417.598-5.797.275-11.533 1.098-17.285 1.803-2.607.32-5.261.257-7.89.4-1.57.082-2.383-.599-2.405-2.19-.012-1.159-.054-2.317-.054-3.478V30.513c-.003-13.28-.012-26.562 0-39.843.007-4.798.621-5.228 5.417-4.275 8.568 1.699 17.11 3.534 25.735 4.949 3.423.56 6.818 1.326 10.203 2.104 2.278.522 2.604.915 2.61 3.237.032 13.915.004 27.832.029 41.746Zm-54.01 33.436c0 .526.003 1.054-.032 1.58-.175 2.508-.509 2.916-2.915 3.315-1.881.314-3.768.633-5.665.801-2.202.197-2.845-.376-3.087-2.584-.114-1.044-.095-2.105-.099-3.16-.009-6.01-.003-12.016-.012-18.026-.003-.947-.016-1.9-.124-2.84-.153-1.32-.92-2.122-2.298-2.157-1.798-.047-3.606-.12-5.401-.006-2.024.13-2.491.697-2.66 2.783-.061.735-.035 1.476-.032 2.214.029 7.169.057 14.337.095 21.503.02 3.267-.448 3.727-3.78 4.113-3.679.427-7.396.532-11.03 1.349-.72.164-1.468.212-2.206.263-4.236.307-4.729-.12-4.732-4.462-.019-16.13-.01-32.256-.01-48.386h.023c0-15.705 0-31.413.003-47.122 0-.738-.019-1.476.032-2.21.187-2.793.611-3.166 3.297-2.682 5.212.937 10.412 1.925 15.619 2.897 6.969 1.302 13.933 2.641 20.908 3.904 3.558.646 4.112 1.251 4.112 5.421.01 27.833 0 55.662-.006 83.492Zm-56.018-56.641c-.152 2.708-.511 3.132-3.218 3.157-6.019.058-12.038.045-18.057.023-1.816-.007-3.512.267-5.233.953-13.725 5.479-27.478 10.883-41.231 16.292-3.534 1.387-7.078 2.755-10.653 4.034-2.102.752-2.653.408-2.954-1.773a202.59 202.59 0 0 1-1.021-8.859c-.786-8.135-1.528-16.27-2.288-24.404-.415-4.439-1.195-8.84-1.3-13.31-.085-3.569.01-3.766 3.674-3.776 9.293-.022 18.587-.006 27.88-.006.843 0 1.689.016 2.533-.01 3.141-.095 3.594-.526 3.667-3.798.066-2.867.028-5.733.038-8.603.009-3.186-.051-6.375.057-9.557.092-2.794.662-3.297 3.391-3.52.314-.026.631-.02.948-.036 4.314-.191 5.87-2.532 4.485-6.703-.39-1.17-1.207-1.718-2.358-1.78-1.369-.066-2.745-.034-4.117-.082-.878-.029-1.756-.169-1.794-1.327-.035-1.103.751-1.467 1.651-1.537 1.366-.108 2.739-.12 4.111-.162 1.648-.048 2.542-.896 2.64-2.545.051-.848.08-1.7.029-2.548-.152-2.522-.77-3.144-3.271-3.303-1.053-.07-2.111-.058-3.167-.07-1.546-.02-2.323-.878-2.459-2.35a42.346 42.346 0 0 1-.016-7.954c.19-1.993.843-2.586 2.849-2.685 2.213-.108 4.435-.05 6.653-.054 4.856-.003 9.715 0 14.571 0 6.653 0 13.306-.022 19.96.016 3.543.02 3.958.475 4.009 4.107.032 2.12-.016 4.248-.038 6.371-.019 1.678-.856 2.548-2.545 2.552-.422.003-.843.022-1.268.035-4.12.14-5.797 2.784-4.33 6.802.431 1.18 1.363 1.524 2.485 1.607 1.366.095 2.739.143 4.092.331.628.09 1.183.523 1.211 1.273.038.953-.627 1.307-1.417 1.368-1.261.099-2.535.038-3.794.153-1.987.185-2.561.79-2.723 2.784-.06.736-.047 1.486-.015 2.229.111 2.767.596 3.249 3.404 3.437 3.292.225 4.942 2.036 4.951 5.43.006 15.19.003 30.38.003 45.57 0 .742.016 1.489-.025 2.228ZM435.44 53.957c-3.51.073-7.024.038-10.534.038h-36.388c-.744 0-1.489.004-2.233-.003-3.961-.038-4.002-.08-4.037-4.161-.01-1.267-.004-2.536-.004-3.806 0-7.503.016-15.01-.009-22.513-.013-3.568-.288-3.84-3.817-3.866a900.745 900.745 0 0 0-14.045.003c-3.229.029-3.753.489-3.779 3.67-.064 8.14-.06 16.279-.032 24.417.029 7.754-.801 6.16-6.289 6.24-5.957.086-11.917.035-17.878.013-3.504-.013-3.67-.222-3.9-3.802-.578-9.078-.738-18.169-.706-27.26.039-9.521-.661-19.008-.993-28.515-.074-2.1-.888-3.288-2.894-3.967-3.82-1.295-7.554-2.835-11.381-4.11-1.837-.613-2.507-1.746-2.498-3.537.019-3.062-.07-6.132.013-9.195.08-2.834.747-3.421 3.724-3.545 1.489-.064 2.981-.029 4.469-.029h27.451v-.006c9.365 0 18.73.102 28.089-.054 3.501-.057 6.708.698 9.912 1.92 7.631 2.917 15.265 5.834 22.95 8.608 4.504 1.625 9.321 2.025 13.962 3.149 1.444.35 2.9.67 4.366.914 1.444.245 2.297 1.032 2.559 2.438.233 1.247.489 2.495.607 3.755.789 8.408 1.284 16.854 2.386 25.224 1.102 8.382 1.309 16.844 2.699 25.198.553 3.32.604 6.733.776 10.107.109 2.12-.393 2.637-2.546 2.678v-.003Z"/>
      <path fill="#163A3A" d="M323.999 90.314c-.019 5.331-.073 5.49-5.012 3.945-9.131-2.854-18.23-5.813-27.342-8.727-2.804-.897-5.607-1.795-8.413-2.689-2.784-.89-3.189-1.316-3.208-4.268-.045-7.814-.013-15.63-.013-23.444V32.955h-.006c0-14.574-.007-29.146.003-43.72 0-4.807.237-4.944 4.818-3.314a9073.797 9073.797 0 0 0 33.329 11.794c2.227.78 3.6 2.051 3.512 4.582-.038 1.05.139 2.105.161 3.161.364 17.524.816 35.048 1.035 52.571.136 10.776 1.18 21.51 1.136 32.285Zm-54.002-66.981c-.003 12.49.01 24.98-.009 37.469-.01 5.266-.038 5.27-5.208 5.273-8.386 0-16.772 0-25.157-.004-.841 0-1.679-.038-2.516-.031-1.458.012-2.072-.76-2.066-2.166.003-.846-.041-1.695-.041-2.541 0-22.97.006-45.935.009-68.904v-.636c.045-3.495.139-3.76 3.521-4.465 6.965-1.457 13.855-3.263 20.874-4.478 2.469-.427 4.878-1.203 7.34-1.699 2.441-.49 3.027-.022 3.178 2.49.113 1.903.069 3.81.072 5.716.003 11.325 0 22.65 0 33.976h.003Zm-45.998-34.268a246.579 246.579 0 0 0-.049 4.788c-.004 20.754-.004 41.505-.004 62.26 0 2.412-1.154 3.834-3.461 4.264-3.177.598-6.39.438-9.591.56-1.286.047-1.916-.62-1.984-1.893a61.656 61.656 0 0 1-.103-3.187c-.006-5.961.004-11.922.004-17.88 0-.745.003-1.493-.047-2.235-.034-.527-.006-1.141-.258-1.557-1.714-2.85-4.449-1.368-6.756-1.524-1.707-.115-2.223 1.243-2.226 2.806-.009 3.299-.022 6.6-.028 9.9-.009 4.468.04 8.94-.037 13.409-.059 3.362-2.99 5.175-6.058 3.87-.891-.377-1.214-1.138-1.291-2.007a39.811 39.811 0 0 1-.146-3.506c-.01-12.029-.006-24.053-.006-34.845-.326-13.473-.621-25.705-.919-37.938-.013-.53-.056-1.065-.031-1.595.127-2.564.822-3.149 3.356-2.576 7.656 1.732 15.294 3.532 22.947 5.27 1.612.365 3.254.534 4.844 1.059 1.282.425 1.869 1.201 1.844 2.557Zm-55.005-26.558c-.016 1.065-.618 1.536-1.637 1.44a23.532 23.532 0 0 1-2.825-.416c-9.814-2.14-19.622-4.33-29.443-6.451-10.747-2.321-21.507-4.578-32.258-6.883-.927-.197-1.821-.553-2.739-.808-3.86-1.075-3.834-1.071-4.095-5.144-.28-4.429-.63-8.858-.926-13.286a26.92 26.92 0 0 1-.042-3.167c.058-1.094.656-1.758 1.812-1.796a78.003 78.003 0 0 1 2.857-.067c10.171-.006 20.342-.003 30.513-.003 9.961-.003 19.918-.007 29.879-.003.952 0 1.908-.026 2.86.025 2.324.127 2.496.267 2.926 2.474.223 1.14.424 2.292.529 3.446.866 9.58 1.707 19.159 2.547 28.738.058.63.051 1.265.042 1.901Zm12.999 98.147c-.102 2.614-.23 2.627-2.708 3.472-2.469.845-5.027.909-7.556 1.172A615.848 615.848 0 0 1 153 67.004c-3.613.27-7.153 1.01-10.763 1.322-8.148.705-16.263 1.75-24.392 2.646-.738.083-1.487.134-2.228.096-1.078-.055-1.858-.57-1.868-1.741-.025-3.593-.006-7.19-.009-10.782 0-.934.639-1.548 1.125-2.224 2.472-3.44 4.912-6.907 7.473-10.277 1.285-1.69 1.883-3.479 1.88-5.579-.022-16.818.007-33.636-.016-50.45-.006-3.74-.467-4.277-4.265-5.033-6.354-1.267-12.724-2.455-19.087-3.666-2.561-.486-2.888-.69-3.21-3.142-.71-5.359-.669-10.763-.611-16.154.019-1.846.489-2.185 2.395-2.033 1.266.102 2.519.4 3.763.677 6.009 1.34 11.988 2.827 18.025 4.015 3.444.677 6.866 1.427 10.29 2.173 4.042.88 8.09 1.747 12.135 2.615 6.233 1.334 12.465 2.665 18.697 3.99 5.193 1.102 10.395 2.157 15.579 3.297 2.424.53 2.993 1.172 3.249 3.638a60.19 60.19 0 0 1 .335 6.017c.029 11.633.013 23.267.013 34.9h.467v37.757c0 .53.038 1.06.016 1.588Z"/>
      <path fill="#163A3A" d="M114 36.86c.013 2.35-.633 4.306-2.032 6.156-2.232 2.951-4.298 6.026-6.54 8.965-1.217 1.599-1.78 3.316-1.751 5.29.051 3.7.085 7.397.101 11.097.013 3.294-.019 3.233-3.131 3.95-3.952.911-8.006.778-12.002 1.216-4.836.53-9.63 1.47-14.523 1.542-3.882.054-4.089-.022-4.101-4.04-.029-10.043-.01-20.084-.013-30.127V30.443h-.006c0-13.214-.007-26.425.006-39.639 0-4.893.63-5.36 5.357-4.433 10.384 2.037 20.777 4.014 31.163 6.033 1.768.346 3.514.784 5.272 1.177 1.434.324 2.193 1.174 2.139 2.688-.019.527.026 1.057.026 1.583 0 13.002-.038 26.006.035 39.007ZM59.984 74.692c-.13 2.362-.468 2.729-2.737 3.048-2.09.293-4.175.65-6.272.867-2.166.226-2.958-.37-3.104-2.544-.165-2.433-.098-4.885-.104-7.326-.013-5.203.034-10.41-.029-15.612-.038-3.077-.529-3.53-3.484-3.632-1.264-.044-2.538-.063-3.798.03-2.044.149-2.579.669-2.655 2.76-.092 2.439-.038 4.884-.038 7.33 0 5.626.022 11.256-.016 16.886-.019 3.137-.256 3.424-3.351 3.82-4.913.624-9.83 1.259-14.761 1.699-3.143.277-3.488-.09-3.57-3.277-.108-4.138-.048-8.283-.051-12.424-.003-12.532 0-25.065 0-37.597h.01v-47.476c0-.743-.02-1.49.018-2.229.165-3.105.621-3.382 3.697-2.792 6.722 1.284 13.469 2.448 20.19 3.742 4.242.817 8.452 1.798 12.687 2.66 1.34.273 2.724.315 4.064.592 2.601.542 3.165 1.212 3.26 3.855.073 2.014.047 4.036.047 6.054.004 26.655.004 53.313.007 79.972 0 .532.019 1.065-.01 1.594ZM3.982 13.86c-.029 4.418-.2 4.565-4.73 4.574-5.595.01-11.19.016-16.786-.003-1.597-.006-3.097.24-4.615.842-13.733 5.449-27.488 10.837-41.24 16.225-3.633 1.423-7.266 2.855-10.94 4.163-2.267.804-2.774.437-3.098-1.965a216.674 216.674 0 0 1-.954-8.22 3695.356 3695.356 0 0 1-2.301-25.04c-.365-4.124-1.262-8.192-1.252-12.351 0-.638-.08-1.276-.064-1.911.06-2.21.314-2.463 2.631-2.59.739-.039 1.478-.013 2.216-.013h27.555c.843 0 1.693.025 2.533-.042 2.076-.172 2.618-.638 2.774-2.699.133-1.796.082-3.607.088-5.413.016-4.46-.038-8.923.042-13.38.057-3.326.615-3.818 3.918-4 .317-.019.634-.012.95-.022 3.758-.13 4.201-.587 4.176-4.287-.025-3.599-.6-4.166-4.28-4.237-.95-.016-1.902-.019-2.85-.076-.681-.038-1.233-.341-1.338-1.097-.12-.89.34-1.484 1.177-1.586 1.249-.156 2.52-.172 3.782-.24 2.89-.159 3.43-.714 3.503-3.684a20.86 20.86 0 0 0-.057-2.226c-.143-1.63-1.044-2.492-2.686-2.53-1.16-.026-2.32-.06-3.48-.054-1.64.006-2.593-.737-2.727-2.422-.212-2.65-.276-5.311.003-7.952.226-2.1.948-2.638 3.548-2.664 5.912-.064 11.824-.032 17.737-.035.843-.003 1.69 0 2.533 0 6.438-.003 12.88-.007 19.318 0 .948.003 1.906.006 2.844.14 1.173.17 1.953.9 1.978 2.125.054 2.865.05 5.732.01 8.597-.023 1.4-.853 2.105-2.23 2.16-1.16.041-2.326 0-3.48.114-1.81.185-2.355.788-2.545 2.616-.045.421-.023.849-.023 1.273-.022 4.042.298 4.386 4.22 4.562.944.041 1.905-.035 2.808.344.64.268 1.069.715.958 1.452a1.179 1.179 0 0 1-1.078 1.014c-1.259.112-2.53.1-3.791.182-2.359.153-2.945.743-3.098 3.079-.035.53-.025 1.062-.019 1.591.048 3.235.435 3.647 3.643 3.828.421.023.843.013 1.265.045 3.027.24 3.43.594 3.442 3.697.038 10.834.02 21.667.02 32.5.003 5.204.022 10.406-.01 15.613v.003Z"/>
    </g>
  </mask>
  <g mask="url(#b)">
    <path fill="#EBC400" d="M-20 2.5h424v224H-20V2.5Z"/>
  </g>
</svg>
