<svg width="396" height="446" viewBox="0 0 396 446" fill="none" xmlns="http://www.w3.org/2000/svg">
<path d="M395.99 280.027V223.38H395.847C395.847 158.414 395.99 93.4649 395.775 28.4991C395.668 -6.44275 387.498 0.675629 334.445 0.458893C240.575 0.0588074 146.669 0.325531 52.764 0.358887C42.0605 0.358887 31.3928 0.542236 20.6893 0.708954C7.77376 0.908997 1.31661 4.19315 0.817119 10.1113C0.460336 14.5623 0.0680145 18.9967 0.0680145 23.4312C0.0323362 144.477 0.0323013 265.523 0.0323013 386.57C0.0323013 388.787 -0.0755349 391.004 0.102857 393.221C1.13753 406.874 2.17244 408.375 30.6794 411.592C80.2008 417.194 130.222 421.895 180.029 426.963C234.474 432.514 288.919 438.132 343.4 443.617C392.672 448.568 395.561 447.568 395.74 423.278C396.132 375.517 395.954 327.772 395.99 280.027Z" fill="white"/>
</svg>
