<svg xmlns="http://www.w3.org/2000/svg" width="41" height="34" fill="none" viewBox="0 0 41 34">
  <path fill="#EBEBEB" d="M33.544 14.08c.493 0 .974.127 1.443.38.47.252.835.614 1.097 1.085.261.47.392.96.392 1.47 0 .506-.13.992-.389 1.459a2.722 2.722 0 0 1-1.084 1.088 2.97 2.97 0 0 1-1.459.385 2.99 2.99 0 0 1-1.462-.385 2.756 2.756 0 0 1-1.085-1.088 2.963 2.963 0 0 1-.388-1.459c0-.51.13-1 .392-1.47a2.703 2.703 0 0 1 1.1-1.084c.47-.255.95-.382 1.443-.382Zm0 .486c-.412 0-.813.106-1.205.318-.389.21-.693.512-.914.906-.22.392-.33.8-.33 1.225 0 .423.107.828.323 1.217.217.387.52.689.91.906a2.48 2.48 0 0 0 1.216.323 2.48 2.48 0 0 0 1.218-.323c.388-.217.69-.52.905-.906a2.48 2.48 0 0 0 .323-1.217c0-.425-.11-.833-.33-1.225a2.23 2.23 0 0 0-.914-.906 2.49 2.49 0 0 0-1.202-.318Zm-1.287 4.07V15.48h1.085c.37 0 .64.03.805.09a.77.77 0 0 1 .397.303.81.81 0 0 1 .148.463c0 .23-.083.431-.25.602-.163.172-.38.267-.653.288a.89.89 0 0 1 .269.167c.127.125.282.334.466.627l.385.618h-.622l-.28-.498c-.22-.391-.398-.636-.533-.735-.093-.073-.229-.109-.408-.109h-.3v1.342h-.509Zm.51-1.776h.618c.296 0 .496-.044.603-.133a.428.428 0 0 0 .163-.35.418.418 0 0 0-.078-.248.458.458 0 0 0-.218-.168c-.09-.036-.26-.054-.509-.054h-.58v.953Z"/>
  <path fill="#fff" d="M33.544 14.08c.493 0 .974.127 1.443.38.47.252.835.614 1.097 1.085.261.47.392.96.392 1.47 0 .506-.13.992-.389 1.459a2.722 2.722 0 0 1-1.084 1.088 2.97 2.97 0 0 1-1.459.385 2.99 2.99 0 0 1-1.462-.385 2.756 2.756 0 0 1-1.085-1.088 2.963 2.963 0 0 1-.388-1.459c0-.51.13-1 .392-1.47a2.703 2.703 0 0 1 1.1-1.084c.47-.255.95-.382 1.443-.382Zm0 .486c-.412 0-.813.106-1.205.318-.389.21-.693.512-.914.906-.22.392-.33.8-.33 1.225 0 .423.107.828.323 1.217.217.387.52.689.91.906a2.48 2.48 0 0 0 1.216.323 2.48 2.48 0 0 0 1.218-.323c.388-.217.69-.52.905-.906a2.48 2.48 0 0 0 .323-1.217c0-.425-.11-.833-.33-1.225a2.23 2.23 0 0 0-.914-.906 2.49 2.49 0 0 0-1.202-.318Zm-1.287 4.07V15.48h1.085c.37 0 .64.03.805.09a.77.77 0 0 1 .397.303.81.81 0 0 1 .148.463c0 .23-.083.431-.25.602-.163.172-.38.267-.653.288a.89.89 0 0 1 .269.167c.127.125.282.334.466.627l.385.618h-.622l-.28-.498c-.22-.391-.398-.636-.533-.735-.093-.073-.229-.109-.408-.109h-.3v1.342h-.509Zm.51-1.776h.618c.296 0 .496-.044.603-.133a.428.428 0 0 0 .163-.35.418.418 0 0 0-.078-.248.458.458 0 0 0-.218-.168c-.09-.036-.26-.054-.509-.054h-.58v.953ZM3.031 25.788c.047.458.059.87.035 1.235-.023.367-.058.71-.105 1.03 0 .137-.035.24-.105.309a18.92 18.92 0 0 1-.806.137 5.148 5.148 0 0 1-.841 0 1.955 1.955 0 0 0-.63.034 4.826 4.826 0 0 1-.456.035c0-.138-.012-.263-.035-.378a1.623 1.623 0 0 1 0-.48 2.435 2.435 0 0 0 0-.584v-2.265a36.37 36.37 0 0 1-.035-1.613c0-.549-.012-.915-.035-1.098a2.732 2.732 0 0 1 0-.617 2.83 2.83 0 0 0 .07-.618c-.024-.32-.035-.64-.035-.961a14.66 14.66 0 0 0 0-2.059c-.024-.458-.012-.824.035-1.098.187-.046.42-.069.7-.069.28 0 .585-.011.912-.034.257-.023.514-.034.77-.034h.561c.047 0 .059.068.035.205v.24a16.199 16.199 0 0 0 0 1.51 8.25 8.25 0 0 1-.035 1.305c.024.457.024.858 0 1.2 0 .321-.023.71-.07 1.168v.549c0 .297.012.64.035 1.03.024.365.035.731.035 1.097v.824ZM.053 14.463a2.785 2.785 0 0 1-.035-.514c.023-.23.035-.47.035-.721a1.25 1.25 0 0 0-.035-.31v-.377c.023-.022.035-.057.035-.103h2.523c.117 0 .187.012.21.035.023 0 .035.057.035.171v2.231a4.58 4.58 0 0 1-.666.034H.438c-.234-.023-.35-.057-.35-.103a1.18 1.18 0 0 1-.035-.343Zm5.937 2.608a.636.636 0 0 0-.034-.206.311.311 0 0 1 0-.205h.105a.59.59 0 0 1 .175-.035h.21a.902.902 0 0 1 .35 0c.118 0 .234-.011.351-.034H8.2c.046 0 .093.023.14.069l.105.102.07.31c0 .068.012.148.035.24.047.183.07.377.07.583a.635.635 0 0 1 .035.206c0 .137.012.206.035.206a1.05 1.05 0 0 0 .21-.275.503.503 0 0 1 .176-.24l.14-.137a.408.408 0 0 0 .105-.069 1.39 1.39 0 0 1 .175-.069l.316-.205a6.3 6.3 0 0 1 .56-.275c.187-.069.468-.194.841-.377.07-.023.187-.058.35-.103.188-.046.386-.08.597-.103.21-.046.42-.069.63-.069a6.23 6.23 0 0 1 .596-.034c.257.023.467.057.63.103.165.023.386.057.667.103.117.023.303.045.56.068.28.023.468.057.561.103.584.32 1.052.595 1.402.824.35.229.654.537.911.926.047.046.117.103.21.172.094.046.199.126.316.24.117.115.222.275.315.48.117.184.175.298.175.344.094.389.199.709.316.96.116.23.187.538.21.927.023.183.082.39.175.618.094.206.14.423.14.652 0 .229.012.492.035.79.024.274.012.674-.035 1.2v.447c.024.137.035.274.035.411v2.025c0 .137-.011.275-.035.412v.48c.024.138.035.298.035.48v.138c0 .069-.023.114-.07.137a.498.498 0 0 1-.21.035h-.772a2.589 2.589 0 0 1-.596 0l-1.051-.103a1.074 1.074 0 0 0-.385 0c-.164.023-.27-.012-.316-.103a29.124 29.124 0 0 1-.035-1.098c.023-.23.035-.435.035-.618 0-.114-.012-.252-.035-.412a15.705 15.705 0 0 1-.07-.72l.105-1.82c0-.228-.012-.4-.035-.514 0-.137-.012-.24-.035-.309 0-.091-.012-.194-.035-.309v-.549a3.33 3.33 0 0 0-.245-1.235 9.338 9.338 0 0 0-.526-1.236 2.367 2.367 0 0 0-.456-.618 2.53 2.53 0 0 0-.91-.549.587.587 0 0 0-.176-.034l-.806-.069a2.95 2.95 0 0 0-1.226.206c-.42.16-.678.32-.771.48-.164.275-.292.481-.386.619l-.28.411a5.907 5.907 0 0 0-.105.378c-.047.16-.106.366-.176.617-.046.23-.093.48-.14.755-.046.252-.07.48-.07.687v.48c0 .138-.011.275-.035.412l-.07.961-.21 1.304v.755a7.1 7.1 0 0 1-.035.72v.79c-.14.092-.257.137-.35.137a3.225 3.225 0 0 0-.561.138c-.094.045-.28.057-.561.034a7.416 7.416 0 0 0-1.016 0c-.42.046-.76.046-1.017 0-.257-.046-.385-.08-.385-.103v-.584c.023-.205.035-.411.035-.617v-.652c.023-.206.035-.366.035-.48 0-.412-.012-.756-.035-1.03a12.5 12.5 0 0 1-.035-1.03c0-.343-.012-.617-.035-.823 0-.23-.012-.515-.035-.858 0-.183.011-.412.035-.687a12 12 0 0 0 .035-.926c0-.39-.012-.767-.035-1.133v-.823a18.372 18.372 0 0 1-.035-1.099c0-.366.023-.732.07-1.098Z"/>
  <path fill="#fff" d="m31.213 16.76 1.105-1.082 1.706-1.622c.2-.23.401-.41.602-.54.201-.132.535-.164 1.004-.099.334 0 .703.033 1.104.098.402.066.853.099 1.355.099.067 0 .268.016.602.049.368 0 .552.016.552.05 0 .163-.05.294-.15.392l-2.158 2.261-.502.492c-.268.229-.552.49-.853.786-.301.262-.586.524-.853.786-.268.23-.435.393-.502.492a7.281 7.281 0 0 1-.904.835c-.3.262-.585.524-.853.787l-.853.835a7.976 7.976 0 0 1-.954.786l-.853.443c.067.13.268.377.602.737.369.36.753.72 1.155 1.081.368.36.72.672 1.054.934.334.23.535.393.602.491l1.807 1.819 1.756 1.622c.168.23.419.557.753.983.368.426.786.868 1.255 1.327l.502.491c.2.164.384.328.552.492.267.262.502.507.702.737.201.23.352.426.452.59 0 .098-.234.114-.703.049a7.641 7.641 0 0 0-.752-.148c-.201 0-.435-.016-.703-.049a10.28 10.28 0 0 0-1.004-.05 3.426 3.426 0 0 1-1.004-.048 1.995 1.995 0 0 0-.752-.05 5.06 5.06 0 0 1-.703.05.83.83 0 0 1-.502-.148.563.563 0 0 1-.2-.196l-.603-.688a8.923 8.923 0 0 0-.552-.59c-.2-.23-.435-.508-.703-.836a5.968 5.968 0 0 0-.652-.786 8.555 8.555 0 0 0-1.205-1.081 15.663 15.663 0 0 1-1.154-1.032 4.702 4.702 0 0 0-1.154-1.278c-.435-.36-.887-.786-1.355-1.278.033.164.033.344 0 .54v1.18c.033.328.05.688.05 1.082.034.36.05.72.05 1.08.034.328.034.558 0 .689 0 .295-.017.639-.05 1.032 0 .426-.017.672-.05.737-.067.066-.218.082-.452.05-.2-.034-.385-.05-.552-.05H24.94c-.435 0-.836.05-1.204.147a.885.885 0 0 1-.502.05h-.502c0-.131-.017-.426-.05-.885 0-.459-.017-.934-.05-1.425v-1.425c0-.46.016-.754.05-.885l-.15-3.49c0-.262-.051-.524-.151-.786a2.395 2.395 0 0 1-.05-.835c0-.46.016-.918.05-1.377.066-.458.083-.917.05-1.376a9.434 9.434 0 0 1 0-1.376c.033-.491.067-.966.1-1.425v-1.917c0-.491-.017-.966-.05-1.425 0-.459-.017-.934-.05-1.425a7.824 7.824 0 0 1 0-1.77 35.15 35.15 0 0 0 .15-1.867l.1-1.622v-3.49c0-.262-.016-.54-.05-.835a4.82 4.82 0 0 1 0-.983V.786c0-.163.067-.31.201-.442.134-.164.268-.246.402-.246h1.254c.335-.032.736-.049 1.205-.049.2 0 .368-.016.502-.049.1.197.15.393.15.59a16.486 16.486 0 0 0 0 1.818c.067.655.1 1.262.1 1.819l.101 1.376V6.83c0 .197-.017.492-.05.885v2.408c0 .36.017.623.05.787v1.277c.034.394.067.803.1 1.23v.786c.034.36.05.753.05 1.18V17.3l.252 2.113v.639c.468-.328.87-.622 1.204-.885a13.01 13.01 0 0 1 1.054-.835l2.008-1.573Z"/>
</svg>
