<svg width="1340" height="1146" viewBox="0 0 1340 1146" fill="none" xmlns="http://www.w3.org/2000/svg">
<path fill-rule="evenodd" clip-rule="evenodd" d="M430.382 912.113C438.239 928.884 446.101 945.651 453.963 962.417C466.333 988.795 478.702 1015.17 491.047 1041.56C494.152 1048.22 486.245 1055.47 467.319 1063.32C428.253 1079.49 389.181 1095.64 350.109 1111.8L246.725 1137.81C230.657 1141.85 214.355 1132.1 210.312 1116.03L187.288 1024.51C195.438 1020.29 203.591 1016.08 211.747 1011.87C228.063 1003.45 244.432 995.05 260.803 986.654L260.812 986.649L260.845 986.632C278.462 977.597 296.081 968.561 313.636 959.488C334.02 948.948 354.317 938.34 374.615 927.733C382.735 923.489 390.855 919.246 398.981 915.007C399.978 914.487 400.965 913.955 401.952 913.424L401.958 913.42C403.895 912.377 405.834 911.332 407.863 910.373C421.427 903.966 425.298 903.547 428.355 908.077C429.003 909.023 429.46 910.054 429.918 911.085C429.986 911.239 430.054 911.393 430.123 911.547C430.208 911.736 430.294 911.925 430.382 912.113ZM576.355 1054.89L1097.1 923.884C1093.62 916.586 1090.02 909.322 1085.05 902.684C1072.82 886.347 1062.49 869.192 1052.15 852.036C1045.37 840.776 1038.59 829.517 1031.27 818.489C1029.53 815.865 1027.89 813.203 1026.24 810.54L1026.24 810.54L1026.24 810.54L1026.24 810.539L1026.24 810.539L1026.24 810.538L1026.24 810.538L1026.24 810.537L1026.24 810.537L1026.24 810.535C1022.76 804.913 1019.28 799.29 1014.97 794.028C1010.43 788.487 1007.56 788.757 990.757 796.492C986.429 798.487 982.115 800.499 977.803 802.509L977.79 802.515L977.787 802.517L977.784 802.518L977.782 802.519L977.779 802.52L977.776 802.522L977.773 802.523L977.771 802.524L977.768 802.526L977.767 802.526C970.937 805.711 964.112 808.894 957.24 812.006C921.054 828.419 884.858 844.81 848.666 861.199L848.549 861.253L848.526 861.263L848.503 861.273L848.48 861.284L848.457 861.294L848.434 861.305L848.411 861.315L848.388 861.326L848.365 861.336C824.137 872.307 799.911 883.278 775.692 894.253C767.474 897.976 759.284 901.745 751.095 905.512L751.078 905.52C735.002 912.917 718.93 920.312 702.65 927.364C683.492 935.666 664.689 944.372 645.891 953.077L645.889 953.077L645.888 953.078C626.895 961.872 607.908 970.664 588.568 979.032C582.241 981.769 576.033 984.683 569.828 987.596L569.824 987.598C567.368 988.75 564.914 989.902 562.452 991.044C553.541 995.171 549.892 998.78 551.663 1001.93C552.272 1003 552.732 1004.13 553.191 1005.25C553.476 1005.96 553.761 1006.66 554.082 1007.34L576.355 1054.89ZM1156.64 908.904L1310.01 870.322C1326.08 866.28 1335.83 849.977 1331.78 833.909L1284.75 646.952C1281.01 648.5 1277.26 650.049 1273.52 651.597L1273.11 651.765L1272.7 651.934L1272.35 652.078L1272.12 652.174C1227.3 670.705 1182.48 689.235 1137.68 707.774C1132.92 709.741 1128.17 711.703 1123.41 713.665L1123.41 713.667L1123.41 713.667C1107.56 720.204 1091.72 726.737 1076 733.476C1058.03 741.18 1055.52 743.637 1058.75 749.928C1064.53 761.3 1070.56 772.575 1077.15 783.607C1080.37 789.007 1084.69 793.948 1089.29 798.738C1093.15 802.741 1095.41 802.416 1109.13 797.178C1113.77 795.406 1118.39 793.488 1123 791.57L1123 791.568L1123.82 791.228C1124.73 790.852 1125.63 790.476 1126.54 790.102C1136.63 785.932 1146.72 781.764 1156.81 777.596L1156.84 777.583L1156.88 777.57C1185.37 765.803 1213.87 754.034 1242.32 742.196C1243.28 741.796 1244.22 741.407 1245.13 741.028C1274.71 728.715 1277.9 727.388 1282.94 741.436C1283.2 742.137 1283.27 742.921 1283.29 743.704C1283.36 746.748 1279.74 750.018 1272.51 753.273C1266.84 755.83 1261.06 758.286 1255.28 760.673C1239.94 767.032 1224.59 773.383 1209.24 779.734L1209.23 779.741L1209.21 779.746L1209.2 779.752L1209.19 779.757L1209.17 779.763L1209.16 779.768L1209.15 779.774L1209.13 779.779L1209.12 779.785L1209.11 779.79L1209.07 779.805C1183.31 790.465 1157.55 801.125 1131.8 811.818C1125.44 814.459 1119 817.308 1113.01 820.351C1108.54 822.622 1106.36 825.157 1107.15 826.982C1107.96 828.921 1111.73 828.651 1116.73 826.859C1124.52 824.069 1132.38 821.16 1140.05 818.003C1159.3 810.071 1178.53 802.108 1197.76 794.144L1197.8 794.131L1197.86 794.104C1219.76 785.039 1241.65 775.973 1263.57 766.954C1285.7 757.853 1290.25 757.688 1294.26 765.057C1300.39 776.32 1298.81 777.781 1265.67 791.488C1253.71 796.434 1241.74 801.375 1229.78 806.315L1229.71 806.345C1202.45 817.605 1175.19 828.864 1147.95 840.185C1123.07 850.532 1121.67 851.914 1125.9 860.258C1125.93 860.311 1125.95 860.363 1125.98 860.416C1126.01 860.474 1126.04 860.533 1126.07 860.592L1126.07 860.593L1126.07 860.594C1126.24 860.929 1126.41 861.261 1126.61 861.586C1132.08 870.231 1137.57 878.867 1143.05 887.504L1143.06 887.512L1143.07 887.521L1143.07 887.53C1147.6 894.653 1152.13 901.776 1156.64 908.904ZM1220.12 390.017L1278.78 623.23C1270.4 626.753 1262.02 630.281 1253.63 633.809L1253.62 633.813L1253.6 633.822C1234.84 641.717 1216.08 649.613 1197.29 657.443C1167.67 669.778 1166 669.81 1160.96 659.217C1154.41 645.46 1147.96 631.662 1141.52 617.864L1141.52 617.862L1141.51 617.861L1141.51 617.859L1141.51 617.858L1141.51 617.857C1138.29 610.96 1135.07 604.064 1131.83 597.172C1131.64 596.757 1131.45 596.338 1131.26 595.919L1131.26 595.918C1130.64 594.527 1130.01 593.134 1129.13 591.852C1125.6 586.795 1121.74 586.97 1106.21 592.983C1102.08 594.58 1097.97 596.294 1093.86 598.009L1093.85 598.011L1093.85 598.012C1092.22 598.692 1090.59 599.371 1088.96 600.044C1054.85 614.146 1020.75 628.248 986.643 642.35L986.485 642.416C918.467 670.542 850.452 698.666 782.421 726.784C753.071 738.903 751.884 738.993 747.045 728.77C734.671 702.535 722.38 676.267 710.088 649.999L710.057 649.931L710.021 649.856L709.855 649.5C705.175 639.498 700.495 629.496 695.81 619.496L695.846 619.481C691.188 609.537 686.526 599.594 681.865 589.652L681.475 588.819C669.505 563.288 657.536 537.758 645.614 512.209C639.748 499.687 640.453 499.274 675.151 489.35C699.597 482.36 724.066 475.304 748.536 468.247L748.541 468.246L748.545 468.245L748.55 468.243L748.555 468.242L748.559 468.24C794.391 455.024 840.226 441.807 885.914 429.015C890.792 427.651 894.961 426.445 898.541 425.41L898.542 425.41C912.501 421.374 917.525 419.922 920.815 421.676C922.665 422.663 923.967 424.662 926.001 427.786L926.002 427.786C926.207 428.102 926.42 428.429 926.641 428.767C926.84 429.07 927.045 429.381 927.258 429.703C936.334 443.37 945.242 457.107 952.949 471.364C957.263 479.347 958.717 479.076 981.876 471.135C996.448 466.143 1011.02 461.277 1025.59 456.412L1025.6 456.409L1025.61 456.407L1025.62 456.404L1025.63 456.4C1039.45 451.784 1053.27 447.169 1067.1 442.443C1085.3 436.221 1103.51 429.931 1121.71 423.64L1121.72 423.639L1121.72 423.638L1121.72 423.637L1121.72 423.636L1121.73 423.635L1121.73 423.635L1121.74 423.631C1148.68 414.32 1175.63 405.011 1202.56 395.925C1208.41 393.949 1214.26 391.982 1220.12 390.017ZM1174.08 207.03L1214.32 366.973C1210.24 368.346 1206.17 369.717 1202.09 371.089L1202.08 371.092L1202.05 371.102L1202.02 371.112L1202 371.122L1201.9 371.154L1201.88 371.159C1187.38 376.04 1172.88 380.92 1158.37 385.84C1152.21 387.929 1146.05 390.006 1139.88 392.084L1139.83 392.102L1139.81 392.109L1139.79 392.117L1139.76 392.124L1139.75 392.128C1118.79 399.194 1097.82 406.262 1076.89 413.781C1069.24 416.531 1061.61 418.988 1053.98 421.445L1053.97 421.446C1042.89 425.014 1031.81 428.581 1020.66 433.043C1010.16 437.241 1003.68 436.854 1001.05 433.651C1000.89 433.455 1000.73 433.259 1000.57 433.064C1000.44 432.913 1000.32 432.762 1000.19 432.612C1000.05 432.442 999.914 432.272 999.773 432.102L999.452 431.717L999.285 431.516C997.054 428.835 994.819 426.149 993.158 423.222L992.872 422.719L992.871 422.718C988.133 414.378 983.392 406.035 979.498 397.346C972.085 380.749 962.718 364.983 953.351 349.217L953.35 349.216L953.349 349.215C947.303 339.039 941.258 328.863 935.738 318.464C930.56 308.684 931.829 307.237 960.56 295.345C1031.73 265.89 1102.91 236.461 1174.08 207.03ZM1148.29 104.521C1123.87 114.565 1099.47 124.668 1075.1 134.829C1055.69 142.929 1052.99 145.213 1056.01 152.046C1063.74 169.528 1071.87 186.837 1080.16 204.085C1086.74 217.763 1083.27 219.134 1062.91 227.194C1058.81 228.815 1054.03 230.705 1048.51 233.021C1018.99 245.412 989.355 257.609 959.718 269.808L959.713 269.81C953.44 272.392 947.167 274.974 940.895 277.558C919.787 286.254 918.579 286.223 913.625 279.177C901.096 261.298 891.07 242.351 882.2 222.926C876.021 209.337 867.875 196.601 859.728 183.863L859.727 183.861L859.726 183.86L859.721 183.852C855.665 177.51 851.608 171.167 847.795 164.718C845.256 160.434 839.171 159.932 826.417 163.482C814.749 166.726 803.144 169.802 791.539 172.877C778.986 176.203 766.434 179.529 753.802 183.07C742.132 186.339 736.968 185.596 735.237 181.762C734.105 179.232 732.874 176.74 731.644 174.246L731.642 174.243C729.68 170.27 727.718 166.294 726.149 162.163C723.805 155.933 727.236 153.024 745.035 145.348C751.613 142.508 758.254 139.779 764.888 137.052C767.231 136.089 769.573 135.127 771.911 134.16L937.176 65.8178L937.17 65.8051C949.577 60.6744 961.989 55.5542 974.402 50.4365C937.7 55.238 901 60.0361 864.301 64.8288L1092.91 7.31902C1108.97 3.27687 1125.28 13.0257 1129.32 29.0936L1148.29 104.521ZM93.2536 650.716L46.0895 463.235C59.8702 458.823 73.6488 454.419 87.4271 450.016L87.4619 450.005L87.505 449.991C110.214 442.734 132.922 435.476 155.636 428.181C159.215 427.031 162.791 425.818 166.368 424.606L166.37 424.605L166.371 424.605C172.858 422.406 179.348 420.206 185.855 418.375C193.997 416.087 198.304 416.277 199.505 419.225C200.905 422.7 202.397 426.137 203.984 429.536C224.649 473.71 245.336 517.868 266.026 562.034C268.431 567.167 262.901 573.066 249.441 579.724C235.935 586.416 221.913 592.299 207.888 598.183L207.887 598.184L207.885 598.185L207.875 598.189L207.861 598.195C202.652 600.381 197.442 602.566 192.258 604.794C184.562 608.096 180.105 608.245 178.426 605.705C176.996 603.601 175.73 601.425 174.629 599.18C170.955 591.395 167.318 583.595 163.682 575.796L163.669 575.769L163.659 575.747L163.598 575.617L163.554 575.523C161.315 570.72 159.076 565.919 156.828 561.121L156.709 560.867C156.007 559.365 155.302 557.859 154.317 556.482C154.182 556.29 154.056 556.086 153.929 555.88C153.372 554.974 152.785 554.021 151.212 553.811C141.654 552.506 131.132 557.403 120.708 562.256C116.779 564.085 112.863 565.907 109.019 567.388C98.6276 571.393 96.8748 575.568 98.4149 578.901C99.5694 581.415 100.721 583.93 101.873 586.446L101.934 586.58C103.989 591.068 106.044 595.557 108.116 600.038C109.499 603.033 110.916 606.015 112.334 608.997L112.347 609.023C115.436 615.521 118.527 622.021 121.26 628.664C124.02 635.388 110.804 645.381 93.2536 650.716ZM136.058 820.867L98.9136 673.215C106.095 669.893 113.278 666.573 120.461 663.254C122.28 662.415 124.088 661.556 125.895 660.698C129.642 658.919 133.386 657.142 137.222 655.54C161.155 645.555 184.426 634.76 207.698 623.965L207.699 623.965L207.7 623.964L207.701 623.964L207.702 623.963L207.703 623.963L207.704 623.962L207.705 623.962L207.706 623.962L207.707 623.961L207.709 623.961L207.71 623.96L207.711 623.96C222.859 616.933 238.006 609.906 253.336 603.103C254.566 602.557 255.791 601.996 257.018 601.434L257.023 601.432L257.039 601.424C259.549 600.274 262.06 599.124 264.612 598.102C276.284 593.41 279.747 593.116 282.458 596.908C283.668 598.593 284.43 600.473 285.193 602.354L285.193 602.355L285.194 602.358C285.551 603.24 285.909 604.122 286.313 604.984C293.19 619.694 300.083 634.398 306.977 649.104C310.424 656.456 313.87 663.807 317.315 671.16L317.273 671.178C320.321 677.684 323.373 684.188 326.425 690.692L326.494 690.837L326.501 690.853L326.507 690.868L326.514 690.883L326.521 690.898L326.528 690.913L326.536 690.929C334.535 707.973 342.534 725.016 350.45 742.091C354.099 749.971 353.956 750.312 332.713 761.25C308.679 773.625 284.532 785.92 260.382 798.217L260.354 798.231L260.334 798.241C247.399 804.828 234.463 811.414 221.543 818.014C217.215 820.225 212.918 822.461 208.622 824.697C201.062 828.632 193.503 832.566 185.77 836.366C173.309 842.487 169.788 842.95 166.595 838.664C164.487 835.847 163.052 832.729 161.617 829.611C160.972 828.209 160.327 826.807 159.62 825.433C159.464 825.13 159.315 824.824 159.169 824.516C159.063 824.293 158.958 824.069 158.853 823.845C158.155 822.35 157.455 820.852 156.296 819.565C152.912 815.747 149.241 815.934 136.968 820.524C136.665 820.638 136.361 820.752 136.058 820.867ZM151.485 882.19L181.708 1002.33L187.351 999.418C202.373 991.662 217.398 983.907 232.424 976.151L232.59 976.066L232.592 976.064L232.595 976.063L232.598 976.062L232.601 976.06L232.603 976.059L232.62 976.05C265.457 959.101 298.299 942.151 331.119 925.181C340.365 920.401 349.581 915.601 358.798 910.799L358.843 910.776L358.855 910.77C373.779 902.996 388.706 895.221 403.766 887.529C411.881 883.391 414.365 880.316 413.53 877.369C412.904 875.22 412.085 873.133 411.132 871.098C407.241 862.73 403.328 854.371 399.414 846.011L399.352 845.879C396.529 839.85 393.706 833.82 390.891 827.785C388.895 823.524 386.903 819.261 384.912 814.999L384.821 814.803L384.805 814.77C379.877 804.222 374.949 793.674 369.952 783.15C365.51 773.805 362.954 774.117 337.327 786.775C337.073 786.902 336.816 787.031 336.559 787.161C336.221 787.333 335.883 787.506 335.551 787.679C321.529 794.877 307.507 802.073 293.485 809.269L292.853 809.594L292.509 809.77L292.163 809.948L291.814 810.127L291.753 810.158C244.981 834.162 198.213 858.163 151.485 882.19ZM1102.05 689.46C1104.64 695.706 1102.99 697.567 1085.81 704.973C1063.86 714.438 1041.65 723.548 1019.46 732.596C984.943 746.669 985.89 748.089 990.153 754.487C990.851 755.534 991.637 756.714 992.371 758.104C992.553 758.448 992.743 758.788 992.933 759.128L992.933 759.129C993.6 760.322 994.267 761.517 994.573 762.851C995.649 767.372 992.858 770.081 981.637 775.692L981.586 775.717L981.585 775.718C980.409 776.309 979.2 776.917 977.957 777.409C959.051 784.851 941.036 793.398 923.005 801.953L923.004 801.953C908.033 809.056 893.05 816.164 877.538 822.649C859.314 830.265 841.477 838.749 823.767 847.172L823.645 847.231C820.008 848.96 816.376 850.688 812.747 852.404C799.467 858.689 785.873 864.562 772.281 870.433L772.279 870.434L772.278 870.435C752.03 879.182 731.787 887.926 712.594 898.028C705.266 901.887 697.005 905.195 688.762 908.495L688.759 908.496C685.409 909.838 682.061 911.179 678.78 912.554C671.243 915.719 666.275 915.96 664.211 913.732C662.222 911.613 660.611 909.321 659.384 906.865C655.398 898.575 651.502 890.252 647.606 881.927L647.605 881.925L647.602 881.919L647.599 881.913L647.596 881.906L647.593 881.9L647.59 881.894L647.587 881.887L647.584 881.881L647.58 881.874C645.461 877.345 643.341 872.816 641.206 868.293C641.026 867.908 640.851 867.52 640.676 867.133C639.926 865.474 639.176 863.814 638.009 862.342C634.626 858.02 630.8 857.984 617.858 863.126C576.927 879.386 577.248 880.06 582.599 891.277L582.605 891.29L582.631 891.345C582.869 891.844 583.117 892.363 583.371 892.905C589.525 905.996 595.678 919.084 601.74 932.209C602.899 934.695 603.801 937.286 604.445 939.977C605.36 943.909 601.017 948.337 590.975 953.119C577.483 959.557 563.601 965.331 549.646 971.01C542.406 973.949 538.797 973.838 537.534 971.48C537.4 971.228 537.262 970.979 537.123 970.73C537.045 970.591 536.967 970.452 536.889 970.313C536.492 969.607 536.096 968.903 535.754 968.172C518.496 931.378 501.252 894.57 484.01 857.765L484.221 857.677L433.764 749.972C433.606 749.636 433.441 749.304 433.275 748.972C432.883 748.187 432.492 747.404 432.212 746.569C430.921 742.846 434.849 738.483 443.992 733.485C462.058 723.585 480.872 714.196 499.687 704.807C507.827 700.745 515.968 696.682 524.048 692.578C526.773 691.194 529.5 689.811 532.228 688.428C534.022 687.518 535.817 686.609 537.612 685.7L537.623 685.694L537.625 685.693C555.136 676.822 572.651 667.948 589.814 658.876C596.47 655.357 603.296 652.203 610.129 649.046L610.131 649.046L610.132 649.045L610.133 649.045L610.134 649.044L610.135 649.044L610.136 649.043L610.137 649.043L610.138 649.042L610.139 649.042L610.142 649.04C613.097 647.675 616.054 646.309 618.998 644.913C628.763 640.293 633.664 640.507 635.795 643.413C637.251 645.4 638.272 647.581 639.29 649.754L639.406 650.003C647.924 668.165 656.428 686.334 664.933 704.503L664.939 704.516C675.564 727.218 686.191 749.92 696.846 772.613C702.703 785.071 702.917 785.235 738.603 770.533C802.767 744.107 866.878 717.595 930.987 691.084L930.999 691.08L931.2 690.996L931.212 690.991C963.191 677.767 995.169 664.543 1027.15 651.33C1028.58 650.741 1030.01 650.15 1031.44 649.559L1031.44 649.558C1040.14 645.956 1048.87 642.344 1057.64 639.08C1072.98 633.358 1075.44 633.294 1078.2 638.679C1082.06 646.216 1085.61 653.888 1089.15 661.559L1089.15 661.561C1090.42 664.299 1091.68 667.038 1092.96 669.769C1093.74 671.41 1094.52 673.046 1095.31 674.682L1095.32 674.707C1097.66 679.585 1100 684.462 1102.05 689.46ZM580.195 526.218L579.764 525.299C577.049 519.514 574.333 513.729 571.619 507.943C571.184 507.025 570.764 506.1 570.343 505.175L570.342 505.172L570.342 505.172C569.015 502.251 567.687 499.329 565.881 496.614C562.646 491.688 559.77 491.932 544.476 497.774C539.385 499.716 534.298 501.82 529.254 503.924L512.405 510.935C465.625 530.402 418.846 549.868 372.086 569.378C354.363 576.77 353.593 577.581 356.194 584.391C356.718 585.76 357.356 587.086 357.993 588.411L357.993 588.411L357.995 588.416L357.999 588.424C358.223 588.888 358.446 589.353 358.664 589.819L385.874 647.9L385.723 647.962L414.83 710.093C414.956 710.351 415.086 710.607 415.219 710.864C415.372 711.16 415.529 711.456 415.686 711.752L415.687 711.754C415.979 712.304 416.271 712.855 416.542 713.411C418.096 716.635 424.002 715.942 431.839 711.823C437.386 708.905 443.121 706.15 448.858 703.394L448.859 703.393C457.07 699.449 465.286 695.501 472.97 691.07L473.327 690.863C490.199 681.133 491.469 680.4 488.711 673.373C486.716 668.208 484.335 663.197 481.955 658.188C481.026 656.233 480.098 654.279 479.192 652.316C477.946 649.625 476.669 646.945 475.391 644.266C472.923 639.088 470.454 633.91 468.21 628.643C464.709 620.389 466.863 618.467 488.84 609.232C493.253 607.372 497.681 605.542 502.121 603.74C521.742 595.811 524.653 595.552 528.022 602.344C531.882 610.152 535.545 618.044 539.208 625.938C540.882 629.545 542.556 633.152 544.249 636.752C544.65 637.59 545.023 638.44 545.397 639.291C546.323 641.395 547.25 643.503 548.589 645.433C551.131 649.158 553.813 649.083 564.509 644.362C571.009 641.491 577.311 638.342 583.608 635.195C585.715 634.142 587.823 633.089 589.936 632.046C621.876 616.28 622.222 615.959 616.546 603.845C604.48 577.965 592.348 552.113 580.213 526.256L580.195 526.218ZM876.236 406.593C907.511 397.584 907.677 397.111 902.477 385.72C896.768 373.165 889.125 361.44 881.481 349.713L881.481 349.712L881.48 349.711C875.098 339.92 868.714 330.126 863.453 319.846C849.817 293.177 835.442 266.812 821.066 240.447L821.051 240.419L821.034 240.389C815.614 230.449 810.194 220.509 804.814 210.552C804.317 209.633 803.656 208.781 802.995 207.931C802.081 206.754 801.169 205.579 800.694 204.227C798.7 198.622 789.167 199.335 774.982 203.22C704.155 222.578 633.351 241.871 562.572 261.099C533.368 269.035 532.078 269.917 536.87 280.146C547.106 302.105 557.393 324.041 567.68 345.978L567.717 346.056L567.721 346.064C571.96 355.105 576.2 364.146 580.436 373.189L580.472 373.174L602.579 420.364C604.861 425.234 607.126 430.112 609.391 434.99L609.406 435.02C614.87 446.785 620.334 458.552 626.029 470.22C629.086 476.455 631.949 476.353 649.597 471.316C663.631 467.305 677.655 463.303 691.681 459.302L702.927 456.093C720.108 451.19 737.285 446.298 754.463 441.407L754.733 441.33L754.761 441.322C795.237 429.795 835.715 418.268 876.236 406.593ZM523.051 404.217C518.895 395.356 514.738 386.495 510.592 377.629L510.574 377.637C506.893 369.778 503.213 361.919 499.534 354.06L499.416 353.808L499.259 353.473C491.745 337.425 484.232 321.377 476.703 305.337C476.261 304.404 475.834 303.464 475.407 302.525C473.981 299.389 472.555 296.252 470.572 293.352C467.158 288.383 463.164 288.846 448.957 295.966C442.564 299.172 436.29 302.47 430.019 305.766C422.236 309.858 414.457 313.947 406.461 317.855C380.647 330.471 355.374 343.457 330.102 356.442L330.099 356.444C315.188 364.106 300.277 371.767 285.256 379.352C265.598 389.272 265.296 390.07 268.509 397.62L269.143 398.973C276.795 415.323 284.445 431.672 292.094 448.021C307.317 480.556 322.539 513.09 337.779 545.622C338.187 546.492 338.657 547.339 339.128 548.185C339.63 549.089 340.133 549.993 340.559 550.927C341.925 553.934 346.391 554.048 355.157 550.393C357.88 549.257 360.618 548.149 363.36 547.039L363.367 547.036L363.378 547.031C365.696 546.093 368.018 545.153 370.335 544.195C420.39 523.506 470.447 502.805 520.504 482.105L521.793 481.572C552.916 468.694 553.08 468.616 547.891 457.385C539.676 439.657 531.376 421.964 523.076 404.27L523.051 404.217Z" fill="#0D2323"/>
</svg>
