<svg width="1441" height="971" viewBox="0 0 1441 971" fill="none" xmlns="http://www.w3.org/2000/svg">
<g clip-path="url(#clip0_58_3281)">
<path d="M1623.49 300.252C1623.7 324.48 1618.48 346.758 1608.3 368.231C1600.63 384.394 1593.2 400.691 1584.97 416.518C1567.65 449.819 1559.58 483.825 1560.79 522.502C1564.02 626.469 1563.01 730.571 1563.45 834.606C1563.48 845.728 1562.84 857.019 1560.99 867.973C1558.98 879.835 1551.82 887.933 1539.34 890.756C1490.29 901.845 1441.38 913.337 1392.32 924.292C1349.83 933.801 1307 941.933 1264.74 952.35C1239.82 958.466 1213.9 959.34 1189.43 968.48C1179.58 972.142 1166.97 971.269 1156.21 969.286C1080.23 955.341 1003.07 950.838 926.521 941.833C848.892 932.693 770.928 925.031 693.367 915.286C633.49 907.759 572.874 907.188 513.568 894.217C487.479 888.471 460.18 889.58 433.452 887.093C383.358 882.49 334.038 872.039 283.541 870.258C238.927 868.646 195.255 856.851 150.439 854.734C91.2683 851.945 33.3079 838.067 -26.132 835.916C-86.4461 833.766 -89.2032 829.162 -89.5058 768.542C-89.6739 729.361 -89.5395 690.214 -89.5395 651.066H-89.7746C-89.7746 605.165 -89.9762 559.297 -89.6737 513.429C-89.5392 493.872 -93.7083 475.894 -104.668 459.429C-110.249 451.062 -113.275 440.813 -119.663 433.286C-173.992 369.272 -168.277 292.691 -166.327 216.682C-165.856 199.174 -158.998 190.001 -141.112 187.884C-99.9951 183.011 -59.1469 174.879 -17.929 172.292C63.5656 167.218 144.354 155.457 225.412 146.619C284.213 140.201 343.485 137.547 401.95 127.264C430.527 122.224 459.675 119.031 488.689 118.057C546.952 116.074 603.804 102.163 662.168 100.247C703.386 98.9032 744.267 89.8976 785.485 86.7725C846.774 82.1017 907.088 69.7023 968.646 66.9804C1005.46 65.3339 1042 58.7813 1078.72 54.7489C1170.87 44.6008 1263.06 34.52 1355.27 24.5736C1430.79 16.4753 1506.33 8.54492 1581.87 0.681837C1588.53 -0.0238249 1595.29 -0.0910061 1602.01 0.0770085C1613.88 0.312229 1620.84 6.59598 1621.98 18.357C1622.89 27.2618 1623.26 36.2337 1623.26 45.1721C1623.33 130.187 1622.82 215.237 1623.49 300.252Z" fill="#3DBAE1"/>
</g>
<defs>
<clipPath id="clip0_58_3281">
<rect width="1440" height="971" fill="white" transform="translate(0.5)"/>
</clipPath>
</defs>
</svg>
