<svg width="200" height="100" viewBox="0 0 200 100" fill="none" xmlns="http://www.w3.org/2000/svg">
<path d="M199.983 96.1826C199.94 98.9822 198.313 100.219 195.559 99.9684C193.003 99.7344 190.438 99.4084 187.925 98.8736C161.4 93.2492 134.892 87.4911 108.349 81.9169C79.3021 75.8162 50.2206 69.8826 21.1649 63.8236C18.6604 63.3055 16.2421 62.3695 13.7634 61.7009C3.33226 58.8762 3.40096 58.8845 2.69523 48.179C1.93785 36.5375 0.991122 24.896 0.190713 13.2545C0.00136954 10.4882 -0.0674758 7.69695 0.0788353 4.93073C0.233753 2.05586 1.85181 0.309215 4.97599 0.208929C7.54934 0.117 10.1227 0.0334286 12.696 0.0334286C40.1853 0.0167143 67.6747 0.0250715 95.164 0.0250715C122.085 0.0167143 148.998 0.00835716 175.919 0.0167143C178.493 0.0167143 181.074 -0.050143 183.648 0.0835716C189.931 0.417858 190.395 0.785572 191.557 6.58544C192.16 9.58566 192.702 12.611 192.986 15.6446C195.327 40.8247 197.599 66.0049 199.871 91.185C200.026 92.8397 200.009 94.5111 199.983 96.1826Z" fill="#051A1A"/>
</svg>
