<svg width="12" height="16" viewBox="0 0 12 16" fill="none" xmlns="http://www.w3.org/2000/svg">
<path fill-rule="evenodd" clip-rule="evenodd" d="M6.00003 0.666626C8.48515 0.666626 10.5733 2.36632 11.1653 4.66663H12V7.99996H8.66667V7.9995C8.05835 8.80924 7.09 9.33329 6 9.33329C4.91 9.33329 3.94165 8.80924 3.33333 7.9995V7.99996H0V4.66663H0.834717C1.42677 2.36632 3.51491 0.666626 6.00003 0.666626ZM2.22763 4.66663H2.94435C3.45903 3.48969 4.63398 2.66663 6 2.66663C7.36602 2.66663 8.54097 3.48969 9.05565 4.66663H9.77242C9.2233 3.11304 7.74165 1.99996 6.00003 1.99996C4.2584 1.99996 2.77675 3.11304 2.22763 4.66663ZM6 3.99996C7.1 3.99996 8 4.89996 8 5.99996C8 7.09996 7.1 7.99996 6 7.99996C4.9 7.99996 4 7.09996 4 5.99996C4 4.89996 4.9 3.99996 6 3.99996ZM0 10.6666V15.3333H12V10.6666H0ZM1.33333 14V12H10.6667V14H1.33333Z" fill="#8B8B8B"/>
</svg>
