<svg width="720" height="990" viewBox="0 0 720 990" fill="#FFDA1D" xmlns="http://www.w3.org/2000/svg">
<path fill-rule="evenodd" clip-rule="evenodd" d="M488.031 481.793C520.077 436.32 552.066 390.808 583.975 345.251C589.69 337.082 589.53 335.602 581 330.331C562.302 318.8 543.545 307.336 524.45 296.492C518.863 293.315 513.51 289.772 508.159 286.232C501.845 282.054 495.536 277.878 488.854 274.312C475.166 266.999 461.988 258.833 448.81 250.666C437.659 243.756 426.509 236.846 415.049 230.453C405.177 224.938 395.305 219.3 386.037 212.852C368.649 200.766 350.356 190.154 332.08 179.552C326.467 176.296 320.855 173.041 315.272 169.744C306.337 164.469 297.452 159.104 288.567 153.738C268.687 141.732 248.8 129.723 228.316 118.706C226.135 117.534 224.297 116.402 222.691 115.413C214.454 110.339 212.297 109.01 201.008 125.173C181.38 153.271 161.693 181.334 142.008 209.395C133.573 221.418 125.139 233.441 116.709 245.466L116.988 245.661C109.767 255.962 102.546 266.262 95.3246 276.561C73.6717 307.444 52.0204 338.325 30.3936 369.23C21.8147 381.486 22.2603 382.836 34.4713 391.078C47.4746 399.848 60.6299 408.388 73.7853 416.927C94.1441 430.143 114.503 443.359 134.3 457.429C144.662 464.788 155.286 471.792 165.903 478.791L166.579 479.237C170.299 481.691 174.185 483.896 178.065 486.099C179.107 486.69 180.148 487.281 181.186 487.876C185.807 490.517 190.489 490.441 193.759 486.09C197.222 481.469 201.438 477.636 205.655 473.803C208.562 471.16 211.469 468.517 214.132 465.615C221.392 457.7 229.083 450.175 236.773 442.651C239.063 440.41 241.353 438.169 243.631 435.918C248.923 430.691 254.245 425.498 259.565 420.305C265.419 414.591 271.273 408.878 277.087 403.121C283.588 396.691 290.022 390.191 296.459 383.688C299.13 380.99 301.801 378.291 304.477 375.597C307.827 372.23 311.445 372.104 315.285 374.674C317.222 375.97 319.153 377.275 321.061 378.612C332.703 386.773 344.344 394.938 355.985 403.103C375.425 416.739 394.866 430.375 414.315 443.993C418.083 446.63 421.849 449.268 425.616 451.907C441.216 462.836 456.812 473.763 472.517 484.535C480.41 489.946 482.599 489.49 488.031 481.793ZM624.222 397.929C621.526 389.758 618.832 381.59 615.868 373.516C613.177 366.171 610.73 365.847 605.775 372.01C601.817 376.941 598.254 382.198 594.727 387.456C580.145 409.153 564.435 430.036 548.723 450.919C532.003 473.143 515.282 495.369 499.919 518.579C490.053 533.473 489.624 533.283 475.245 523.203C454.431 508.619 433.621 494.029 412.81 479.44C385.064 459.989 357.318 440.538 329.565 421.097C326.027 418.618 322.384 416.271 318.675 414.037C314.754 411.668 310.887 412.132 307.726 415.388C301.406 421.902 294.899 428.224 288.393 434.545C285.839 437.026 283.285 439.507 280.743 442C270.821 451.711 261.096 461.621 251.369 471.531C244.811 478.214 238.252 484.898 231.632 491.521C226.589 496.566 221.448 501.514 216.308 506.462C210.906 511.661 205.505 516.86 200.218 522.171C191.811 530.628 191.079 530.957 181.011 524.205C163.025 512.147 144.701 500.621 126.326 489.169C118.295 484.162 115.016 481.823 111.95 482.075C108.76 482.337 105.8 485.402 97.9621 491.183C78.7856 505.34 59.8962 519.88 41.0076 534.419C30.9277 542.178 20.8482 549.937 10.7253 557.637C-3.64305 568.57 -3.74404 568.976 11.4457 579.623C42.4186 601.361 73.4061 623.077 104.394 644.794C116.784 653.477 129.175 662.161 141.564 670.846L141.553 670.862C153.608 679.312 165.662 687.765 177.716 696.217C209.851 718.75 241.986 741.283 274.145 763.782C286.579 772.473 287.298 772.318 296.103 759.793C316.527 730.691 336.933 701.583 357.341 672.474C367.539 657.927 377.737 643.38 387.938 628.834C388.433 628.133 388.92 627.427 389.407 626.72C390.623 624.954 391.839 623.189 393.172 621.524C398.193 615.249 400.622 614.851 407.539 619.077C409.28 620.148 410.948 621.332 412.613 622.515C413.119 622.874 413.625 623.234 414.133 623.59C422.504 629.454 430.872 635.323 439.239 641.192C455.964 652.924 472.689 664.656 489.444 676.344C502.342 685.349 503.439 685.214 512.228 672.483C517.823 664.381 523.331 656.224 528.839 648.068C535.264 638.553 541.69 629.039 548.251 619.613C580.033 573.942 611.902 528.321 643.96 482.832C647.988 477.12 649.133 472.073 646.747 465.32C641.878 451.53 637.312 437.631 632.745 423.729C630.766 417.705 628.787 411.681 626.783 405.664C625.923 403.087 625.072 400.508 624.222 397.929Z" fill="#163A3A"/>
<path d="M862.681 -182.414C869.583 -176.111 877.517 -171.001 884.087 -164.466C901.798 -146.824 921.539 -131.484 940.232 -114.998C952.401 -104.257 964.092 -92.851 977.066 -82.9626C990.163 -72.988 990.277 -71.1126 981.165 -57.8871C973.61 -46.9168 965.885 -36.0531 958.233 -25.1378L958.061 -25.2583C949.457 -12.9837 941.06 -0.55163 932.175 11.5139C926.284 19.4992 925.151 19.3035 916.996 13.3423C906.235 5.46982 895.615 -2.54929 886.179 -12.0332C883.848 -14.3875 881.166 -16.4143 878.504 -18.4018C874.753 -21.2028 871.018 -20.8408 867.646 -17.6849C865.95 -16.1016 864.391 -14.3485 862.877 -12.589C851.634 0.522816 840.689 13.8552 828.814 26.475C819.292 36.592 811.084 48.0576 801.478 58.2253C789.377 71.0286 778.679 85.0354 766.557 97.8853C756.367 108.694 747.274 120.76 737.45 132.058C730.339 140.25 727.467 140.533 719.107 134.062C693.805 114.494 667.661 96.0943 641.539 77.6617C627.467 67.7365 627.657 67.1 638.612 54.3116C650.716 40.1796 664.103 27.215 675.502 12.4173C682.78 2.97469 691.953 -5.00596 699.532 -14.2501C709.449 -26.3248 720.963 -36.9141 730.579 -49.2733C738.121 -58.9705 746.852 -67.7494 755.032 -76.9629C771.35 -95.3464 787.392 -113.997 804.058 -132.076C815.773 -144.783 825.962 -158.865 838.809 -170.572C841.959 -173.444 844.191 -177.326 846.943 -180.66C852.671 -187.611 856.214 -188.328 862.681 -182.414Z" fill="#163A3A"/>
<path d="M606.51 91.6597C637.028 113.053 667.593 134.38 698.043 155.871C710.862 164.918 710.831 165.434 701.655 178.541C676.834 213.984 651.989 249.411 627.16 284.848C626.018 286.478 624.887 288.127 623.681 289.725C618.069 297.209 617.576 297.266 608.989 292.81C600.409 288.359 592.332 283.088 584.079 278.084C561.06 264.146 537.804 250.58 514.611 236.924C498.556 227.477 483.105 217.062 467.032 207.639C456.151 201.245 445.691 194.181 434.408 188.397C424.045 183.075 414.694 176.031 405.12 169.393C401.039 166.557 400.239 163.395 403.274 159.344C404.669 157.476 405.9 155.493 407.238 153.585C436.081 112.438 464.93 71.2821 493.788 30.1321C495.125 28.2242 496.454 26.3105 497.857 24.4484C500.483 20.9643 503.896 20.4505 507.57 22.4035C510.198 23.7938 512.626 25.5928 515.074 27.309C545.604 48.6856 576.117 70.0867 606.636 91.4796L606.51 91.6597Z" fill="#163A3A"/>
<path d="M752.375 694.985C755.239 702.989 760.561 706.268 768.76 707.081C798.578 710.031 828.354 713.355 858.144 716.553C894.556 720.462 930.965 724.393 967.374 728.324C969.021 728.501 970.671 728.778 972.264 729.187C975.803 730.08 976.317 732.431 974.595 735.217C973.203 737.465 971.489 739.561 969.65 741.471C951.004 760.91 932.014 780.022 913.769 799.814C906.098 808.127 898.279 816.336 890.907 824.919C885.662 831.025 885.905 833.919 892.599 838.794C904.725 847.611 917.126 856.035 929.337 864.73C938.332 871.132 938.722 872.334 932.406 881.45C913.043 909.386 893.539 937.211 873.906 964.957C867.482 974.034 865.787 974.117 856.005 967.846C824.332 947.524 792.731 927.083 761.015 906.841C726.491 884.802 691.861 862.933 657.288 840.982C656.722 840.622 656.182 840.243 655.628 839.867C645.344 832.829 645.044 831.532 652.392 820.929C663.979 804.224 675.708 787.631 687.378 770.984C697.233 756.924 696.977 755.547 682.82 746.075C673.56 739.877 670.67 740.306 664.049 749.648C651.715 767.051 639.6 784.595 627.292 802.015C624.996 805.255 622.356 808.289 619.655 811.219C617.924 813.096 615.652 813.567 613.374 811.921C611.222 810.376 610.406 808.021 611.357 805.757C612.632 802.718 614.378 799.827 616.264 797.119C628.434 779.601 640.696 762.16 652.907 744.671C654.623 742.223 656.286 739.712 657.783 737.123C659.694 733.821 659.181 730.738 656.416 728.08C655.7 727.394 654.955 726.714 654.154 726.115C637.747 713.772 637.249 715.597 627.743 729.315C616.367 745.753 604.821 762.084 593.339 778.447C591.617 780.904 589.955 783.415 588.056 785.723C583.584 791.161 582.368 791.591 576.216 788.328C568.866 784.422 561.57 780.371 554.594 775.846C540.333 766.608 526.237 757.117 512.21 747.529C504.436 742.226 503.916 739.919 509.01 732.06C514.812 723.121 521.059 714.47 527.176 705.727C547.238 677.072 567.338 648.431 587.422 619.78L587.177 619.607C610.699 586.051 634.214 552.488 657.758 518.935C660.048 515.668 662.385 512.421 664.82 509.243C672.266 499.527 673.79 499.74 678.526 511.486C699.199 562.761 719.811 614.053 740.456 665.333C744.434 675.216 748.803 684.959 752.375 694.985Z" fill="#163A3A"/>
<path d="M766.295 -457.072C772.233 -452.983 776.773 -447.908 780.266 -441.759C782.896 -437.131 785.599 -432.538 788.049 -427.828C793.208 -417.922 800.117 -410.148 809.749 -403.836C835.635 -386.863 860.831 -368.835 886.258 -351.17C888.974 -349.279 891.616 -347.194 893.97 -344.873C896.516 -342.355 897.267 -339.228 895.825 -335.707C890.153 -321.866 884.602 -307.989 878.896 -294.17C873.958 -282.196 868.627 -270.374 863.951 -258.302C861.188 -251.19 856.975 -244.727 855.024 -237.204C854.234 -234.18 851.869 -231.258 849.549 -228.976C833.178 -212.852 818.908 -194.829 803.643 -177.722C788.162 -160.375 772.984 -142.695 757.368 -125.469C745.31 -112.171 734.822 -97.5041 721.536 -85.2751C715.681 -79.9024 711.291 -73.0638 706.122 -66.9787C696.447 -55.5641 685.48 -45.3366 676.424 -33.3416C668.414 -22.7509 658.084 -14.1286 649.917 -3.57488C639.135 10.3606 625.857 22.1069 615.185 36.2169C604.363 50.5399 602.771 50.425 587.947 40.1438C578.37 33.4919 568.853 26.7721 559.314 20.085L559.274 20.1423C548.088 12.3014 536.876 4.51547 525.751 -3.39331C521.008 -6.76673 515.915 -8.82218 510.031 -8.96531C507.04 -9.03526 504.026 -10.049 501.101 -9.77897C476.226 -7.48093 458.54 -21.9544 440.35 -35.4132C436.164 -38.5184 435.1 -41.7558 437.638 -46.4738C443.47 -57.3207 448.463 -68.6589 454.869 -79.14C467.547 -99.8558 478.474 -121.542 490.159 -142.794C498.635 -158.212 508.107 -173.102 515.583 -189.099C519.234 -196.92 523.433 -204.565 528.149 -211.798C537.613 -226.327 543.929 -242.55 553.427 -257.093C560.137 -267.362 564.922 -278.857 571.198 -289.43C580.524 -305.156 587.8 -321.964 597.646 -337.422C603.53 -346.67 608.173 -356.69 613.458 -366.321C626.719 -390.499 640.001 -414.674 653.322 -438.835C664.241 -458.61 675.206 -478.364 686.188 -498.107C687.152 -499.849 688.29 -501.506 689.479 -503.115C691.562 -505.966 694.282 -506.587 697.343 -504.857C699.668 -503.557 701.917 -502.114 704.095 -500.587C724.824 -486.081 745.463 -471.431 766.295 -457.072Z" fill="#163A3A"/>
<path d="M1199.37 184.881C1206.02 189.866 1206.27 191.595 1201.74 198.91C1200.87 200.327 1199.89 201.677 1198.93 203.044L1143.28 282.424C1142.52 283.513 1141.76 284.617 1140.96 285.677C1135.1 293.397 1133.34 293.871 1125.43 288.557C1115.48 281.863 1105.78 274.809 1095.9 268.025C1086.48 261.574 1084.98 261.852 1078.32 271.301C1063.56 292.276 1048.87 313.302 1034.14 334.314C1019.97 354.488 1005.82 374.672 991.675 394.857C990.337 396.765 989.043 398.716 987.6 400.549C982.793 406.657 981.115 406.995 975.775 401.651C968.485 394.368 961.505 386.764 954.483 379.204C937.971 361.401 921.719 343.365 904.898 325.846C891.776 312.179 879.551 297.65 866.699 283.719C852.032 267.832 837.032 252.262 822.307 236.421C801.711 214.253 781.205 191.99 760.725 169.708C753.331 161.667 753.612 160.57 760.962 152.471C768.112 144.588 775.062 136.502 781.712 128.183C791.915 115.44 802.833 103.261 813.756 91.2324C830.093 73.2405 844.7 53.7434 862.037 36.6599C864.862 33.8657 867.103 30.4779 869.726 27.4681C874.558 21.916 876.518 21.4708 882.241 25.8853C891.997 33.3959 901.719 40.9556 910.974 49.1286C925.443 61.8845 940.22 74.3064 955.025 86.6873C971.357 100.358 988.57 112.962 1004.09 127.615C1012.85 135.882 1014.69 136.011 1024.7 129.212C1035.14 122.121 1045.41 114.765 1055.64 107.367C1063.88 101.409 1067.08 100.89 1074.61 105.627C1113.2 129.944 1151.75 154.304 1190.3 178.679C1193.4 180.632 1196.44 182.69 1199.37 184.881Z" fill="#163A3A"/>
<path d="M742.604 195.889C748.993 203.603 756.183 210.524 762.97 217.846C783.771 240.279 804.663 262.618 825.428 285.087C844.162 305.363 862.699 325.819 881.459 346.077C901.331 367.554 921.399 388.838 941.285 410.312C947.381 416.894 953.039 423.876 959.081 430.517C962.383 434.151 962.087 437.448 959.38 441.205C954.114 448.492 949.161 456.011 943.828 463.252C939.279 469.429 938.013 469.702 931.614 465.363C920.316 457.7 909.217 449.737 898.031 441.896L897.979 441.97C887.342 434.513 876.778 426.937 866.037 419.628C857.924 414.112 855.49 414.64 849.42 422.341C837.52 437.435 837.528 437.721 853.496 449C871.178 461.492 888.938 473.892 906.649 486.344C909.1 488.074 911.605 489.745 913.89 491.676C919.341 496.304 919.597 497.472 915.743 503.319C911.526 509.718 906.902 515.843 902.661 522.225C898.494 528.5 898.826 531.04 904.712 535.728C909.933 539.864 915.43 543.644 920.889 547.458C962.367 576.509 1003.86 605.522 1045.34 634.564C1059.61 644.549 1059.96 645.09 1048.76 657.729C1037.73 670.177 1025.89 681.902 1014.49 694.014C1009.3 699.544 1003.39 701.142 995.702 700.296C928.209 692.834 860.699 685.554 793.149 678.748C782.485 677.672 776.81 673.486 772.834 663.409C746.78 597.494 719.698 531.981 693.879 465.975C682.5 436.859 673.313 406.899 663.13 377.314C657.607 361.255 652.289 345.132 646.503 329.169C643.86 321.895 644.93 316.257 649.572 309.791C674.644 274.878 699.167 239.58 723.887 204.42C725.812 201.691 727.661 198.896 729.826 196.383C735.039 190.305 737.696 189.981 742.604 195.889Z" fill="#163A3A"/>
</svg>
