<svg width="648" height="658" viewBox="0 0 648 658" fill="none" xmlns="http://www.w3.org/2000/svg">
<path fill-rule="evenodd" clip-rule="evenodd" d="M488.031 369.793C520.077 324.32 552.066 278.808 583.975 233.251C589.69 225.082 589.53 223.602 581 218.331C562.302 206.8 543.545 195.336 524.45 184.492C518.863 181.315 513.51 177.772 508.159 174.232C501.845 170.054 495.536 165.878 488.854 162.312C475.166 154.999 461.988 146.833 448.81 138.666C437.659 131.756 426.509 124.846 415.049 118.453C405.177 112.938 395.305 107.3 386.037 100.852C368.649 88.7659 350.355 78.1541 332.08 67.5524C326.467 64.2962 320.855 61.041 315.272 57.7443C306.337 52.469 297.452 47.1039 288.567 41.7379C268.687 29.7325 248.8 17.7229 228.316 6.70649C226.135 5.53412 224.297 4.40221 222.691 3.41273C214.454 -1.66144 212.297 -2.9905 201.008 13.1728C181.38 41.2709 161.693 69.3337 142.008 97.3949C133.573 109.418 125.139 121.441 116.709 133.466L116.988 133.661C109.767 143.962 102.546 154.262 95.3246 164.561C73.6717 195.444 52.0204 226.325 30.3936 257.23C21.8147 269.486 22.2603 270.836 34.4713 279.078C47.4746 287.848 60.6299 296.388 73.7853 304.927C94.1441 318.143 114.503 331.359 134.3 345.429C144.662 352.788 155.286 359.792 165.903 366.791L166.579 367.237C170.299 369.691 174.185 371.896 178.065 374.099C179.107 374.69 180.148 375.281 181.186 375.876C185.807 378.517 190.489 378.441 193.759 374.09C197.222 369.469 201.438 365.636 205.655 361.803C208.562 359.16 211.469 356.517 214.132 353.615C221.392 345.7 229.083 338.175 236.773 330.651C239.063 328.41 241.353 326.169 243.631 323.918C248.923 318.691 254.245 313.498 259.565 308.305C265.419 302.591 271.273 296.878 277.087 291.121C283.588 284.691 290.022 278.191 296.459 271.688C299.13 268.99 301.801 266.291 304.477 263.597C307.827 260.23 311.445 260.104 315.285 262.674C317.222 263.97 319.153 265.275 321.061 266.612C332.703 274.773 344.344 282.938 355.985 291.103C375.425 304.739 394.866 318.375 414.315 331.993C418.083 334.63 421.849 337.268 425.616 339.907C441.216 350.836 456.812 361.763 472.517 372.535C480.41 377.946 482.599 377.49 488.031 369.793ZM624.222 285.929C621.526 277.758 618.832 269.59 615.868 261.516C613.177 254.171 610.73 253.847 605.775 260.01C601.817 264.941 598.254 270.198 594.727 275.456C580.145 297.153 564.435 318.036 548.723 338.919C532.003 361.143 515.282 383.369 499.919 406.579C490.053 421.473 489.624 421.283 475.245 411.203C454.431 396.619 433.621 382.029 412.81 367.44C385.064 347.989 357.318 328.538 329.565 309.097C326.027 306.618 322.384 304.271 318.675 302.037C314.754 299.668 310.887 300.132 307.726 303.388C301.406 309.902 294.899 316.224 288.393 322.545C285.839 325.026 283.285 327.507 280.743 330C270.821 339.711 261.096 349.621 251.369 359.531C244.811 366.214 238.252 372.898 231.632 379.521C226.589 384.566 221.448 389.514 216.308 394.462C210.906 399.661 205.505 404.86 200.218 410.171C191.811 418.628 191.079 418.957 181.011 412.205C163.025 400.147 144.701 388.621 126.326 377.169C118.295 372.162 115.016 369.823 111.95 370.075C108.76 370.337 105.8 373.402 97.9621 379.183C78.7856 393.34 59.8962 407.88 41.0076 422.419C30.9277 430.178 20.8482 437.937 10.7253 445.637C-3.64305 456.57 -3.74404 456.976 11.4457 467.623C42.4186 489.361 73.4061 511.077 104.394 532.794C116.784 541.477 129.175 550.161 141.564 558.846L141.553 558.862C153.608 567.312 165.662 575.765 177.716 584.217C209.851 606.75 241.986 629.283 274.145 651.782C286.579 660.473 287.298 660.318 296.103 647.793C316.527 618.691 336.933 589.583 357.341 560.474C367.539 545.927 377.737 531.38 387.938 516.834C388.433 516.133 388.92 515.427 389.407 514.72C390.623 512.954 391.839 511.189 393.172 509.524C398.193 503.249 400.622 502.851 407.539 507.077C409.28 508.148 410.948 509.332 412.613 510.515C413.119 510.874 413.625 511.234 414.133 511.59C422.504 517.454 430.872 523.323 439.239 529.192C455.964 540.924 472.689 552.656 489.444 564.344C502.342 573.349 503.439 573.214 512.228 560.483C517.823 552.381 523.331 544.224 528.839 536.068C535.264 526.553 541.69 517.039 548.251 507.613C580.033 461.942 611.902 416.321 643.96 370.832C647.988 365.12 649.133 360.073 646.747 353.32C641.878 339.53 637.312 325.631 632.745 311.729C630.766 305.705 628.787 299.681 626.783 293.664C625.923 291.087 625.072 288.508 624.222 285.929Z" fill="#163A3A"/>
</svg>
