<svg width="1440" height="1081" viewBox="0 0 1440 1081" fill="none" xmlns="http://www.w3.org/2000/svg">
<path d="M-248.48 669.1C-184.165 531.923 -195.995 585.813 -195.733 429.648C-195.583 338.609 -198.128 247.606 -199.326 156.567C-199.476 144.134 -198.99 131.625 -198.129 119.192C-196.968 102.153 -187.684 92.0414 -170.838 88.2964C-114.946 75.9007 -59.1671 63.093 -3.27558 50.6598C65.9431 35.268 135.311 20.6253 204.38 4.55945C224.334 -0.121734 244.062 -1.84437 263.604 2.49977C323.463 15.8318 384.746 16.4682 445.242 24.3326C577.353 41.5594 709.95 54.9289 842.322 69.6091C930.184 79.3459 1018.16 88.9329 1105.91 99.2315C1167.6 106.459 1230.08 107.77 1291.21 121.327C1318.95 127.506 1348.08 128.143 1376.68 129.528C1437.7 132.412 1497.26 148.627 1558.58 148.553C1576.14 148.515 1593.06 153.121 1610.24 156.342C1631.21 160.312 1639.52 171.921 1639.33 192.556C1638.92 247.419 1639.18 302.282 1639.18 357.183L1639.89 357.183C1639.89 404.557 1640.34 451.968 1639.7 499.342C1639.33 526.305 1645.36 550.572 1659.47 573.941C1678.79 605.923 1695.89 639.215 1713.79 672.059C1717.35 678.575 1722.4 685.278 1723 692.244C1727.6 744.486 1725.99 796.84 1724.2 849.157C1723.78 860.691 1716.07 866.946 1705.33 869.305C1698.03 870.878 1690.62 872.338 1683.17 872.863C1616.08 877.843 1549.86 889.977 1482.59 894.471C1434.41 897.729 1386.49 907.99 1338.01 910.836C1272.05 914.656 1207.28 928.4 1141.17 931.583C1094.04 933.83 1047.32 944.204 1000.19 947.462C933.067 952.143 867.105 965.887 799.721 968.883C753.824 970.905 708.265 980.68 662.332 984.162C592.851 989.443 524.269 1002.7 454.526 1006.22C413.571 1008.28 372.879 1015.69 331.999 1020.23C237.998 1030.56 143.809 1039.44 49.9955 1051.2C-19.1483 1059.89 -88.9285 1062.81 -157.735 1075.09C-183.341 1079.7 -209.883 1078.91 -236.014 1080.86C-254.694 1082.24 -264.015 1073.55 -264.951 1055.17C-265.213 1050.19 -265.85 1045.21 -265.887 1040.22C-265.887 937.987 -265.775 835.713 -265.999 733.438C-266.074 710.22 -258.026 689.548 -248.48 669.1Z" fill="#FFDA1D"/>
</svg>
