<svg width="95" height="80" viewBox="0 0 95 80" fill="none" xmlns="http://www.w3.org/2000/svg">
<path d="M7.17957 60.6778C7.28715 61.7544 7.31405 62.7234 7.26026 63.5847C7.20647 64.446 7.12578 65.2535 7.0182 66.0071C7.0182 66.3301 6.93751 66.5723 6.77614 66.7338C6.23823 66.8415 5.61963 66.9492 4.92035 67.0568C4.22107 67.1106 3.57558 67.1106 2.98388 67.0568C2.49976 67.003 2.01564 67.0299 1.53152 67.1376C1.0474 67.1914 0.697762 67.2183 0.482598 67.2183C0.482598 66.8953 0.455703 66.5993 0.401912 66.3301C0.348121 66.0609 0.348121 65.6841 0.401912 65.1996C0.455703 64.769 0.455703 64.3114 0.401912 63.8269C0.401912 63.3424 0.401912 62.8849 0.401912 62.4542V58.4976C0.348121 57.2595 0.321225 55.9944 0.321225 54.7025C0.321225 53.4105 0.294329 52.5492 0.240539 52.1186C0.186748 51.6341 0.186748 51.1496 0.240539 50.6651C0.348121 50.1806 0.401912 49.6962 0.401912 49.2117C0.348121 48.458 0.321225 47.7044 0.321225 46.9507C0.375016 46.1433 0.401912 45.3627 0.401912 44.6091C0.401912 43.9631 0.375016 43.1287 0.321225 42.1059C0.267434 41.0293 0.29433 40.168 0.401912 39.522C0.832239 39.4143 1.37015 39.3605 2.01564 39.3605C2.66113 39.3605 3.36041 39.3336 4.11349 39.2798C4.70519 39.2259 5.29689 39.199 5.88859 39.199C6.48029 39.199 6.91062 39.199 7.17957 39.199C7.28715 39.199 7.31405 39.3605 7.26026 39.6835C7.26026 39.9526 7.26026 40.1411 7.26026 40.2487C7.20647 41.5945 7.20647 42.7788 7.26026 43.8016C7.31405 44.7706 7.28715 45.7934 7.17957 46.87C7.23336 47.9466 7.23336 48.8887 7.17957 49.6962C7.17957 50.4498 7.12578 51.3649 7.0182 52.4416C7.0182 52.6031 7.0182 53.0337 7.0182 53.7335C7.0182 54.4333 7.04509 55.2408 7.09888 56.1559C7.15268 57.0172 7.17957 57.8785 7.17957 58.7398C7.17957 59.5473 7.17957 60.1933 7.17957 60.6778ZM0.321225 34.0312C0.267434 33.762 0.240539 33.3583 0.240539 32.82C0.294329 32.2817 0.321225 31.7164 0.321225 31.1243C0.321225 30.8551 0.294329 30.6129 0.240539 30.3976C0.240539 30.1822 0.240539 29.9669 0.240539 29.7516C0.240539 29.6439 0.240539 29.5632 0.240539 29.5093C0.294329 29.4555 0.321225 29.3748 0.321225 29.2671H6.13065C6.3996 29.2671 6.56098 29.294 6.61477 29.3478C6.66856 29.3478 6.69545 29.4824 6.69545 29.7516V35.0001C6.37271 35.054 5.86169 35.0809 5.16241 35.0809C4.51692 35.0809 3.84453 35.0809 3.14525 35.0809C2.44597 35.0809 1.80048 35.0809 1.20878 35.0809C0.670866 35.0271 0.401912 34.9463 0.401912 34.8387C0.348121 34.6772 0.321225 34.408 0.321225 34.0312Z" fill="white"/>
<path d="M13.9938 40.168C13.9938 40.0065 13.9669 39.845 13.9131 39.6835C13.8593 39.522 13.8593 39.3605 13.9131 39.199C13.9669 39.199 14.0476 39.199 14.1552 39.199C14.3165 39.1452 14.451 39.1183 14.5586 39.1183H15.0427C15.3117 39.0644 15.5806 39.0644 15.8496 39.1183C16.1185 39.1183 16.3875 39.0913 16.6564 39.0375H19.077C19.1846 39.0375 19.2922 39.0913 19.3998 39.199C19.5074 39.3067 19.5881 39.3874 19.6418 39.4412L19.8032 40.168C19.8032 40.3295 19.8301 40.5179 19.8839 40.7332C19.9915 41.1639 20.0453 41.6214 20.0453 42.1059C20.0991 42.2674 20.126 42.4289 20.126 42.5904C20.126 42.9134 20.1529 43.0749 20.2066 43.0749C20.4218 42.8596 20.5832 42.6442 20.6908 42.4289C20.7983 42.1597 20.9328 41.9713 21.0942 41.8637C21.2556 41.7022 21.3632 41.5945 21.4169 41.5407C21.5245 41.4868 21.6052 41.433 21.659 41.3792C21.7666 41.3254 21.9011 41.2715 22.0624 41.2177C22.2238 41.11 22.4659 40.9485 22.7886 40.7332C23.2727 40.464 23.7031 40.2487 24.0796 40.0872C24.5099 39.9257 25.1554 39.6297 26.0161 39.199C26.1774 39.1452 26.4464 39.0644 26.8229 38.9568C27.2533 38.8491 27.7105 38.7684 28.1946 38.7145C28.6787 38.6069 29.1628 38.553 29.647 38.553C30.1849 38.4992 30.6421 38.4723 31.0186 38.4723C31.6103 38.5261 32.0944 38.6069 32.471 38.7145C32.8475 38.7684 33.3585 38.8491 34.004 38.9568C34.273 39.0106 34.7033 39.0644 35.295 39.1183C35.9405 39.1721 36.3708 39.2528 36.586 39.3605C37.9308 40.1141 39.0066 40.7601 39.8134 41.2984C40.6203 41.8368 41.3196 42.5635 41.9113 43.4786C42.0189 43.5863 42.1802 43.7209 42.3954 43.8823C42.6106 43.99 42.8526 44.1784 43.1216 44.4476C43.3905 44.7167 43.6326 45.0936 43.8478 45.578C44.1167 46.0087 44.2512 46.2779 44.2512 46.3855C44.4664 47.3006 44.7084 48.0543 44.9774 48.6464C45.2463 49.1848 45.4077 49.9115 45.4615 50.8266C45.5153 51.2573 45.6498 51.7418 45.8649 52.2801C46.0801 52.7645 46.1877 53.2759 46.1877 53.8143C46.1877 54.3526 46.2146 54.9716 46.2684 55.6715C46.3222 56.3174 46.2953 57.2595 46.1877 58.4976C46.1877 58.8744 46.1877 59.2243 46.1877 59.5473C46.2415 59.8703 46.2684 60.1933 46.2684 60.5163V64.2307C46.2684 64.6075 46.2684 64.9574 46.2684 65.2804C46.2684 65.6034 46.2415 65.9264 46.1877 66.2493C46.1877 66.68 46.1877 67.0568 46.1877 67.3798C46.2415 67.7028 46.2684 68.0796 46.2684 68.5103C46.2684 68.6179 46.2684 68.7256 46.2684 68.8333C46.2684 68.9948 46.2146 69.1024 46.107 69.1562C45.9994 69.2101 45.838 69.237 45.6229 69.237C45.4615 69.237 45.327 69.237 45.2194 69.237C44.7353 69.237 44.2781 69.237 43.8478 69.237C43.4174 69.2908 42.9602 69.2908 42.4761 69.237L40.0555 68.9948C39.8403 68.9409 39.5445 68.9409 39.168 68.9948C38.7914 69.0486 38.5494 68.9678 38.4418 68.7525C38.388 67.5144 38.3611 66.6531 38.3611 66.1686C38.4149 65.6303 38.4418 65.1458 38.4418 64.7151C38.4418 64.446 38.4149 64.123 38.3611 63.7462C38.3073 63.3155 38.2535 62.7503 38.1997 62.0505L38.4418 57.7709C38.4418 57.2326 38.4149 56.8288 38.3611 56.5597C38.3611 56.2367 38.3342 55.9944 38.2804 55.8329C38.2804 55.6176 38.2535 55.3754 38.1997 55.1062C38.1997 54.8371 38.1997 54.4064 38.1997 53.8143C38.1997 52.8453 38.0115 51.8763 37.6349 50.9074C37.3122 49.9384 36.9087 48.9694 36.4246 48.0005C36.1557 47.4621 35.806 46.9777 35.3757 46.547C34.9454 46.1164 34.3806 45.7395 33.6813 45.4165C33.5737 45.3627 33.4392 45.3089 33.2778 45.2551C33.1165 45.2012 32.982 45.1743 32.8744 45.1743L31.0186 45.0128C30.1042 44.959 29.1628 45.1205 28.1946 45.4973C27.2264 45.8741 26.6347 46.2509 26.4195 46.6278C26.043 47.2737 25.7471 47.7582 25.5319 48.0812C25.3168 48.4042 25.1016 48.7272 24.8865 49.0502C24.8327 49.2117 24.752 49.5077 24.6444 49.9384C24.5368 50.3152 24.4023 50.7997 24.241 51.3918C24.1334 51.9302 24.0258 52.5223 23.9182 53.1683C23.8106 53.7604 23.7568 54.2987 23.7568 54.7832C23.7568 55.1601 23.7568 55.5369 23.7568 55.9137C23.7568 56.2367 23.73 56.5597 23.6762 56.8827L23.5148 59.1436L23.0307 62.212C23.0307 62.7503 23.0307 63.3424 23.0307 63.9884C23.0307 64.5806 23.0038 65.1458 22.95 65.6841V67.5413C22.6272 67.7566 22.3583 67.8643 22.1431 67.8643C21.5514 67.972 21.1211 68.0796 20.8521 68.1873C20.637 68.2949 20.2066 68.3219 19.5612 68.268C18.9695 68.2142 18.1895 68.2142 17.2213 68.268C16.253 68.3757 15.473 68.3757 14.8813 68.268C14.2896 68.1604 13.9938 68.0796 13.9938 68.0258C13.9938 68.0258 13.9938 67.8912 13.9938 67.6221C13.9938 67.4067 13.9938 67.0837 13.9938 66.6531C14.0476 66.1686 14.0745 65.6841 14.0745 65.1996C14.0745 64.6613 14.0745 64.1499 14.0745 63.6654C14.1283 63.1809 14.1552 62.8041 14.1552 62.535C14.1552 61.566 14.1283 60.7585 14.0745 60.1126C14.0207 59.4666 13.9938 58.6591 13.9938 57.6901C13.9938 56.8827 13.9669 56.2367 13.9131 55.7522C13.9131 55.2139 13.8862 54.541 13.8324 53.7335C13.8324 53.3029 13.8593 52.7645 13.9131 52.1186C13.9669 51.4188 13.9938 50.692 13.9938 49.9384C13.9938 49.0233 13.9669 48.135 13.9131 47.2737C13.9131 46.4124 13.9131 45.7664 13.9131 45.3358C13.8593 44.4207 13.8324 43.5594 13.8324 42.7519C13.8324 41.8906 13.8862 41.0293 13.9938 40.168Z" fill="#051A1A"/>
<path d="M72.0666 39.4334L74.6088 36.8893L78.5376 33.0731C78.9998 32.5335 79.462 32.1095 79.9242 31.8011C80.3865 31.4927 81.1568 31.4156 82.2353 31.5698C83.0057 31.5698 83.853 31.6469 84.7775 31.8011C85.7019 31.9553 86.7419 32.0324 87.8974 32.0324C88.0515 32.0324 88.5137 32.0709 89.284 32.148C90.1314 32.148 90.5551 32.1866 90.5551 32.2637C90.5551 32.6491 90.4396 32.9575 90.2085 33.1888L85.2397 38.5082C85.0856 38.6624 84.7004 39.0479 84.0842 39.6646C83.4679 40.2043 82.8131 40.821 82.1198 41.5149C81.4264 42.1316 80.7716 42.7484 80.1553 43.3651C79.5391 43.9048 79.1539 44.2903 78.9998 44.5215C78.3835 45.2154 77.6902 45.8707 76.9199 46.4874C76.2265 47.1042 75.5717 47.7209 74.9555 48.3377C74.2621 49.0315 73.6073 49.6868 72.9911 50.3036C72.3748 50.9203 71.6429 51.5371 70.7955 52.1538L68.8311 53.1946C68.9852 53.5029 69.4474 54.0811 70.2178 54.9292C71.0652 55.7772 71.9511 56.6252 72.8755 57.4733C73.7229 58.3213 74.5318 59.0537 75.3021 59.6704C76.0725 60.2101 76.5347 60.5955 76.6888 60.8268L80.8487 65.1055L84.893 68.9217C85.2782 69.4613 85.856 70.2322 86.6263 71.2345C87.4737 72.2367 88.4367 73.2774 89.5152 74.3567C89.9003 74.7422 90.2855 75.1277 90.6707 75.5132C91.1329 75.8986 91.5566 76.2841 91.9418 76.6696C92.5581 77.2863 93.0973 77.8645 93.5595 78.4042C94.0217 78.9438 94.3684 79.4064 94.5995 79.7918C94.5995 80.0231 94.0602 80.0617 92.9818 79.9075C92.3655 79.7533 91.7877 79.6377 91.2485 79.5606C90.7862 79.5606 90.247 79.522 89.6307 79.4449C88.8604 79.3678 88.09 79.3293 87.3196 79.3293C86.5493 79.4064 85.7789 79.3678 85.0086 79.2136C84.3923 79.0595 83.8145 79.0209 83.2753 79.098C82.736 79.1751 82.1968 79.2136 81.6575 79.2136C81.1953 79.2136 80.8102 79.098 80.502 78.8667C80.2709 78.7125 80.1168 78.5583 80.0398 78.4042C79.5776 77.8645 79.1154 77.3249 78.6532 76.7852C78.268 76.3226 77.8443 75.8601 77.3821 75.3975C76.9199 74.8579 76.3806 74.2026 75.7643 73.4316C75.2251 72.6607 74.7243 72.0439 74.2621 71.5814C73.2607 70.5021 72.3363 69.654 71.4889 69.0373C70.6415 68.3435 69.7556 67.534 68.8311 66.6088C68.1378 65.4524 67.2519 64.4502 66.1734 63.6022C65.172 62.7542 64.132 61.7519 63.0535 60.5955C63.1305 60.981 63.1305 61.405 63.0535 61.8676C63.0535 62.2531 63.0535 62.6385 63.0535 63.024C63.0535 63.3324 63.0535 63.872 63.0535 64.643C63.1305 65.4139 63.169 66.2619 63.169 67.187C63.2461 68.0351 63.2846 68.8831 63.2846 69.7311C63.3616 70.5021 63.3616 71.0417 63.2846 71.3501C63.2846 72.0439 63.2461 72.8534 63.169 73.7785C63.169 74.7808 63.1305 75.359 63.0535 75.5132C62.8994 75.6673 62.5527 75.7059 62.0135 75.6288C61.5513 75.5517 61.1276 75.5132 60.7424 75.5132C59.741 75.5132 58.701 75.5132 57.6225 75.5132C56.621 75.5132 55.6966 75.6288 54.8492 75.8601C54.464 76.0143 54.0788 76.0528 53.6937 75.9757C53.3085 75.9757 52.9233 75.9757 52.5381 75.9757C52.5381 75.6673 52.4996 74.9735 52.4226 73.8942C52.4226 72.8149 52.3841 71.697 52.307 70.5406C52.307 69.3071 52.307 68.1893 52.307 67.187C52.307 66.1077 52.3455 65.4139 52.4226 65.1055L52.0759 56.8951C52.0759 56.2783 51.9604 55.6616 51.7293 55.0448C51.5752 54.351 51.5367 53.6957 51.6137 53.0789C51.6137 51.9996 51.6522 50.9203 51.7293 49.841C51.8833 48.7617 51.9219 47.6824 51.8448 46.6031C51.7678 45.5238 51.7678 44.4444 51.8448 43.3651C51.9219 42.2087 51.9989 41.0909 52.0759 40.0116V35.5016C52.0759 34.3452 52.0374 33.2273 51.9604 32.148C51.9604 31.0687 51.9219 29.9508 51.8448 28.7944C51.6907 27.4068 51.6907 26.0191 51.8448 24.6314C51.9989 23.1666 52.1144 21.7018 52.1915 20.2371L52.4226 16.4209V8.21046C52.4226 7.59371 52.3841 6.93842 52.307 6.24457C52.23 5.47364 52.23 4.7027 52.307 3.93177V1.85024C52.307 1.46477 52.4611 1.11785 52.7692 0.809478C53.0774 0.424011 53.3855 0.231278 53.6937 0.231278C54.8492 0.231278 55.8121 0.231278 56.5825 0.231278C57.3529 0.154186 58.2773 0.115638 59.3558 0.115638C59.818 0.115638 60.2032 0.0770926 60.5113 0C60.7424 0.46256 60.858 0.92512 60.858 1.38768C60.7809 2.69827 60.7809 4.12451 60.858 5.66637C61.012 7.20824 61.0891 8.63447 61.0891 9.94507L61.3202 13.183V16.074C61.3202 16.5366 61.2817 17.2304 61.2046 18.1555C61.2046 19.0036 61.2046 19.9287 61.2046 20.9309C61.2046 21.9331 61.2046 22.8968 61.2046 23.8219C61.2046 24.6699 61.2431 25.2867 61.3202 25.6722C61.3202 26.6744 61.3202 27.6766 61.3202 28.6788C61.3972 29.6039 61.4743 30.5676 61.5513 31.5698C61.5513 31.9553 61.5513 32.572 61.5513 33.4201C61.6283 34.2681 61.6668 35.1932 61.6668 36.1954C61.6668 37.1206 61.6668 38.0071 61.6668 38.8552C61.6668 39.7032 61.6668 40.3199 61.6668 40.7054L62.2446 45.6779V47.1813C63.3231 46.4103 64.2475 45.7165 65.0179 45.0997C65.7882 44.4059 66.5971 43.7506 67.4445 43.1339L72.0666 39.4334Z" fill="#051A1A"/>
</svg>
