<svg width="95" height="80" viewBox="0 0 95 80" fill="none" xmlns="http://www.w3.org/2000/svg">
<path d="M7.17933 60.6778C7.28691 61.7544 7.31381 62.7234 7.26001 63.5847C7.20622 64.446 7.12554 65.2535 7.01795 66.0071C7.01795 66.3301 6.93727 66.5723 6.77589 66.7338C6.23799 66.8415 5.61939 66.9492 4.92011 67.0568C4.22082 67.1106 3.57533 67.1106 2.98363 67.0568C2.49951 67.003 2.0154 67.0299 1.53128 67.1376C1.04716 67.1914 0.697518 67.2183 0.482354 67.2183C0.482354 66.8953 0.455458 66.5993 0.401668 66.3301C0.347876 66.0609 0.347876 65.6841 0.401668 65.1996C0.455458 64.769 0.455458 64.3114 0.401668 63.8269C0.401668 63.3424 0.401668 62.8849 0.401668 62.4542V58.4976C0.347876 57.2595 0.320981 55.9944 0.320981 54.7025C0.320981 53.4105 0.294085 52.5492 0.240294 52.1186C0.186503 51.6341 0.186503 51.1496 0.240294 50.6651C0.347876 50.1806 0.401668 49.6962 0.401668 49.2117C0.347876 48.458 0.320981 47.7044 0.320981 46.9507C0.374772 46.1433 0.401668 45.3627 0.401668 44.6091C0.401668 43.9631 0.374772 43.1287 0.320981 42.1059C0.26719 41.0293 0.294086 40.168 0.401668 39.522C0.831995 39.4143 1.3699 39.3605 2.0154 39.3605C2.66089 39.3605 3.36017 39.3336 4.11324 39.2798C4.70494 39.2259 5.29664 39.199 5.88834 39.199C6.48004 39.199 6.91037 39.199 7.17933 39.199C7.28691 39.199 7.31381 39.3605 7.26001 39.6835C7.26001 39.9526 7.26001 40.1411 7.26001 40.2487C7.20622 41.5945 7.20622 42.7788 7.26001 43.8016C7.31381 44.7706 7.28691 45.7934 7.17933 46.87C7.23312 47.9466 7.23312 48.8887 7.17933 49.6962C7.17933 50.4498 7.12554 51.3649 7.01795 52.4416C7.01795 52.6031 7.01795 53.0337 7.01795 53.7335C7.01795 54.4333 7.04485 55.2408 7.09864 56.1559C7.15243 57.0172 7.17933 57.8785 7.17933 58.7398C7.17933 59.5473 7.17933 60.1933 7.17933 60.6778ZM0.320981 34.0312C0.26719 33.762 0.240294 33.3583 0.240294 32.82C0.294085 32.2817 0.320981 31.7164 0.320981 31.1243C0.320981 30.8551 0.294085 30.6129 0.240294 30.3976C0.240294 30.1822 0.240294 29.9669 0.240294 29.7516C0.240294 29.6439 0.240294 29.5632 0.240294 29.5093C0.294085 29.4555 0.320981 29.3748 0.320981 29.2671H6.1304C6.39936 29.2671 6.56073 29.294 6.61452 29.3478C6.66831 29.3478 6.69521 29.4824 6.69521 29.7516V35.0001C6.37246 35.054 5.86145 35.0809 5.16217 35.0809C4.51667 35.0809 3.84429 35.0809 3.14501 35.0809C2.44572 35.0809 1.80023 35.0809 1.20853 35.0809C0.670622 35.0271 0.401668 34.9463 0.401668 34.8387C0.347876 34.6772 0.320981 34.408 0.320981 34.0312Z" fill="#051A1A"/>
<path d="M13.9935 40.168C13.9935 40.0065 13.9667 39.845 13.9129 39.6835C13.8591 39.522 13.8591 39.3605 13.9129 39.199C13.9667 39.199 14.0473 39.199 14.1549 39.199C14.3163 39.1452 14.4508 39.1183 14.5584 39.1183H15.0425C15.3114 39.0644 15.5804 39.0644 15.8493 39.1183C16.1183 39.1183 16.3872 39.0913 16.6562 39.0375H19.0768C19.1844 39.0375 19.292 39.0913 19.3995 39.199C19.5071 39.3067 19.5878 39.3874 19.6416 39.4412L19.803 40.168C19.803 40.3295 19.8299 40.5179 19.8837 40.7332C19.9912 41.1639 20.045 41.6214 20.045 42.1059C20.0988 42.2674 20.1257 42.4289 20.1257 42.5904C20.1257 42.9134 20.1526 43.0749 20.2064 43.0749C20.4216 42.8596 20.5829 42.6442 20.6905 42.4289C20.7981 42.1597 20.9326 41.9713 21.094 41.8637C21.2553 41.7022 21.3629 41.5945 21.4167 41.5407C21.5243 41.4868 21.605 41.433 21.6588 41.3792C21.7663 41.3254 21.9008 41.2715 22.0622 41.2177C22.2236 41.11 22.4656 40.9485 22.7884 40.7332C23.2725 40.464 23.7028 40.2487 24.0793 40.0872C24.5097 39.9257 25.1552 39.6297 26.0158 39.199C26.1772 39.1452 26.4462 39.0644 26.8227 38.9568C27.253 38.8491 27.7102 38.7684 28.1944 38.7145C28.6785 38.6069 29.1626 38.553 29.6467 38.553C30.1846 38.4992 30.6418 38.4723 31.0184 38.4723C31.6101 38.5261 32.0942 38.6069 32.4707 38.7145C32.8473 38.7684 33.3583 38.8491 34.0038 38.9568C34.2727 39.0106 34.7031 39.0644 35.2948 39.1183C35.9403 39.1721 36.3706 39.2528 36.5857 39.3605C37.9305 40.1141 39.0063 40.7601 39.8132 41.2984C40.6201 41.8368 41.3193 42.5635 41.911 43.4786C42.0186 43.5863 42.18 43.7209 42.3952 43.8823C42.6103 43.99 42.8524 44.1784 43.1213 44.4476C43.3903 44.7167 43.6324 45.0936 43.8475 45.578C44.1165 46.0087 44.251 46.2779 44.251 46.3855C44.4661 47.3006 44.7082 48.0543 44.9771 48.6464C45.2461 49.1848 45.4075 49.9115 45.4613 50.8266C45.515 51.2573 45.6495 51.7418 45.8647 52.2801C46.0798 52.7645 46.1874 53.2759 46.1874 53.8143C46.1874 54.3526 46.2143 54.9716 46.2681 55.6715C46.3219 56.3174 46.295 57.2595 46.1874 58.4976C46.1874 58.8744 46.1874 59.2243 46.1874 59.5473C46.2412 59.8703 46.2681 60.1933 46.2681 60.5163V64.2307C46.2681 64.6075 46.2681 64.9574 46.2681 65.2804C46.2681 65.6034 46.2412 65.9264 46.1874 66.2493C46.1874 66.68 46.1874 67.0568 46.1874 67.3798C46.2412 67.7028 46.2681 68.0796 46.2681 68.5103C46.2681 68.6179 46.2681 68.7256 46.2681 68.8333C46.2681 68.9948 46.2143 69.1024 46.1067 69.1562C45.9992 69.2101 45.8378 69.237 45.6226 69.237C45.4613 69.237 45.3268 69.237 45.2192 69.237C44.7351 69.237 44.2779 69.237 43.8475 69.237C43.4172 69.2908 42.96 69.2908 42.4759 69.237L40.0553 68.9948C39.8401 68.9409 39.5443 68.9409 39.1677 68.9948C38.7912 69.0486 38.5491 68.9678 38.4415 68.7525C38.3877 67.5144 38.3608 66.6531 38.3608 66.1686C38.4146 65.6303 38.4415 65.1458 38.4415 64.7151C38.4415 64.446 38.4146 64.123 38.3608 63.7462C38.3071 63.3155 38.2533 62.7503 38.1995 62.0505L38.4415 57.7709C38.4415 57.2326 38.4146 56.8288 38.3608 56.5597C38.3608 56.2367 38.334 55.9944 38.2802 55.8329C38.2802 55.6176 38.2533 55.3754 38.1995 55.1062C38.1995 54.8371 38.1995 54.4064 38.1995 53.8143C38.1995 52.8453 38.0112 51.8763 37.6347 50.9074C37.3119 49.9384 36.9085 48.9694 36.4244 48.0005C36.1554 47.4621 35.8058 46.9777 35.3755 46.547C34.9451 46.1164 34.3803 45.7395 33.681 45.4165C33.5735 45.3627 33.439 45.3089 33.2776 45.2551C33.1162 45.2012 32.9818 45.1743 32.8742 45.1743L31.0184 45.0128C30.1039 44.959 29.1626 45.1205 28.1944 45.4973C27.2261 45.8741 26.6344 46.2509 26.4193 46.6278C26.0427 47.2737 25.7469 47.7582 25.5317 48.0812C25.3165 48.4042 25.1014 48.7272 24.8862 49.0502C24.8324 49.2117 24.7517 49.5077 24.6442 49.9384C24.5366 50.3152 24.4021 50.7997 24.2407 51.3918C24.1331 51.9302 24.0256 52.5223 23.918 53.1683C23.8104 53.7604 23.7566 54.2987 23.7566 54.7832C23.7566 55.1601 23.7566 55.5369 23.7566 55.9137C23.7566 56.2367 23.7297 56.5597 23.6759 56.8827L23.5145 59.1436L23.0304 62.212C23.0304 62.7503 23.0304 63.3424 23.0304 63.9884C23.0304 64.5806 23.0035 65.1458 22.9497 65.6841V67.5413C22.627 67.7566 22.358 67.8643 22.1429 67.8643C21.5512 67.972 21.1208 68.0796 20.8519 68.1873C20.6367 68.2949 20.2064 68.3219 19.5609 68.268C18.9692 68.2142 18.1892 68.2142 17.221 68.268C16.2528 68.3757 15.4728 68.3757 14.8811 68.268C14.2894 68.1604 13.9935 68.0796 13.9935 68.0258C13.9935 68.0258 13.9935 67.8912 13.9935 67.6221C13.9935 67.4067 13.9935 67.0837 13.9935 66.6531C14.0473 66.1686 14.0742 65.6841 14.0742 65.1996C14.0742 64.6613 14.0742 64.1499 14.0742 63.6654C14.128 63.1809 14.1549 62.8041 14.1549 62.535C14.1549 61.566 14.128 60.7585 14.0742 60.1126C14.0204 59.4666 13.9935 58.6591 13.9935 57.6901C13.9935 56.8827 13.9667 56.2367 13.9129 55.7522C13.9129 55.2139 13.886 54.541 13.8322 53.7335C13.8322 53.3029 13.8591 52.7645 13.9129 52.1186C13.9667 51.4188 13.9935 50.692 13.9935 49.9384C13.9935 49.0233 13.9667 48.135 13.9129 47.2737C13.9129 46.4124 13.9129 45.7664 13.9129 45.3358C13.8591 44.4207 13.8322 43.5594 13.8322 42.7519C13.8322 41.8906 13.886 41.0293 13.9935 40.168Z" fill="#051A1A"/>
<path d="M72.0664 39.4334L74.6086 36.8893L78.5374 33.0731C78.9996 32.5335 79.4618 32.1095 79.924 31.8011C80.3862 31.4927 81.1566 31.4156 82.2351 31.5698C83.0054 31.5698 83.8528 31.6469 84.7772 31.8011C85.7017 31.9553 86.7416 32.0324 87.8972 32.0324C88.0512 32.0324 88.5135 32.0709 89.2838 32.148C90.1312 32.148 90.5549 32.1866 90.5549 32.2637C90.5549 32.6491 90.4393 32.9575 90.2082 33.1888L85.2394 38.5082C85.0854 38.6624 84.7002 39.0479 84.0839 39.6646C83.4676 40.2043 82.8128 40.821 82.1195 41.5149C81.4262 42.1316 80.7714 42.7484 80.1551 43.3651C79.5388 43.9048 79.1536 44.2903 78.9996 44.5215C78.3833 45.2154 77.69 45.8707 76.9196 46.4874C76.2263 47.1042 75.5715 47.7209 74.9552 48.3377C74.2619 49.0315 73.6071 49.6868 72.9908 50.3036C72.3745 50.9203 71.6427 51.5371 70.7953 52.1538L68.8309 53.1946C68.985 53.5029 69.4472 54.0811 70.2175 54.9292C71.0649 55.7772 71.9508 56.6252 72.8753 57.4733C73.7226 58.3213 74.5315 59.0537 75.3019 59.6704C76.0722 60.2101 76.5344 60.5955 76.6885 60.8268L80.8484 65.1055L84.8928 68.9217C85.278 69.4613 85.8557 70.2322 86.6261 71.2345C87.4735 72.2367 88.4364 73.2774 89.5149 74.3567C89.9001 74.7422 90.2853 75.1277 90.6704 75.5132C91.1327 75.8986 91.5564 76.2841 91.9415 76.6696C92.5578 77.2863 93.0971 77.8645 93.5593 78.4042C94.0215 78.9438 94.3681 79.4064 94.5993 79.7918C94.5993 80.0231 94.06 80.0617 92.9815 79.9075C92.3652 79.7533 91.7875 79.6377 91.2482 79.5606C90.786 79.5606 90.2467 79.522 89.6305 79.4449C88.8601 79.3678 88.0898 79.3293 87.3194 79.3293C86.549 79.4064 85.7787 79.3678 85.0083 79.2136C84.3921 79.0595 83.8143 79.0209 83.275 79.098C82.7358 79.1751 82.1965 79.2136 81.6573 79.2136C81.1951 79.2136 80.8099 79.098 80.5018 78.8667C80.2707 78.7125 80.1166 78.5583 80.0396 78.4042C79.5773 77.8645 79.1151 77.3249 78.6529 76.7852C78.2677 76.3226 77.844 75.8601 77.3818 75.3975C76.9196 74.8579 76.3804 74.2026 75.7641 73.4316C75.2248 72.6607 74.7241 72.0439 74.2619 71.5814C73.2604 70.5021 72.336 69.654 71.4886 69.0373C70.6412 68.3435 69.7553 67.534 68.8309 66.6088C68.1376 65.4524 67.2517 64.4502 66.1732 63.6022C65.1717 62.7542 64.1317 61.7519 63.0532 60.5955C63.1303 60.981 63.1303 61.405 63.0532 61.8676C63.0532 62.2531 63.0532 62.6385 63.0532 63.024C63.0532 63.3324 63.0532 63.872 63.0532 64.643C63.1303 65.4139 63.1688 66.2619 63.1688 67.187C63.2458 68.0351 63.2843 68.8831 63.2843 69.7311C63.3614 70.5021 63.3614 71.0417 63.2843 71.3501C63.2843 72.0439 63.2458 72.8534 63.1688 73.7785C63.1688 74.7808 63.1303 75.359 63.0532 75.5132C62.8992 75.6673 62.5525 75.7059 62.0133 75.6288C61.551 75.5517 61.1273 75.5132 60.7422 75.5132C59.7407 75.5132 58.7007 75.5132 57.6222 75.5132C56.6208 75.5132 55.6963 75.6288 54.849 75.8601C54.4638 76.0143 54.0786 76.0528 53.6934 75.9757C53.3082 75.9757 52.9231 75.9757 52.5379 75.9757C52.5379 75.6673 52.4994 74.9735 52.4223 73.8942C52.4223 72.8149 52.3838 71.697 52.3068 70.5406C52.3068 69.3071 52.3068 68.1893 52.3068 67.187C52.3068 66.1077 52.3453 65.4139 52.4223 65.1055L52.0757 56.8951C52.0757 56.2783 51.9601 55.6616 51.729 55.0448C51.575 54.351 51.5364 53.6957 51.6135 53.0789C51.6135 51.9996 51.652 50.9203 51.729 49.841C51.8831 48.7617 51.9216 47.6824 51.8446 46.6031C51.7675 45.5238 51.7675 44.4444 51.8446 43.3651C51.9216 42.2087 51.9986 41.0909 52.0757 40.0116V35.5016C52.0757 34.3452 52.0372 33.2273 51.9601 32.148C51.9601 31.0687 51.9216 29.9508 51.8446 28.7944C51.6905 27.4068 51.6905 26.0191 51.8446 24.6314C51.9986 23.1666 52.1142 21.7018 52.1912 20.2371L52.4223 16.4209V8.21046C52.4223 7.59371 52.3838 6.93842 52.3068 6.24457C52.2298 5.47364 52.2298 4.7027 52.3068 3.93177V1.85024C52.3068 1.46477 52.4609 1.11785 52.769 0.809478C53.0771 0.424011 53.3853 0.231278 53.6934 0.231278C54.849 0.231278 55.8119 0.231278 56.5823 0.231278C57.3526 0.154186 58.277 0.115638 59.3555 0.115638C59.8177 0.115638 60.2029 0.0770926 60.5111 0C60.7422 0.46256 60.8577 0.92512 60.8577 1.38768C60.7807 2.69827 60.7807 4.12451 60.8577 5.66637C61.0118 7.20824 61.0888 8.63447 61.0888 9.94507L61.3199 13.183V16.074C61.3199 16.5366 61.2814 17.2304 61.2044 18.1555C61.2044 19.0036 61.2044 19.9287 61.2044 20.9309C61.2044 21.9331 61.2044 22.8968 61.2044 23.8219C61.2044 24.6699 61.2429 25.2867 61.3199 25.6722C61.3199 26.6744 61.3199 27.6766 61.3199 28.6788C61.397 29.6039 61.474 30.5676 61.551 31.5698C61.551 31.9553 61.551 32.572 61.551 33.4201C61.6281 34.2681 61.6666 35.1932 61.6666 36.1954C61.6666 37.1206 61.6666 38.0071 61.6666 38.8552C61.6666 39.7032 61.6666 40.3199 61.6666 40.7054L62.2444 45.6779V47.1813C63.3229 46.4103 64.2473 45.7165 65.0176 45.0997C65.788 44.4059 66.5969 43.7506 67.4443 43.1339L72.0664 39.4334Z" fill="#051A1A"/>
</svg>
