<svg width="1440" height="1341" viewBox="0 0 1440 1341" fill="none" xmlns="http://www.w3.org/2000/svg">
<path d="M-340.992 414.663C-341.271 448.123 -334.078 478.891 -320.018 508.545C-309.438 530.867 -299.183 553.375 -287.814 575.232C-263.917 621.222 -252.78 668.186 -254.45 721.601C-258.905 865.185 -257.513 1008.96 -258.117 1152.63C-258.163 1167.99 -257.28 1183.59 -254.728 1198.71C-251.944 1215.1 -242.06 1226.28 -224.845 1230.18C-157.142 1245.49 -89.6255 1261.36 -21.9231 1276.49C36.7307 1289.63 95.8483 1300.86 154.177 1315.24C188.562 1323.69 224.339 1324.9 258.12 1337.52C271.716 1342.58 289.118 1341.37 303.967 1338.63C408.839 1319.37 515.335 1313.16 620.995 1300.72C728.14 1288.1 835.749 1277.51 942.801 1264.06C1025.45 1253.66 1109.11 1252.87 1190.97 1234.96C1226.98 1227.02 1264.66 1228.55 1301.55 1225.12C1370.69 1218.76 1438.76 1204.33 1508.46 1201.87C1570.04 1199.64 1630.31 1183.35 1692.17 1180.43C1773.84 1176.58 1853.84 1157.41 1935.88 1154.44C2019.13 1151.47 2022.93 1145.11 2023.35 1061.4C2023.58 1007.28 2023.4 953.22 2023.4 899.156H2023.72C2023.72 835.763 2024 772.417 2023.58 709.071C2023.4 682.062 2029.15 657.234 2044.28 634.495C2051.98 622.939 2056.16 608.785 2064.97 598.39C2139.96 509.984 2132.07 404.222 2129.38 299.248C2128.73 275.07 2119.27 262.401 2094.58 259.477C2037.83 252.748 1981.45 241.517 1924.56 237.944C1812.08 230.936 1700.57 214.694 1588.69 202.489C1507.53 193.625 1425.72 189.959 1345.03 175.758C1305.58 168.797 1265.35 164.388 1225.31 163.042C1144.89 160.304 1066.42 141.092 985.864 138.447C928.973 136.59 872.547 124.153 815.657 119.837C731.064 113.387 647.816 96.2624 562.852 92.5034C512.04 90.2294 461.6 81.1799 410.927 75.611C283.736 61.596 156.498 47.6739 29.2134 33.9373C-75.0085 22.7532 -179.277 11.801 -283.545 0.941651C-292.733 -0.0329033 -302.06 -0.125684 -311.341 0.106353C-327.721 0.431204 -337.327 9.10939 -338.904 25.352C-340.157 37.6499 -340.667 50.0406 -340.667 62.3849C-340.76 179.795 -340.064 297.253 -340.992 414.663Z" fill="#3DBAE1"/>
</svg>
