<svg width="1791" height="971" viewBox="0 0 1791 971" fill="none" xmlns="http://www.w3.org/2000/svg">
<path d="M1790.99 300.252C1791.2 324.48 1785.99 346.758 1775.8 368.231C1768.13 384.394 1760.7 400.691 1752.47 416.518C1735.15 449.819 1727.08 483.825 1728.29 522.502C1731.52 626.469 1730.51 730.571 1730.95 834.606C1730.98 845.728 1730.34 857.019 1728.49 867.973C1726.48 879.835 1719.32 887.933 1706.84 890.756C1657.79 901.845 1608.88 913.337 1559.82 924.292C1517.33 933.801 1474.5 941.933 1432.24 952.35C1407.32 958.466 1381.4 959.34 1356.93 968.48C1347.08 972.142 1334.47 971.269 1323.71 969.286C1247.73 955.341 1170.57 950.838 1094.02 941.833C1016.39 932.693 938.428 925.031 860.867 915.286C800.99 907.759 740.374 907.188 681.068 894.217C654.979 888.471 627.679 889.58 600.952 887.093C550.858 882.49 501.538 872.039 451.041 870.258C406.427 868.645 362.755 856.851 317.939 854.734C258.768 851.945 200.808 838.067 141.368 835.916C81.054 833.766 78.2969 829.162 77.9943 768.542C77.8262 729.361 77.9606 690.214 77.9606 651.066H77.7255C77.7255 605.165 77.5239 559.297 77.8264 513.429C77.9609 493.872 73.7918 475.894 62.8317 459.429C57.2508 451.062 54.2251 440.813 47.8374 433.286C-6.49237 369.272 -0.777008 292.691 1.17294 216.682C1.64362 199.174 8.50208 190.001 26.3879 187.884C67.505 183.011 108.353 174.879 149.571 172.292C231.066 167.218 311.854 155.457 392.912 146.619C451.713 140.201 510.985 137.547 569.45 127.264C598.027 122.224 627.175 119.031 656.189 118.057C714.452 116.074 771.304 102.163 829.668 100.247C870.886 98.9032 911.767 89.8976 952.985 86.7725C1014.27 82.1017 1074.59 69.7023 1136.15 66.9804C1172.96 65.3339 1209.5 58.7813 1246.22 54.7489C1338.37 44.6008 1430.56 34.52 1522.77 24.5736C1598.29 16.4753 1673.83 8.54492 1749.37 0.681837C1756.03 -0.0238249 1762.79 -0.0910061 1769.51 0.0770085C1781.38 0.312229 1788.34 6.59598 1789.48 18.357C1790.39 27.2618 1790.76 36.2337 1790.76 45.1721C1790.83 130.187 1790.32 215.237 1790.99 300.252Z" fill="#051919"/>
</svg>
