<svg width="1104" height="934" viewBox="0 0 1104 934" fill="none" xmlns="http://www.w3.org/2000/svg">
<path fill-rule="evenodd" clip-rule="evenodd" d="M325.813 747.204C332.379 760.8 338.95 774.394 345.521 787.987L345.632 788.218L345.738 788.438C356.007 809.682 366.276 830.926 376.524 852.18C379.12 857.58 372.217 863.599 355.811 870.237C321.947 883.912 288.078 897.581 254.209 911.25L168.725 932.755C152.657 936.797 136.354 927.048 132.312 910.98L114.944 841.941C122.019 838.4 129.096 834.859 136.177 831.321C150.342 824.243 164.553 817.188 178.765 810.132L178.768 810.131C194.07 802.533 209.374 794.936 224.623 787.308C242.319 778.453 259.941 769.545 277.563 760.636L277.565 760.634C284.614 757.071 291.662 753.508 298.715 749.948C299.583 749.51 300.442 749.063 301.3 748.616L301.303 748.615C302.984 747.739 304.667 746.863 306.427 746.056C318.194 740.659 321.536 740.27 324.115 743.932C324.661 744.696 325.043 745.531 325.424 746.368L325.425 746.369L325.427 746.373L325.474 746.476C325.512 746.56 325.551 746.644 325.589 746.728C325.663 746.887 325.737 747.046 325.813 747.204ZM449.883 862.024L900.262 748.724C897.358 742.806 894.337 736.919 890.141 731.558C879.799 718.365 871.1 704.481 862.401 690.596L862.399 690.594L862.397 690.59C856.689 681.48 850.98 672.369 844.808 663.454C843.344 661.331 841.956 659.176 840.569 657.021C837.64 652.472 834.71 647.922 831.061 643.676C827.212 639.206 824.741 639.461 810.162 645.982C806.424 647.656 802.699 649.344 798.975 651.031L798.942 651.046L798.938 651.047L798.935 651.049L798.931 651.051L798.928 651.052L798.924 651.054L798.92 651.055L798.917 651.057L798.913 651.059L798.906 651.062C792.977 653.747 787.052 656.431 781.088 659.058C749.621 672.937 718.146 686.798 686.675 700.656L686.643 700.671C665.635 709.922 644.628 719.173 623.627 728.427C616.496 731.569 609.39 734.747 602.284 737.924L602.276 737.928L602.276 737.928L602.27 737.931C588.328 744.165 574.389 750.398 560.275 756.354C543.665 763.365 527.355 770.703 511.05 778.039L511.047 778.04L511.045 778.041C494.57 785.453 478.099 792.864 461.33 799.932C455.843 802.244 450.457 804.699 445.074 807.153C442.943 808.125 440.813 809.096 438.676 810.058C430.946 813.536 427.758 816.529 429.246 819.081C429.758 819.943 430.14 820.859 430.522 821.776C430.76 822.344 430.997 822.913 431.265 823.468L449.883 862.024ZM951.763 735.768L1080.48 703.388C1096.54 699.346 1106.29 683.043 1102.25 666.976L1065.35 520.294C1062.17 521.576 1059 522.858 1055.82 524.139L1055.05 524.449L1054.98 524.48L1054.64 524.614C1015.71 540.324 976.78 556.033 937.86 571.748C933.745 573.411 929.628 575.068 925.511 576.726L925.496 576.731L925.491 576.733L925.49 576.734C911.752 582.264 898.02 587.792 884.391 593.486C868.814 599.996 866.618 602.033 869.323 607.131C874.173 616.348 879.226 625.482 884.779 634.411C887.488 638.782 891.151 642.764 895.052 646.621C898.329 649.843 900.283 649.549 912.173 645.105C916.194 643.602 920.193 641.98 924.191 640.358L924.195 640.357L924.196 640.356L924.205 640.353C925.223 639.94 926.241 639.527 927.259 639.116C935.98 635.598 944.703 632.082 953.427 628.566L953.5 628.537L953.509 628.533C978.225 618.572 1002.95 608.609 1027.63 598.589C1028.46 598.251 1029.27 597.921 1030.06 597.601C1055.7 587.187 1058.47 586.065 1062.64 597.475C1062.86 598.045 1062.91 598.684 1062.92 599.323C1062.94 601.808 1059.78 604.522 1053.51 607.269C1048.59 609.425 1043.58 611.501 1038.57 613.521C1025.3 618.887 1012.03 624.248 998.753 629.609L998.717 629.623L998.681 629.638L998.644 629.653L998.634 629.657L998.569 629.683C976.221 638.709 953.874 647.734 931.533 656.786C926.014 659.02 920.434 661.424 915.234 663.983C911.354 665.891 909.448 667.988 910.101 669.469C910.78 671.043 914.031 670.776 918.359 669.252C925.107 666.879 931.915 664.408 938.563 661.737C955.239 655.031 971.896 648.3 988.554 641.569L988.599 641.551L988.601 641.55L988.604 641.549L988.606 641.548L988.609 641.547L988.612 641.546L988.614 641.545L988.617 641.544L988.619 641.543L988.622 641.542L988.636 641.536L988.711 641.506C1007.68 633.841 1026.65 626.176 1045.64 618.549C1064.82 610.848 1068.74 610.658 1072.11 616.628C1077.25 625.751 1075.88 626.963 1047.15 638.559C1036.85 642.715 1026.55 646.866 1016.26 651.017L1016.04 651.103C992.39 660.638 968.74 670.172 945.106 679.756C923.535 688.507 922.311 689.652 925.857 696.416L925.893 696.483L925.93 696.553L925.997 696.68L925.998 696.683L925.999 696.686L926 696.687C926.142 696.958 926.282 697.228 926.452 697.491C931.057 704.481 935.681 711.464 940.305 718.447L940.322 718.472L940.328 718.481L940.334 718.49L940.339 718.497L940.343 718.504C944.153 724.257 947.963 730.011 951.763 735.768ZM1012.76 311.257L1060.5 500.995C1053.23 503.971 1045.97 506.951 1038.71 509.932L1038.68 509.942L1038.67 509.948L1038.67 509.948L1038.67 509.949L1038.67 509.949L1038.67 509.949L1038.66 509.952C1022.4 516.627 1006.14 523.301 989.843 529.923C964.17 540.356 962.727 540.403 958.516 531.812C953.038 520.658 947.648 509.467 942.258 498.277L942.236 498.231L942.219 498.196C939.538 492.629 936.856 487.061 934.164 481.498C934.003 481.165 933.848 480.829 933.693 480.493L933.688 480.482C933.167 479.354 932.646 478.223 931.901 477.186C928.917 473.099 925.591 473.289 912.134 478.388C908.556 479.742 904.992 481.192 901.426 482.642L901.422 482.644L901.419 482.645C900.006 483.22 898.593 483.795 897.179 484.364C867.699 496.259 838.223 508.155 808.747 520.05C749.654 543.897 690.564 567.744 631.459 591.584C606.018 601.838 604.993 601.925 600.947 593.636C590.581 572.319 580.286 550.974 569.991 529.629L569.874 529.387C565.957 521.264 562.039 513.142 558.118 505.021L558.149 505.008C554.15 496.726 550.148 488.445 546.146 480.164C536.137 459.453 526.128 438.742 516.159 418.015C511.256 407.861 511.868 407.515 541.892 398.99C563.045 392.984 584.218 386.925 605.392 380.866L605.413 380.86L605.421 380.858C645.078 369.509 684.738 358.16 724.266 347.16C728.487 345.986 732.093 344.952 735.192 344.063C747.463 340.543 751.755 339.311 754.566 340.811C756.078 341.618 757.162 343.214 758.829 345.669L758.829 345.67L758.83 345.67C759.158 346.153 759.508 346.67 759.889 347.22C767.545 358.271 775.056 369.381 781.524 380.93C785.146 387.397 786.402 387.158 806.457 380.392C819.074 376.139 831.688 371.99 844.303 367.84L844.318 367.835L844.327 367.832C856.301 363.894 868.276 359.955 880.254 355.927C896.016 350.626 911.78 345.268 927.544 339.911L927.562 339.904L927.566 339.903C950.901 331.972 974.236 324.042 997.561 316.294C1002.63 314.609 1007.7 312.932 1012.76 311.257ZM975.311 162.381L1008.05 292.508C1004.46 293.697 1000.88 294.884 997.298 296.072L997.276 296.079C984.722 300.24 972.167 304.401 959.603 308.595C954.248 310.381 948.892 312.159 943.536 313.937L943.53 313.939L943.491 313.952L943.491 313.952L943.49 313.952L943.489 313.952L943.488 313.953L943.486 313.953C925.33 319.979 907.17 326.006 889.042 332.401C882.408 334.74 875.801 336.84 869.195 338.939C859.601 341.987 850.011 345.035 840.347 348.814C831.245 352.37 825.661 352.132 823.435 349.548C822.947 348.976 822.45 348.407 821.952 347.839L821.952 347.838L821.947 347.832L821.941 347.826C820.051 345.664 818.158 343.498 816.762 341.127L816.521 340.72L816.519 340.717C812.537 333.965 808.553 327.21 805.303 320.162C799.116 306.698 791.234 293.936 783.353 281.175C778.265 272.937 773.178 264.701 768.547 256.275C764.203 248.351 765.315 247.154 790.22 237.094C851.918 212.176 913.612 187.28 975.311 162.381ZM954.331 78.9822C933.158 87.4811 912.008 96.0275 890.881 104.621C874.054 111.472 871.703 113.369 874.218 118.913C880.668 133.095 887.471 147.132 894.399 161.117C899.905 172.207 896.903 173.368 879.251 180.198C875.702 181.571 871.561 183.173 866.778 185.131C841.193 195.603 815.519 205.918 789.84 216.236L789.839 216.236L789.837 216.237L789.81 216.248C784.369 218.434 778.928 220.62 773.488 222.808C755.191 230.165 754.151 230.154 749.967 224.461C739.386 210.012 730.975 194.661 723.566 178.905C718.406 167.884 711.541 157.582 704.675 147.279L704.674 147.278L704.672 147.276C701.252 142.143 697.832 137.011 694.621 131.789C692.485 128.321 687.247 127.985 676.213 131.038C666.123 133.828 656.089 136.479 646.055 139.13L646.04 139.134C635.182 142.002 624.323 144.871 613.393 147.916C603.296 150.727 598.855 150.183 597.41 147.073C596.464 145.021 595.434 143.001 594.404 140.98L594.402 140.976C592.76 137.755 591.117 134.533 589.815 131.178C587.871 126.119 590.863 123.701 606.295 117.217C611.998 114.818 617.755 112.509 623.506 110.202L623.57 110.176C624.706 109.72 625.843 109.264 626.978 108.808C627.851 108.457 628.722 108.106 629.594 107.755L772.853 49.9381L772.848 49.9277C783.603 45.5872 794.362 41.2551 805.122 36.9251C773.434 41.2916 741.746 45.6553 710.059 50.0146L903.845 1.26456C919.913 -2.7776 936.215 6.9712 940.257 23.0391L954.331 78.9822ZM38.4396 537.829L0.0678089 385.298C11.9919 381.529 23.9141 377.768 35.836 374.007C55.5238 367.795 75.2107 361.584 94.9036 355.342C98.0015 354.359 101.099 353.326 104.196 352.292C109.814 350.417 115.435 348.542 121.066 346.967C128.11 345 131.82 345.103 132.82 347.496C133.983 350.317 135.228 353.105 136.554 355.862C153.828 391.685 171.12 427.495 188.416 463.311C190.426 467.474 185.589 472.358 173.907 477.959C162.187 483.588 150.032 488.562 137.873 493.537L137.872 493.538L137.87 493.539L137.862 493.542L137.859 493.543C133.339 495.393 128.819 497.242 124.321 499.126C117.649 501.915 113.805 502.091 112.39 500.038C111.183 498.337 110.118 496.575 109.196 494.755C106.12 488.433 103.076 482.098 100.032 475.764C98.1296 471.805 96.2272 467.846 94.3173 463.891L94.2183 463.686C93.6312 462.468 93.0421 461.246 92.2097 460.133C92.0953 459.978 91.9895 459.813 91.8825 459.646C91.4128 458.913 90.9192 458.142 89.5656 457.99C81.3445 457.04 72.2172 461.167 63.1743 465.256L63.1739 465.256C59.7655 466.797 56.3692 468.333 53.0379 469.589C44.0337 472.986 42.4725 476.416 43.7593 479.12C44.7402 481.193 45.7184 483.268 46.6968 485.343C48.4138 488.985 50.1312 492.627 51.8632 496.263C53.0182 498.692 54.2036 501.109 55.3892 503.526L55.4004 503.549L55.4016 503.552L55.4025 503.554C57.9857 508.821 60.5696 514.09 62.8442 519.481C65.1408 524.938 53.63 533.259 38.4396 537.829ZM73.2646 676.261L43.0445 556.134C49.2743 553.334 55.5045 550.535 61.7358 547.738C63.3137 547.03 64.8822 546.307 66.45 545.585C69.7005 544.087 72.9487 542.59 76.2741 541.235C97.0223 532.79 117.21 523.692 137.398 514.593L137.4 514.593C150.542 508.67 163.684 502.747 176.981 497.004C178.048 496.543 179.112 496.069 180.177 495.595L180.185 495.591L180.188 495.59L180.192 495.588L180.193 495.588C182.369 494.618 184.547 493.648 186.759 492.783C196.876 488.81 199.864 488.528 202.154 491.591C203.176 492.952 203.81 494.478 204.444 496.004L204.445 496.006L204.445 496.007C204.743 496.724 205.041 497.44 205.378 498.14C211.133 510.083 216.902 522.021 222.672 533.961C225.546 539.909 228.421 545.856 231.293 551.805L231.257 551.82C233.828 557.144 236.403 562.467 238.978 567.789C245.673 581.627 252.367 595.464 258.989 609.328C262.038 615.718 261.911 615.998 243.47 625.189C222.61 635.585 201.653 645.917 180.695 656.25L180.674 656.26L180.672 656.261L180.67 656.262L180.668 656.263L180.666 656.264L180.664 656.265C169.429 661.804 158.194 667.344 146.973 672.893C143.215 674.752 139.485 676.63 135.756 678.508L135.751 678.51C129.19 681.814 122.629 685.118 115.92 688.314C105.106 693.464 102.066 693.885 99.3658 690.424C97.5844 688.151 96.3864 685.623 95.1886 683.096L95.1882 683.096L95.1877 683.095L95.1871 683.094L95.1866 683.093L95.186 683.092L95.1855 683.091L95.1825 683.085C94.6445 681.95 94.1064 680.815 93.5155 679.704C93.2905 679.281 93.0833 678.851 92.8759 678.42L92.8755 678.419L92.8749 678.418L92.8744 678.417L92.8738 678.416L92.8733 678.415C92.2899 677.203 91.7051 675.988 90.7222 674.952C87.852 671.875 84.6859 672.072 74.0528 675.97C73.79 676.066 73.5273 676.163 73.2646 676.261ZM85.8154 726.152L110.405 823.896C112.037 823.081 113.67 822.265 115.302 821.45C128.354 814.928 141.408 808.407 154.463 801.885C183.015 787.623 211.57 773.359 240.107 759.08C248.148 755.057 256.164 751.017 264.181 746.977L264.188 746.974L264.189 746.973C277.144 740.444 290.102 733.914 303.173 727.45C310.217 723.972 312.395 721.431 311.712 719.035C311.198 717.287 310.517 715.593 309.721 713.943C306.503 707.227 303.266 700.519 300.028 693.811L300.009 693.77L299.987 693.725L299.965 693.68L299.942 693.632L299.865 693.473C297.509 688.589 295.152 683.705 292.802 678.817C291.148 675.392 289.498 671.965 287.848 668.539L287.825 668.491L287.802 668.443L287.778 668.395L287.736 668.307L287.715 668.264C283.596 659.709 279.477 651.155 275.298 642.621C271.583 635.043 269.376 635.33 247.137 645.977C246.626 646.225 246.102 646.482 245.596 646.738C232.996 652.998 220.397 659.257 207.797 665.516L207.769 665.53L207.741 665.544L207.712 665.558L207.684 665.572L207.656 665.587C167.028 685.769 126.405 705.95 85.8154 726.152ZM907.376 557.225C909.531 562.294 908.092 563.834 893.191 570.091C874.161 578.087 854.911 585.796 835.674 593.454C805.756 605.365 806.555 606.514 810.151 611.687L810.152 611.687C810.74 612.534 811.403 613.488 812.019 614.614C812.17 614.89 812.329 615.164 812.488 615.438L812.491 615.443C813.051 616.41 813.612 617.378 813.859 618.463C814.732 622.142 812.293 624.389 802.555 629.106L802.511 629.128L802.508 629.129C801.488 629.626 800.439 630.137 799.363 630.554C782.979 636.86 767.35 644.058 751.707 651.263L751.706 651.263L751.705 651.264C738.716 657.246 725.717 663.233 712.27 668.717C696.472 675.158 680.996 682.302 665.632 689.396L665.63 689.397C662.439 690.87 659.253 692.341 656.07 693.803C644.548 699.096 632.76 704.057 620.974 709.018L620.973 709.018C603.417 716.407 585.865 723.794 569.201 732.276C562.839 735.516 555.678 738.318 548.534 741.114L548.53 741.115C545.627 742.251 542.727 743.386 539.883 744.549C533.35 747.225 529.065 747.482 527.313 745.688C525.625 743.981 524.264 742.129 523.237 740.139C519.896 733.405 516.634 726.643 513.371 719.88L513.35 719.837L513.329 719.794L513.308 719.751L513.287 719.708C511.542 716.091 509.797 712.473 508.039 708.859C507.888 708.548 507.742 708.234 507.596 707.92L507.596 707.919C506.97 706.574 506.343 705.227 505.355 704.039C502.492 700.551 499.195 700.568 487.979 704.923C452.507 718.699 452.775 719.245 457.25 728.341L457.258 728.357C457.463 728.773 457.677 729.207 457.896 729.661C463.041 740.276 468.184 750.89 473.25 761.535C474.218 763.551 474.964 765.656 475.487 767.845C476.228 771.046 472.431 774.714 463.718 778.742C452.013 784.163 439.979 789.046 427.883 793.854C421.607 796.341 418.498 796.295 417.439 794.384C417.265 794.071 417.085 793.761 416.905 793.452L416.903 793.45L416.902 793.447L416.899 793.443L416.898 793.44L416.896 793.438C416.563 792.867 416.231 792.297 415.945 791.704C401.549 761.931 387.166 732.147 372.784 702.365L372.767 702.328L372.749 702.292L372.69 702.17L372.873 702.096L330.695 614.752C330.671 614.702 330.647 614.652 330.622 614.603C330.575 614.507 330.526 614.411 330.478 614.315C330.414 614.19 330.35 614.066 330.286 613.942C329.958 613.305 329.631 612.67 329.4 611.992C328.332 608.967 331.77 605.357 339.711 601.164C355.397 592.862 371.722 584.968 388.047 577.074L388.048 577.073L388.049 577.073L388.05 577.072L388.051 577.072L388.053 577.071L388.054 577.071L388.055 577.07L388.056 577.07L388.057 577.069L388.068 577.064C395.129 573.65 402.191 570.235 409.201 566.787C413.117 564.86 417.038 562.937 420.959 561.013L420.981 561.002L420.987 560.999C436.186 553.542 451.388 546.083 466.289 538.466C472.07 535.51 477.995 532.851 483.924 530.189C486.489 529.037 489.054 527.886 491.61 526.709C500.082 522.818 504.303 522.933 506.104 525.281C507.336 526.885 508.189 528.654 509.04 530.417L509.137 530.618C516.258 545.347 523.366 560.081 530.475 574.816C539.358 593.229 548.242 611.643 557.151 630.049C562.049 640.152 562.23 640.282 593.164 627.843C648.78 605.486 704.351 583.059 759.92 560.632C787.709 549.417 815.497 538.202 843.291 526.996C844.516 526.503 845.741 526.008 846.966 525.513L847.002 525.499C854.547 522.451 862.113 519.395 869.71 516.623C883.003 511.763 885.127 511.681 887.434 516.045C890.67 522.148 893.631 528.366 896.59 534.582L896.593 534.589L896.594 534.589L896.594 534.59L896.594 534.59L896.594 534.591L896.595 534.591L896.595 534.592L896.595 534.592L896.597 534.596L896.601 534.604L896.605 534.612L896.609 534.622L896.614 534.631C897.666 536.841 898.718 539.051 899.783 541.255C900.432 542.591 901.092 543.923 901.751 545.254L901.753 545.259L901.755 545.262L901.756 545.265C903.713 549.218 905.67 553.171 907.376 557.225ZM459.607 430.245C457.218 425.307 454.829 420.369 452.44 415.43C452.076 414.685 451.726 413.936 451.375 413.185L451.375 413.185C450.266 410.815 449.157 408.444 447.632 406.248C444.904 402.264 442.423 402.498 429.171 407.455C424.76 409.103 420.35 410.883 415.977 412.662L401.406 418.578C360.842 435.048 320.279 451.517 279.732 468.021C264.368 474.273 263.694 474.945 265.853 480.474C266.288 481.584 266.821 482.658 267.353 483.731L267.354 483.732L267.354 483.733L267.355 483.734L267.356 483.736L267.356 483.737L267.357 483.739L267.36 483.745C267.547 484.122 267.734 484.499 267.917 484.877L290.662 531.978L290.531 532.03L314.862 582.415C315.089 582.867 315.335 583.314 315.58 583.761L315.581 583.762C315.826 584.208 316.07 584.653 316.297 585.104C317.597 587.718 322.696 587.081 329.5 583.622C334.316 581.171 339.292 578.852 344.27 576.531L344.27 576.531C351.394 573.21 358.524 569.887 365.199 566.175L365.51 566.002C380.169 557.851 381.271 557.237 378.981 551.532C377.324 547.34 375.334 543.279 373.345 539.219L373.343 539.217L373.342 539.214C372.565 537.629 371.789 536.044 371.032 534.452C369.991 532.269 368.922 530.096 367.854 527.923L367.851 527.918C365.788 523.722 363.724 519.525 361.854 515.253C358.938 508.555 360.818 506.959 379.87 499.15C383.696 497.579 387.534 496.03 391.383 494.504C408.389 487.791 410.901 487.545 413.721 493.05C416.953 499.378 420.012 505.776 423.073 512.176L423.073 512.177C424.473 515.104 425.872 518.031 427.289 520.952C427.624 521.631 427.936 522.321 428.248 523.011L428.249 523.013C429.02 524.72 429.794 526.43 430.924 527.989C433.07 530.999 435.382 530.906 444.657 526.921C450.294 524.498 455.763 521.849 461.229 519.203L461.249 519.193C463.072 518.31 464.893 517.428 466.721 516.555C494.438 503.292 494.74 503.026 489.996 493.201C479.906 472.202 469.757 451.225 459.607 430.245ZM716.197 328.966C743.26 321.23 743.41 320.842 739.066 311.602C734.298 301.419 727.854 291.937 721.408 282.453L721.408 282.452L721.407 282.451C716.026 274.533 710.643 266.612 706.234 258.281C694.806 236.668 682.737 215.312 670.667 193.957L670.666 193.955C666.107 185.888 661.548 177.821 657.024 169.74C656.606 168.995 656.047 168.307 655.488 167.621C654.714 166.671 653.942 165.722 653.549 164.624C651.899 160.071 643.675 160.769 631.403 164.114C570.126 180.782 508.872 197.397 447.639 213.958C422.374 220.793 421.251 221.529 425.257 229.824C433.814 247.636 442.415 265.428 451.016 283.22L451.304 283.817C454.762 290.97 458.22 298.123 461.675 305.278L461.706 305.265L480.186 343.534C482.097 347.491 483.994 351.455 485.89 355.418C490.457 364.961 495.024 374.503 499.79 383.964C502.349 389.018 504.818 388.9 520.088 384.572C532.191 381.138 544.286 377.711 556.382 374.284L556.535 374.241L566.234 371.493C581.178 367.259 596.119 363.034 611.061 358.809L611.068 358.806L611.07 358.806C646.098 348.9 681.128 338.994 716.197 328.966ZM411.827 331.28C408.357 324.105 404.888 316.93 401.427 309.752L401.412 309.758C398.253 303.217 395.096 296.676 391.94 290.135L391.806 289.856C385.574 276.944 379.343 264.032 373.098 251.126C372.729 250.37 372.373 249.609 372.016 248.847L372.016 248.846C370.825 246.301 369.634 243.758 367.96 241.414C365.078 237.397 361.63 237.823 349.299 243.81C343.751 246.506 338.304 249.275 332.86 252.044C326.102 255.48 319.349 258.913 312.41 262.201C290.01 272.817 268.071 283.729 246.134 294.64C233.189 301.078 220.244 307.516 207.206 313.893C190.143 322.233 189.874 322.888 192.551 329.014L193.081 330.112C199.268 342.935 205.452 355.759 211.636 368.582L212.271 369.899L212.341 370.044L212.421 370.209C225.094 396.487 237.766 422.763 250.454 449.038C250.795 449.743 251.19 450.429 251.585 451.114L251.585 451.115L251.587 451.118C252.008 451.849 252.43 452.58 252.785 453.336C253.926 455.775 257.773 455.814 265.372 452.723C267.731 451.763 270.102 450.825 272.477 449.887L272.483 449.884L272.487 449.882C274.501 449.086 276.516 448.289 278.528 447.477C322.118 429.893 365.71 412.3 409.302 394.708L409.819 394.499C436.798 383.605 436.94 383.539 432.604 374.43C425.745 360.063 418.811 345.724 411.878 331.385L411.865 331.359L411.848 331.324L411.827 331.28Z" fill="#266060"/>
</svg>
