<svg width="1440" height="971" viewBox="0 0 1440 971" fill="none" xmlns="http://www.w3.org/2000/svg">
<path d="M1622.99 300.252C1623.2 324.48 1617.98 346.758 1607.8 368.231C1600.13 384.394 1592.7 400.691 1584.47 416.518C1567.15 449.819 1559.08 483.825 1560.29 522.502C1563.52 626.469 1562.51 730.571 1562.95 834.606C1562.98 845.728 1562.34 857.019 1560.49 867.973C1558.48 879.835 1551.32 887.933 1538.84 890.756C1489.79 901.845 1440.88 913.337 1391.82 924.292C1349.33 933.801 1306.5 941.933 1264.24 952.35C1239.32 958.466 1213.4 959.34 1188.93 968.48C1179.08 972.142 1166.47 971.269 1155.71 969.286C1079.73 955.341 1002.57 950.838 926.021 941.833C848.392 932.693 770.428 925.031 692.867 915.286C632.99 907.759 572.374 907.188 513.068 894.217C486.979 888.471 459.68 889.58 432.952 887.093C382.858 882.49 333.538 872.039 283.041 870.258C238.427 868.646 194.755 856.851 149.939 854.734C90.7684 851.945 32.808 838.067 -26.6319 835.916C-86.946 833.766 -89.7031 829.162 -90.0057 768.542C-90.1738 729.361 -90.0394 690.214 -90.0394 651.066H-90.2745C-90.2745 605.165 -90.4761 559.297 -90.1736 513.429C-90.0391 493.872 -94.2082 475.894 -105.168 459.429C-110.749 451.062 -113.775 440.813 -120.163 433.286C-174.492 369.272 -168.777 292.691 -166.827 216.682C-166.356 199.174 -159.498 190.001 -141.612 187.884C-100.495 183.011 -59.6468 174.879 -18.4289 172.292C63.0657 167.218 143.854 155.457 224.912 146.619C283.713 140.201 342.985 137.547 401.45 127.264C430.027 122.224 459.175 119.031 488.189 118.057C546.452 116.074 603.304 102.163 661.668 100.247C702.886 98.9032 743.767 89.8976 784.985 86.7725C846.274 82.1017 906.588 69.7023 968.146 66.9804C1004.96 65.3339 1041.5 58.7813 1078.22 54.7489C1170.37 44.6008 1262.56 34.52 1354.77 24.5736C1430.29 16.4753 1505.83 8.54492 1581.37 0.681837C1588.03 -0.0238249 1594.79 -0.0910061 1601.51 0.0770085C1613.38 0.312229 1620.34 6.59598 1621.48 18.357C1622.39 27.2618 1622.76 36.2337 1622.76 45.1721C1622.83 130.187 1622.32 215.237 1622.99 300.252Z" fill="#3DBAE1"/>
</svg>
