<svg width="16" height="16" viewBox="0 0 16 16" fill="none" xmlns="http://www.w3.org/2000/svg">
<path fill-rule="evenodd" clip-rule="evenodd" d="M1.33398 8.00004C1.33398 4.32671 4.32732 1.33337 8.00065 1.33337C11.674 1.33337 14.6673 4.32671 14.6673 8.00004C14.6673 11.6734 11.674 14.6667 8.00065 14.6667C4.32732 14.6667 1.33398 11.6734 1.33398 8.00004ZM2.66732 8.00004C2.66732 10.94 5.06065 13.3334 8.00065 13.3334C10.9407 13.3334 13.334 10.94 13.334 8.00004C13.334 5.06004 10.9407 2.66671 8.00065 2.66671C5.06065 2.66671 2.66732 5.06004 2.66732 8.00004ZM7.33398 8.27337V4.00004H8.66732V7.72671L11.1407 10.1934L10.194 11.14L7.33398 8.27337Z" fill="#8B8B8B"/>
</svg>
