<svg xmlns="http://www.w3.org/2000/svg" viewBox="0 0 2000 693.72" fill="#fff">
  <path
    d="M1874.82,91c0,8.41-5.42,13.58-17.73,13.58s-17.74-5.17-17.74-13.58V50.19c0-8.41,5.42-13.6,17.74-13.6s17.73,5.19,17.73,13.6Zm24.63-42.89c0-16.34-11.49-33-42.36-33s-42.37,16.66-42.37,33v45c0,16.34,11.5,33,42.37,33s42.36-16.66,42.36-33Zm-103-31.39h-24.64V124.46h24.64Zm-67.86,73.14c0,8.42-3,13.11-15.28,13.11h-14.77V38.22h14.77c12.32,0,15.28,4.68,15.28,13.1Zm24.62,6.63V44.69c0-14.57-10-28-36.94-28h-42.37V124.46h42.37c26.93,0,36.94-13.6,36.94-28M1615.23,38.05l12.48,45.15h-25.12Zm16.43-21.36h-32.84l-33.33,107.77h25.61l5.91-21h36.61l5.92,21h25.61ZM1529.07,58.11c0,8.09-2.63,11.82-13.14,11.82h-19.54V38.22h19.54c10,0,13.14,3.23,13.14,11.32Zm5.91,66.35h29.23l-26.44-36.89c11-4.53,15.93-13.6,15.93-27V47.27c0-20.22-9.86-30.58-36.45-30.58h-45.49V124.46h24.63V91h14.45Z"
  />
  <path
    d="M433.7,171l.24.14c15.26,8.89,23.32,26.27,23.32,50.25V469.52c0,39.4-12.57,70.57-37.37,92.65l-.17.15v5.11l9.14-3.93c47-20.26,62.91-26.66,100.34-40.26,19.06-6.92,35.63-12.57,49.26-16.78,18.29-5.65,26.77-8,50.4-13.71l.35-.09,5.32-106.54,0-.52h-5l-.09.38c-6.91,31.42-18.79,57.38-35.33,77.18-16.38,19.61-37.82,33.76-63.74,42.07V331.81c33.25,1.82,52,10.94,64.62,41.33l.13.3h4.95V262h-5l-.11.36c-10.59,35-33.52,49.35-64.6,55.25V184.94h18.36c38.75,0,67.66,22.14,79.31,60.75l.11.36h5l-2.61-80H433.7Z"
  />
  <path
    d="M1185.61,477.13l23.32,4,26.71,4.63,20.44,3.3,5.93.92V485l-.26-.14c-16.4-8.7-25.33-17-31.88-29.47-3.4-6.55-5.62-13.58-7-23V253.49h.46l147.62,265,.15.26h5v-.49h1.06V216.07c1.06-12.42,2.94-21.23,5.68-26.61,3.72-7.34,12.46-14.86,21.23-18.28l.32-.12v-5h-85.08v5l.29.13c17.56,7.6,24.65,14.28,29.16,27.48a107.78,107.78,0,0,1,4.66,21.25V351.05h-1.33l-101.23-184.7-.14-.26h-87.35v5l.32.13c14.62,6,32.07,17,35.37,35.85v222.7c-1.27,23.12-16.68,34.65-37.75,37.74l-.42.06v5l5.86,1.15Z"
  />
  <path
    d="M1541.79,526.16l6.89.29v-5l-.27-.13c-10.89-5.46-17.88-12.44-23.38-23.35-6.52-12.83-8.11-23.16-8.11-52.62V235.21c0-36.59,10.14-55.8,33.91-64.27l.32-.12v-4.74H1423.41v4.65l.21.15c12.31,8.53,21.33,20.1,24.75,31.73,2.06,7,3.49,24,3.49,41.35V435.3c0,46.88-5.83,60.12-31.18,70.81l-.31.13v5l4.46.82c40.23,7.4,86.14,13,117,14.14"
  />
  <path
    d="M1664.64,533.61c19.94,0,38.66-7.77,54.12-22.46s26.22-34.89,31.15-58.47c3.13-14.71,3.76-19.19,5.67-40l.05-.55h-4.29l-1.78,5.72c-11.4,37.13-28.38,53.7-55,53.7-42.09,0-69.29-57.62-69.29-146.79,0-45.62,5.81-86.15,15.94-111.21a48.29,48.29,0,0,1,21.35-24.48c6-3.24,14-5.09,22-5.09,30.68,0,52.14,25,65.64,76.56l1,3.84h5V163.88l-3.59,1.33-4.89,2.32c-5.58,2.66-12.47,4.38-17.55,4.38a38.58,38.58,0,0,1-10.7-1.51l-9.93-2.9a110.67,110.67,0,0,0-29.43-4.65c-32,0-62,21-84.53,59.11s-34.8,88.77-34.8,142.82c0,97.82,43.66,168.83,103.82,168.83"
  />
  <path
    d="M753.21,184.11l9.59-.1c39.41,0,55.49,14.12,55.49,48.74,0,39.69-23.1,62.47-65.08,64.2ZM657,487a464.57,464.57,0,0,1,47.42-12.56c22.36-4.93,52.47-10.27,61.94-11l13.06-1,3.35-.3v-4.93l-.33-.11c-23.18-7.55-29.19-19.11-29.19-56.26V315.78l2.12-.21a73.5,73.5,0,0,1,7.87-.47c25,0,36.06,12.15,42.2,46.45,6.76,37.76,8.05,43.73,12.59,58.1a82.43,82.43,0,0,0,16.54,29.78c10.63,12.12,25.73,18.79,42.53,18.79,19.64,0,40.63-8.87,54.77-23.14l.26-.26-1.92-3.55-.36.08c-8.58,1.64-12.16,2.1-16.68,2.1-9.74,0-14.68-2.87-18.24-10.58-3-6.47-3.5-8.38-7.82-29.18-14.59-70.21-29.32-88.05-81.92-97.41,30.88-8.73,48.14-16.73,61.18-28.28,12.7-11.27,20.92-30,20.92-47.7,0-22.58-13.13-45.45-31.21-54.4-13.91-6.87-32.54-9.81-62.31-9.81H657.8V171l.29.13c22.42,9.89,27.57,21,27.57,59.32V411.9c0,22.28-1.65,31.29-8,43.84-5.07,10-9,14.65-22,26.31l-.21.2,1.08,5Z"
  />
  <path
    d="M1839,349.17l23.75-111.25,1.79,0L1888,332.82c-17.87,7.72-24.92,10.08-49,16.35m159.74,57.7h-.38c-9.13-.09-14.73-2.15-19.31-7.13-6.56-7.14-9.77-14.68-19.09-44.88-3-9.62-4.68-15.57-5.45-18.73l-41-169.66-.08-.38H1812.56V171l.29.14c17.75,8.08,25.5,13.51,34.86,25.15l-50,234.23c-6.72,22.13-15,41.76-21.76,51.52-6.48,9.27-11.19,13.83-26.51,25.68l-.23.18.67,5.13,37.1-9.8c23.81-6.29,43.54-12.06,55.51-16.22l.4-.14-.8-4.8-.32-.08c-17.81-4.42-23.25-11.17-23.25-28.88,0-3.33.23-7.05.62-11l14.79-69.25,4.25-1.3c21.2-6.55,41.6-13.84,54.72-19.55l4.26,17.46c4.81,19.71,7,35.25,7,48.9,0,20.75-6.24,36.64-18.55,47.24l-.21.19.82,5,.57-.23a642.64,642.64,0,0,0,112.87-58.74l.29-.2Z"
  />
  <path
    d="M1038.86,180.12c34.89,0,46.09,31.87,46.09,131.16,0,66-5.49,110.48-15.89,128.55-5.58,9.73-16.13,15.09-29.72,15.09-23.8,0-35-12.33-39.84-44-4.93-32-6.76-59.1-6.73-100,0-99,11.22-130.82,46.09-130.82m0,294.74c37,0,67.52-14.54,88.17-42s31.51-68,31.51-117.24c0-50.45-10.34-89.58-30.74-116.29S1077.45,159,1038.86,159s-68.51,13.56-88.94,40.31-30.73,65.81-30.73,116.24c0,49.26,10.89,89.81,31.5,117.28s51.13,42.05,88.17,42.05"
  />
  <path
    d="M1830.12,584.36c-69.92,23.75-144.62,35.29-228.39,35.29-55.58,0-85.07-2.81-175.29-16.72l-100.6-15.5L1218.93,569c-52.63-9.08-119.57-17.28-174.72-21.42-38.81-2.93-77.92-4.41-116.23-4.41-114,0-216.65,12.52-305.25,37.22-47.19,13.17-96,31.46-145,54.36-24.22,11.33-42.79,20.39-60.57,30.52l.93,1.78c40.05-18.66,76.19-30.75,124.74-41.74,47.31-10.69,82.48-14.67,129.75-14.67,24.8,0,52.54,1.24,80.23,3.59,17.84,1.54,42.48,4.24,73.23,8,40.76,5.05,73.34,9.71,96.81,13.84l98.72,17.36c14.47,2.55,42,7.06,84,13.8,40.74,6.51,69.43,11,85.28,13.2,66.07,9.27,118.57,13.23,175.56,13.23,151.53,0,306.89-30.44,437.47-85.7,42.42-17.93,81.56-38,113.2-58.09l-1-1.74a667.42,667.42,0,0,1-86,36.17"
  />
  <path
    d="M465.25,95.78c8,.15,14,1.91,23.95,7,13.08,6.7,14.15,7.19,19.15,8.47a45.41,45.41,0,0,0,10.52,1.32c28.09.52,48.7-21.75,49.29-53.24C568.77,26,543.72.64,509.6,0c-28.4-.53-59,15.2-76,39.14-18.06,25.3-34.48,64.08-60.34,142.72l-85,238.35L210.49,187.5c-6.52-19.49-8.6-32.69-8.6-42.62,0-19.16,13.7-36.35,37.05-46.48V94.22H0V98.4c26.63,5.62,43.76,14.95,56.42,30.77,12.27,15.35,26,41.13,37.1,71.75L246,628,408.93,160.12c17.34-46.26,34.18-64.75,56.32-64.34"
  />
</svg>
