<svg width="24" height="24" viewBox="0 0 24 24" fill="none" xmlns="http://www.w3.org/2000/svg">
<path fill-rule="evenodd" clip-rule="evenodd" d="M2.35414 11.7496C2.35414 6.37364 6.7609 2 12.1775 2C17.5937 2 22 6.37364 22 11.7496C22 17.1249 17.5937 21.4981 12.1776 21.498C10.5532 21.498 8.94811 21.0975 7.52798 20.3387L2.33836 21.9878C2.31252 21.9961 2.28602 22 2.25973 22C2.19109 22 2.12388 21.9728 2.07434 21.9222C2.0057 21.8523 1.98232 21.7497 2.01375 21.6569L3.70096 16.68C2.81947 15.1903 2.35414 13.4883 2.35414 11.7496ZM7.89597 18.1907C9.16857 19.0258 10.649 19.4672 12.1775 19.4672C16.4675 19.4672 19.9575 16.0051 19.9575 11.7496C19.9575 7.49352 16.4673 4.03091 12.1775 4.03091C7.88707 4.03091 4.39655 7.49352 4.39655 11.7496C4.39655 13.3854 4.90882 14.9499 5.87791 16.274C5.92791 16.3424 5.94148 16.4307 5.91434 16.5109L5.07512 18.9868L7.6748 18.1604C7.70058 18.1522 7.72707 18.1482 7.7535 18.1482C7.8035 18.1482 7.85318 18.1626 7.89597 18.1907ZM16.7501 13.4684C16.7781 13.4822 16.7952 13.4905 16.799 13.4923L16.7991 13.4924C16.99 13.584 17.1408 13.6565 17.2283 13.8003C17.3561 14.0119 17.3055 14.5951 17.1134 15.1288C16.8696 15.8064 15.7976 16.3618 15.3098 16.4051L15.2383 16.4119C15.1255 16.423 14.9976 16.4355 14.8379 16.4355H14.8378C14.4577 16.4355 13.789 16.3703 12.377 15.8063C10.9103 15.2204 9.46351 13.9643 8.30292 12.2693C8.29956 12.2644 8.29637 12.2598 8.29336 12.2553C8.2784 12.2334 8.26776 12.2179 8.26149 12.2095C7.95844 11.8101 7.25259 10.7599 7.25259 9.64759C7.25259 8.41174 7.84415 7.70901 8.19383 7.48856C8.52357 7.2807 9.26935 7.18252 9.4063 7.17674C9.48752 7.17331 9.4961 7.17236 9.5047 7.1721C9.50801 7.172 9.51132 7.172 9.51877 7.172C9.80779 7.172 10.0158 7.34739 10.1732 7.72408C10.1889 7.76154 10.2363 7.87561 10.2998 8.0283C10.5007 8.5118 10.8626 9.38258 10.8888 9.43499C10.9308 9.51739 11.0608 9.77259 10.9086 10.075L10.8759 10.1406L10.8757 10.141C10.8135 10.2672 10.7597 10.3762 10.639 10.5166C10.6003 10.5614 10.5608 10.609 10.5214 10.6564L10.5211 10.6567C10.438 10.7568 10.352 10.8603 10.2727 10.9388C10.2455 10.966 10.1929 11.0187 10.1872 11.0397C10.1872 11.0397 10.1873 11.0398 10.1873 11.0402C10.1878 11.0433 10.1906 11.0615 10.2116 11.0973C10.3744 11.3728 11.5616 13.0066 13.1257 13.686C13.194 13.7157 13.4197 13.8086 13.4327 13.8086C13.4473 13.8086 13.4716 13.7843 13.4894 13.764C13.6256 13.6101 14.0665 13.0947 14.2121 12.8782C14.341 12.6854 14.5064 12.5873 14.7033 12.5873C14.8238 12.5873 14.9371 12.6244 15.0429 12.6624C15.2769 12.7466 16.4889 13.3405 16.7501 13.4684Z" fill="#1E1E1E"/>
</svg>
