<svg width="44" height="31" viewBox="0 0 44 31" fill="none" xmlns="http://www.w3.org/2000/svg">
<path d="M2 6.5C2 4.37868 2 3.31803 2.65825 2.659C3.31652 2 4.37596 2 6.49486 2H31.0584C32.236 2 32.8249 2 33.3218 2.26624C33.8187 2.53246 34.1452 3.02292 34.7983 4.00385L40.7916 13.0039C41.5973 14.2137 42 14.8187 42 15.5C42 16.1813 41.5973 16.7863 40.7916 17.9961L34.7983 26.9961C34.1452 27.9771 33.8187 28.4674 33.3218 28.7338C32.8249 29 32.236 29 31.0584 29H6.49486C4.37596 29 3.31652 29 2.65825 28.341C2 27.6819 2 26.6213 2 24.5V6.5Z" stroke="#0275FF" stroke-width="3"/>
</svg>
