<svg width="43" height="44" viewBox="0 0 43 44" fill="none" xmlns="http://www.w3.org/2000/svg">
<path d="M21.3873 41.8856C32.316 41.8856 41.1755 32.9338 41.1755 21.8913C41.1755 10.8487 32.316 1.89697 21.3873 1.89697C10.4586 1.89697 1.59912 10.8487 1.59912 21.8913C1.59912 32.9338 10.4586 41.8856 21.3873 41.8856Z" stroke="#0275FF" stroke-width="3" stroke-linecap="round" stroke-linejoin="round"/>
<path d="M21.5874 9.5542L5.99671 9.5542" stroke="#0275FF" stroke-width="3" stroke-linecap="round" stroke-linejoin="round"/>
<path d="M21.5874 34.2285L5.99671 34.2285" stroke="#0275FF" stroke-width="3" stroke-linecap="round" stroke-linejoin="round"/>
<path d="M21.5874 21.4673L1.59933 21.4673" stroke="#0275FF" stroke-width="3" stroke-linecap="round" stroke-linejoin="round"/>
<path d="M21.5874 15.937L2.79862 15.937" stroke="#0275FF" stroke-width="3" stroke-linecap="round" stroke-linejoin="round"/>
<path d="M21.5874 27.8457L2.79862 27.8457" stroke="#0275FF" stroke-width="3" stroke-linecap="round" stroke-linejoin="round"/>
<path d="M21.3868 41.8851C32.3155 41.8851 41.175 32.9334 41.175 21.8908C41.175 10.8482 32.3155 1.89648 21.3868 1.89648C10.4581 1.89648 1.59863 10.8482 1.59863 21.8908C1.59863 32.9334 10.4581 41.8851 21.3868 41.8851Z" stroke="#0275FF" stroke-width="3" stroke-linecap="round" stroke-linejoin="round"/>
<path d="M21.5869 9.55371L5.99622 9.55371" stroke="#0275FF" stroke-width="3" stroke-linecap="round" stroke-linejoin="round"/>
<path d="M21.5869 34.228L5.99622 34.228" stroke="#0275FF" stroke-width="3" stroke-linecap="round" stroke-linejoin="round"/>
<path d="M21.5869 21.4668L1.59884 21.4668" stroke="#0275FF" stroke-width="3" stroke-linecap="round" stroke-linejoin="round"/>
<path d="M21.5869 15.9365L2.79813 15.9365" stroke="#0275FF" stroke-width="3" stroke-linecap="round" stroke-linejoin="round"/>
<path d="M21.5869 27.8452L2.79813 27.8452" stroke="#0275FF" stroke-width="3" stroke-linecap="round" stroke-linejoin="round"/>
</svg>
