<svg width="43" height="44" viewBox="0 0 43 44" fill="none" xmlns="http://www.w3.org/2000/svg">
<path d="M4.78663 41.9884H38.2742C39.9555 41.9884 41.3185 40.6113 41.3185 38.9124V5.07603C41.3185 3.37719 39.9555 2 38.2742 2H4.78663C3.1053 2 1.74231 3.37719 1.74231 5.07603V38.9124C1.74231 40.6113 3.1053 41.9884 4.78663 41.9884Z" stroke="#0275FF" stroke-width="3" stroke-linecap="round" stroke-linejoin="round"/>
<path d="M5.5481 41.9887L27.7716 20.8255C28.0451 20.5953 28.3899 20.4692 28.7458 20.4692C29.1018 20.4692 29.4465 20.5953 29.72 20.8255L41.3189 29.223" stroke="#0275FF" stroke-width="3" stroke-linecap="round" stroke-linejoin="round"/>
<path d="M13.9204 18.919C16.4424 18.919 18.4868 16.8532 18.4868 14.305C18.4868 11.7567 16.4424 9.69092 13.9204 9.69092C11.3984 9.69092 9.35388 11.7567 9.35388 14.305C9.35388 16.8532 11.3984 18.919 13.9204 18.919Z" stroke="#0275FF" stroke-width="3" stroke-linecap="round" stroke-linejoin="round"/>
</svg>
