<svg width="48" height="46" viewBox="0 0 48 46" fill="none" xmlns="http://www.w3.org/2000/svg">
<path d="M6.90198 33.1532V26.2301C6.90198 25.312 7.26293 24.4316 7.90538 23.7824C8.54786 23.1333 9.41923 22.7686 10.3278 22.7686H37.7347C38.6432 22.7686 39.5147 23.1333 40.1571 23.7824C40.7994 24.4316 41.1605 25.312 41.1605 26.2301V33.1532" stroke="#0275FF" stroke-width="3" stroke-linecap="round" stroke-linejoin="round"/>
<path d="M24.031 12.3853V33.1545" stroke="#0275FF" stroke-width="3" stroke-linecap="round" stroke-linejoin="round"/>
<path d="M18.892 5.46154V8.92308C18.892 10.8348 20.4258 12.3846 22.3178 12.3846H25.7437C27.6357 12.3846 29.1695 10.8348 29.1695 8.92308V5.46154C29.1695 3.5498 27.6357 2 25.7437 2H22.3178C20.4258 2 18.892 3.5498 18.892 5.46154Z" stroke="#0275FF" stroke-width="3" stroke-linecap="round" stroke-linejoin="round"/>
<path d="M18.892 36.6153V40.0769C18.892 41.9887 20.4258 43.5384 22.3178 43.5384H25.7437C27.6357 43.5384 29.1695 41.9887 29.1695 40.0769V36.6153C29.1695 34.7035 27.6357 33.1538 25.7437 33.1538H22.3178C20.4258 33.1538 18.892 34.7035 18.892 36.6153Z" stroke="#0275FF" stroke-width="3" stroke-linecap="round" stroke-linejoin="round"/>
<path d="M1.76294 36.6153V40.0769C1.76294 41.9887 3.29675 43.5384 5.18879 43.5384H8.61465C10.5067 43.5384 12.0405 41.9887 12.0405 40.0769V36.6153C12.0405 34.7035 10.5067 33.1538 8.61465 33.1538H5.18879C3.29675 33.1538 1.76294 34.7035 1.76294 36.6153Z" stroke="#0275FF" stroke-width="3" stroke-linecap="round" stroke-linejoin="round"/>
<path d="M36.0209 36.6153V40.0769C36.0209 41.9887 37.5546 43.5384 39.4467 43.5384H42.8726C44.7647 43.5384 46.2984 41.9887 46.2984 40.0769V36.6153C46.2984 34.7035 44.7647 33.1538 42.8726 33.1538H39.4467C37.5546 33.1538 36.0209 34.7035 36.0209 36.6153Z" stroke="#0275FF" stroke-width="3" stroke-linecap="round" stroke-linejoin="round"/>
</svg>
