<svg width="20" height="20" viewBox="0 0 20 20" fill="none" xmlns="http://www.w3.org/2000/svg">
<mask id="mask0_20_52" style="mask-type:alpha" maskUnits="userSpaceOnUse" x="0" y="0" width="20" height="20">
<rect width="20" height="20" fill="#D9D9D9"/>
</mask>
<g mask="url(#mask0_20_52)">
<path d="M4.42307 17.0831C4.00748 17.0831 3.65251 16.936 3.35818 16.6416C3.06383 16.3473 2.91666 15.9923 2.91666 15.5767V4.42292C2.91666 4.00732 3.06383 3.65236 3.35818 3.35802C3.65251 3.06368 4.00748 2.9165 4.42307 2.9165H15.5769C15.9925 2.9165 16.3474 3.06368 16.6418 3.35802C16.9361 3.65236 17.0833 4.00732 17.0833 4.42292V15.5767C17.0833 15.9923 16.9361 16.3473 16.6418 16.6416C16.3474 16.936 15.9925 17.0831 15.5769 17.0831H4.42307ZM8.54166 15.8332V10.6248H4.16664V15.5767C4.16664 15.6515 4.19068 15.7129 4.23876 15.761C4.28684 15.8091 4.34828 15.8332 4.42307 15.8332H8.54166ZM9.79162 15.8332H15.5769C15.6517 15.8332 15.7131 15.8091 15.7612 15.761C15.8093 15.7129 15.8333 15.6515 15.8333 15.5767V10.6248H9.79162V15.8332ZM4.16664 9.37484H15.8333V4.42292C15.8333 4.34813 15.8093 4.28669 15.7612 4.23861C15.7131 4.19052 15.6517 4.16648 15.5769 4.16648H4.42307C4.34828 4.16648 4.28684 4.19052 4.23876 4.23861C4.19068 4.28669 4.16664 4.34813 4.16664 4.42292V9.37484Z" fill="#0275FF"/>
</g>
</svg>
