<svg width="72" height="72" viewBox="0 0 72 72" fill="none" xmlns="http://www.w3.org/2000/svg">
<path d="M2.5 36C2.5 40.3993 3.3665 44.7555 5.05004 48.8199C6.73357 52.8843 9.20116 56.5773 12.3119 59.6881C15.4227 62.7988 19.1157 65.2664 23.1801 66.95C27.2445 68.6335 31.6007 69.5 36 69.5C40.3993 69.5 44.7555 68.6335 48.8199 66.95C52.8843 65.2664 56.5773 62.7988 59.6881 59.6881C62.7988 56.5773 65.2664 52.8843 66.95 48.8199C68.6335 44.7555 69.5 40.3993 69.5 36C69.5 27.1152 65.9705 18.5944 59.6881 12.3119C53.4056 6.02945 44.8848 2.5 36 2.5C27.1152 2.5 18.5944 6.02945 12.3119 12.3119C6.02945 18.5944 2.5 27.1152 2.5 36Z" stroke="#444D7B" stroke-width="5" stroke-linecap="round" stroke-linejoin="round"/>
<path d="M24.4998 36.5H46.4998" stroke="#444D7B" stroke-width="5" stroke-linecap="round" stroke-linejoin="round"/>
<path d="M35.4998 25.5V47.5" stroke="#444D7B" stroke-width="5" stroke-linecap="round" stroke-linejoin="round"/>
</svg>
