<svg width="28" height="29" viewBox="0 0 28 29" fill="none" xmlns="http://www.w3.org/2000/svg">
<g clip-path="url(#clip0_108_207)">
<path d="M11.6666 15.6666C11.6666 16.2855 11.9125 16.879 12.35 17.3166C12.7876 17.7541 13.3811 18 14 18C14.6188 18 15.2123 17.7541 15.6499 17.3166C16.0875 16.879 16.3333 16.2855 16.3333 15.6666C16.3333 15.0478 16.0875 14.4543 15.6499 14.0167C15.2123 13.5791 14.6188 13.3333 14 13.3333C13.3811 13.3333 12.7876 13.5791 12.35 14.0167C11.9125 14.4543 11.6666 15.0478 11.6666 15.6666Z" stroke="#444D7B" stroke-width="3" stroke-linecap="round" stroke-linejoin="round"/>
<path d="M9.33337 25V23.8333C9.33337 23.2145 9.57921 22.621 10.0168 22.1834C10.4544 21.7458 11.0479 21.5 11.6667 21.5H16.3334C16.9522 21.5 17.5457 21.7458 17.9833 22.1834C18.4209 22.621 18.6667 23.2145 18.6667 23.8333V25" stroke="#444D7B" stroke-width="3" stroke-linecap="round" stroke-linejoin="round"/>
<path d="M17.5 6.33333C17.5 6.95217 17.7458 7.54566 18.1834 7.98325C18.621 8.42083 19.2145 8.66667 19.8333 8.66667C20.4522 8.66667 21.0457 8.42083 21.4832 7.98325C21.9208 7.54566 22.1667 6.95217 22.1667 6.33333C22.1667 5.71449 21.9208 5.121 21.4832 4.68342C21.0457 4.24583 20.4522 4 19.8333 4C19.2145 4 18.621 4.24583 18.1834 4.68342C17.7458 5.121 17.5 5.71449 17.5 6.33333Z" stroke="#444D7B" stroke-width="3" stroke-linecap="round" stroke-linejoin="round"/>
<path d="M19.8334 12.1667H22.1667C22.7855 12.1667 23.379 12.4125 23.8166 12.8501C24.2542 13.2877 24.5 13.8812 24.5 14.5V15.6667" stroke="#444D7B" stroke-width="3" stroke-linecap="round" stroke-linejoin="round"/>
<path d="M5.83337 6.33333C5.83337 6.95217 6.07921 7.54566 6.51679 7.98325C6.95438 8.42083 7.54787 8.66667 8.16671 8.66667C8.78555 8.66667 9.37904 8.42083 9.81662 7.98325C10.2542 7.54566 10.5 6.95217 10.5 6.33333C10.5 5.71449 10.2542 5.121 9.81662 4.68342C9.37904 4.24583 8.78555 4 8.16671 4C7.54787 4 6.95438 4.24583 6.51679 4.68342C6.07921 5.121 5.83337 5.71449 5.83337 6.33333Z" stroke="#444D7B" stroke-width="3" stroke-linecap="round" stroke-linejoin="round"/>
<path d="M3.5 15.6667V14.5C3.5 13.8812 3.74583 13.2877 4.18342 12.8501C4.621 12.4125 5.21449 12.1667 5.83333 12.1667H8.16667" stroke="#444D7B" stroke-width="3" stroke-linecap="round" stroke-linejoin="round"/>
</g>
<defs>
<clipPath id="clip0_108_207">
<rect width="28" height="28" fill="white" transform="translate(0 0.5)"/>
</clipPath>
</defs>
</svg>
