<svg width="28" height="29" viewBox="0 0 28 29" fill="none" xmlns="http://www.w3.org/2000/svg">
<path d="M2.33337 5.16665C2.33337 5.78548 2.57921 6.37898 3.01679 6.81656C3.45438 7.25415 4.04787 7.49998 4.66671 7.49998C5.28555 7.49998 5.87904 7.25415 6.31662 6.81656C6.75421 6.37898 7.00004 5.78548 7.00004 5.16665C7.00004 4.54781 6.75421 3.95432 6.31662 3.51673C5.87904 3.07915 5.28555 2.83331 4.66671 2.83331C4.04787 2.83331 3.45438 3.07915 3.01679 3.51673C2.57921 3.95432 2.33337 4.54781 2.33337 5.16665Z" stroke="#444D7B" stroke-width="2" stroke-linecap="round" stroke-linejoin="round"/>
<path d="M21 12.1666C21 12.7855 21.2458 13.379 21.6834 13.8166C22.121 14.2541 22.7145 14.5 23.3333 14.5C23.9522 14.5 24.5457 14.2541 24.9832 13.8166C25.4208 13.379 25.6667 12.7855 25.6667 12.1666C25.6667 11.5478 25.4208 10.9543 24.9832 10.5167C24.5457 10.0791 23.9522 9.83331 23.3333 9.83331C22.7145 9.83331 22.121 10.0791 21.6834 10.5167C21.2458 10.9543 21 11.5478 21 12.1666Z" stroke="#444D7B" stroke-width="2" stroke-linecap="round" stroke-linejoin="round"/>
<path d="M2.33337 14.5C2.33337 15.1189 2.57921 15.7124 3.01679 16.1499C3.45438 16.5875 4.04787 16.8334 4.66671 16.8334C5.28555 16.8334 5.87904 16.5875 6.31662 16.1499C6.75421 15.7124 7.00004 15.1189 7.00004 14.5C7.00004 13.8812 6.75421 13.2877 6.31662 12.8501C5.87904 12.4125 5.28555 12.1667 4.66671 12.1667C4.04787 12.1667 3.45438 12.4125 3.01679 12.8501C2.57921 13.2877 2.33337 13.8812 2.33337 14.5Z" stroke="#444D7B" stroke-width="2" stroke-linecap="round" stroke-linejoin="round"/>
<path d="M2.33337 23.8333C2.33337 24.4522 2.57921 25.0457 3.01679 25.4832C3.45438 25.9208 4.04787 26.1667 4.66671 26.1667C5.28555 26.1667 5.87904 25.9208 6.31662 25.4832C6.75421 25.0457 7.00004 24.4522 7.00004 23.8333C7.00004 23.2145 6.75421 22.621 6.31662 22.1834C5.87904 21.7458 5.28555 21.5 4.66671 21.5C4.04787 21.5 3.45438 21.7458 3.01679 22.1834C2.57921 22.621 2.33337 23.2145 2.33337 23.8333Z" stroke="#444D7B" stroke-width="2" stroke-linecap="round" stroke-linejoin="round"/>
<path d="M7 14.5H10.5C10.8094 14.5 11.1062 14.6229 11.325 14.8417C11.5437 15.0605 11.6667 15.3572 11.6667 15.6667V22.6667C11.6667 22.9761 11.5437 23.2728 11.325 23.4916C11.1062 23.7104 10.8094 23.8333 10.5 23.8333H7" stroke="#444D7B" stroke-width="2" stroke-linecap="round" stroke-linejoin="round"/>
<path d="M7 5.16669H15.1667C15.4761 5.16669 15.7728 5.2896 15.9916 5.5084C16.2104 5.72719 16.3333 6.02393 16.3333 6.33335V18C16.3333 18.3094 16.2104 18.6062 15.9916 18.825C15.7728 19.0438 15.4761 19.1667 15.1667 19.1667H12.8333" stroke="#444D7B" stroke-width="2" stroke-linecap="round" stroke-linejoin="round"/>
<path d="M16.3334 12.1667L21 12.1667" stroke="#444D7B" stroke-width="2" stroke-linecap="round" stroke-linejoin="round"/>
</svg>
