<svg width="28" height="29" viewBox="0 0 28 29" fill="none" xmlns="http://www.w3.org/2000/svg">
<g clip-path="url(#clip0_108_199)">
<path d="M5.83337 8.66667C5.83337 9.90434 6.32504 11.0913 7.20021 11.9665C8.07538 12.8417 9.26236 13.3333 10.5 13.3333C11.7377 13.3333 12.9247 12.8417 13.7999 11.9665C14.675 11.0913 15.1667 9.90434 15.1667 8.66667C15.1667 7.42899 14.675 6.242 13.7999 5.36683C12.9247 4.49167 11.7377 4 10.5 4C9.26236 4 8.07538 4.49167 7.20021 5.36683C6.32504 6.242 5.83337 7.42899 5.83337 8.66667Z" stroke="#444D7B" stroke-width="3" stroke-linecap="round" stroke-linejoin="round"/>
<path d="M3.5 25V22.6667C3.5 21.429 3.99167 20.242 4.86683 19.3668C5.742 18.4917 6.92899 18 8.16667 18H12.8333C14.071 18 15.258 18.4917 16.1332 19.3668C17.0083 20.242 17.5 21.429 17.5 22.6667V25" stroke="#444D7B" stroke-width="3" stroke-linecap="round" stroke-linejoin="round"/>
<path d="M18.6666 4.15167C19.6704 4.40869 20.5602 4.99249 21.1955 5.81103C21.8309 6.62958 22.1758 7.63631 22.1758 8.67251C22.1758 9.7087 21.8309 10.7154 21.1955 11.534C20.5602 12.3525 19.6704 12.9363 18.6666 13.1933" stroke="#444D7B" stroke-width="3" stroke-linecap="round" stroke-linejoin="round"/>
<path d="M24.5 25V22.6667C24.4941 21.6367 24.1476 20.6376 23.5145 19.8251C22.8814 19.0127 21.9973 18.4325 21 18.175" stroke="#444D7B" stroke-width="3" stroke-linecap="round" stroke-linejoin="round"/>
</g>
<defs>
<clipPath id="clip0_108_199">
<rect width="28" height="28" fill="white" transform="translate(0 0.5)"/>
</clipPath>
</defs>
</svg>
