<svg width="196" height="38" viewBox="0 0 196 38" fill="none" xmlns="http://www.w3.org/2000/svg">
<path d="M97.4427 34.7463C97.1016 34.7463 96.823 34.4708 96.823 34.1383V3.77157C96.823 3.43432 97.1016 3.16357 97.4427 3.16357C97.7838 3.16357 98.0576 3.43907 98.0576 3.77157V34.1383C98.0624 34.4756 97.7838 34.7463 97.4427 34.7463Z" fill="white"/>
<path d="M59.6984 9.60473L56.0714 15.8177C55.3172 13.5377 53.7511 11.5095 51.4837 10.2127C50.5421 9.67598 49.5477 9.30548 48.5389 9.09173L46.3819 4.82623L44.2201 9.10598C41.5059 9.69023 39.0367 11.348 37.5379 13.913L27.1278 31.7255C25.4368 34.623 21.6897 35.6157 18.7593 33.9437C17.789 33.3927 17.0395 32.6185 16.5159 31.7255L2.49326 7.70473C1.64777 6.25598 2.14738 4.40346 3.61258 3.56746C5.07778 2.73146 6.95131 3.22546 7.7968 4.67421L21.5264 28.1867C21.6561 28.41 21.9828 28.41 22.1173 28.1867L32.2247 10.8777C36.7356 3.14946 46.7326 0.503707 54.5486 4.96398C56.6527 6.16573 58.3821 7.76173 59.6984 9.60473ZM90.2657 30.2055L76.2383 6.18948C75.7194 5.29648 74.9652 4.52221 73.9948 3.97121C71.0644 2.29921 67.3174 3.29196 65.6264 6.18948L55.2211 24.0067C53.7223 26.5717 51.2579 28.2295 48.5437 28.8137L46.3771 33.0982L44.2153 28.8232C43.2065 28.6047 42.2121 28.239 41.2705 27.7022C39.0031 26.4055 37.437 24.3772 36.6828 22.0972L33.0558 28.3102C34.3769 30.1485 36.1015 31.7492 38.2104 32.9462C46.0264 37.4065 56.0186 34.7607 60.5342 27.0325L70.6417 9.72348C70.7714 9.50023 71.0981 9.50023 71.2326 9.72348L84.9622 33.236C85.8077 34.6847 87.6812 35.1835 89.1464 34.3427C90.6068 33.5067 91.1112 31.6542 90.2657 30.2055Z" fill="url(#paint0_radial_20_460)"/>
<path d="M112.412 6.60263C112.532 6.25588 112.902 6.10388 113.219 6.20838C113.541 6.32713 113.69 6.72138 113.584 7.03963L110.26 15.8604C109.986 16.5824 109.544 16.9481 108.919 16.9481C108.295 16.9481 107.853 16.5871 107.56 15.8604L104.25 7.03963C104.13 6.72138 104.298 6.34613 104.615 6.22738C104.932 6.10863 105.302 6.25588 105.422 6.58838L108.732 15.5896C108.761 15.6514 108.809 15.7274 108.914 15.7274C109.02 15.7274 109.083 15.6514 109.097 15.5896L112.412 6.60263Z" fill="white"/>
<path d="M120.617 12.4832C120.617 13.0104 120.343 13.3572 119.719 13.3572H115.16V13.5994C115.16 15.0149 116.092 15.8177 117.432 15.8177C117.98 15.8177 118.604 15.6657 119.291 15.4234C119.839 15.2144 120.175 15.5612 120.175 15.9079C120.175 16.1027 120.098 16.2832 119.839 16.4494C119.349 16.7344 118.282 16.9339 117.413 16.9339C115.309 16.9339 114.06 15.6229 113.949 13.6897C113.92 13.1149 113.92 12.3454 113.963 11.8799C114.132 9.93241 115.472 8.75916 117.336 8.75916C119.349 8.75916 120.617 10.1177 120.617 12.0319V12.4832ZM119.214 12.3312C119.334 12.3312 119.397 12.2694 119.411 12.1507C119.502 10.7779 118.662 9.85641 117.35 9.85641C115.856 9.85641 115.107 10.8207 115.155 12.3312H119.214Z" fill="white"/>
<path d="M127.097 9.49515C127.097 9.7374 126.915 10.0509 126.487 10.0509C126.185 10.0509 125.815 9.93215 125.281 9.93215C124.426 9.9464 124.047 10.3691 124.047 11.2906V16.2354C124.047 16.5821 123.773 16.8529 123.422 16.8529C123.086 16.8529 122.798 16.5821 122.798 16.2354V11.1529C122.798 9.67565 123.682 8.75415 125.281 8.75415C125.8 8.75415 126.319 8.83015 126.607 8.9204C126.963 9.0154 127.097 9.21015 127.097 9.49515Z" fill="white"/>
<path d="M135.456 9.75174L133.121 15.9362C132.876 16.568 132.463 16.8862 131.93 16.8862C131.411 16.8862 130.998 16.568 130.787 15.9505L128.423 9.72324C128.241 9.25774 128.577 8.84924 129.019 8.84924C129.278 8.84924 129.49 9.04399 129.581 9.28624L131.868 15.542C131.882 15.5895 131.916 15.6037 131.945 15.6037C131.973 15.6037 132.007 15.5895 132.021 15.542L134.265 9.35749C134.371 9.07249 134.587 8.87299 134.875 8.87299C135.317 8.87774 135.624 9.31474 135.456 9.75174Z" fill="white"/>
<path d="M143.647 11.7419C143.695 12.3594 143.695 13.2809 143.647 13.8842C143.541 15.6464 142.138 16.9289 140.246 16.9289C138.372 16.9289 136.95 15.6464 136.844 13.8842C136.816 13.2809 136.816 12.3594 136.844 11.7419C136.95 9.97965 138.367 8.75415 140.246 8.75415C142.138 8.7589 143.541 9.97965 143.647 11.7419ZM138.079 11.8322C138.05 12.3594 138.05 13.2951 138.079 13.8081C138.185 14.9862 139.011 15.7841 140.246 15.7841C141.48 15.7841 142.306 14.9862 142.412 13.8081C142.441 13.2951 142.441 12.3594 142.412 11.8322C142.335 10.7159 141.528 9.90365 140.246 9.90365C138.963 9.90365 138.156 10.7159 138.079 11.8322Z" fill="white"/>
<path d="M152.294 12.4832C152.294 13.0104 152.02 13.3572 151.396 13.3572H146.837V13.5994C146.837 15.0149 147.769 15.8177 149.109 15.8177C149.657 15.8177 150.281 15.6657 150.968 15.4234C151.516 15.2144 151.852 15.5612 151.852 15.9079C151.852 16.1027 151.775 16.2832 151.516 16.4494C151.026 16.7344 149.959 16.9339 149.09 16.9339C146.986 16.9339 145.737 15.6229 145.626 13.6897C145.597 13.1149 145.597 12.3454 145.64 11.8799C145.809 9.93241 147.149 8.75916 149.013 8.75916C151.026 8.75916 152.294 10.1177 152.294 12.0319V12.4832ZM150.891 12.3312C151.011 12.3312 151.074 12.2694 151.088 12.1507C151.179 10.7779 150.339 9.85641 149.027 9.85641C147.533 9.85641 146.784 10.8207 146.832 12.3312H150.891Z" fill="white"/>
<path d="M158.774 9.49515C158.774 9.7374 158.592 10.0509 158.164 10.0509C157.862 10.0509 157.492 9.93215 156.958 9.93215C156.103 9.9464 155.724 10.3691 155.724 11.2906V16.2354C155.724 16.5821 155.45 16.8529 155.099 16.8529C154.763 16.8529 154.475 16.5821 154.475 16.2354V11.1529C154.475 9.67565 155.359 8.75415 156.963 8.75415C157.482 8.75415 158.001 8.83015 158.289 8.9204C158.64 9.0154 158.774 9.21015 158.774 9.49515Z" fill="white"/>
<path d="M164.539 9.49515C164.539 9.7374 164.356 10.0509 163.929 10.0509C163.626 10.0509 163.256 9.93215 162.723 9.93215C161.868 9.9464 161.489 10.3691 161.489 11.2906V16.2354C161.489 16.5821 161.215 16.8529 160.864 16.8529C160.528 16.8529 160.24 16.5821 160.24 16.2354V11.1529C160.24 9.67565 161.123 8.75415 162.723 8.75415C163.242 8.75415 163.761 8.83015 164.049 8.9204C164.404 9.0154 164.539 9.21015 164.539 9.49515Z" fill="white"/>
<path d="M172.259 12.4832C172.259 13.0104 171.985 13.3572 171.361 13.3572H166.802V13.5994C166.802 15.0149 167.734 15.8177 169.074 15.8177C169.622 15.8177 170.246 15.6657 170.933 15.4234C171.481 15.2144 171.817 15.5612 171.817 15.9079C171.817 16.1027 171.74 16.2832 171.481 16.4494C170.991 16.7344 169.924 16.9339 169.055 16.9339C166.951 16.9339 165.702 15.6229 165.591 13.6897C165.562 13.1149 165.562 12.3454 165.606 11.8799C165.774 9.93241 167.114 8.75916 168.978 8.75916C170.991 8.75916 172.259 10.1177 172.259 12.0319V12.4832ZM170.856 12.3312C170.976 12.3312 171.039 12.2694 171.053 12.1507C171.144 10.7779 170.304 9.85641 168.992 9.85641C167.498 9.85641 166.749 10.8207 166.797 12.3312H170.856Z" fill="white"/>
<path d="M180.844 16.2354C180.844 18.2874 179.609 19.6269 177.029 19.6269C176.525 19.6269 175.949 19.5652 175.319 19.4607C175.017 19.3989 174.772 19.2184 174.772 18.9049C174.772 18.5724 175.017 18.2257 175.487 18.3159C176.083 18.4347 176.602 18.4964 177.073 18.4964C178.797 18.4964 179.604 17.6841 179.604 16.2021C179.057 16.4587 178.264 16.7152 177.346 16.7152C175.454 16.7152 174.31 15.4944 174.205 13.7132C174.176 13.1241 174.176 12.4021 174.205 11.8131C174.31 10.0176 175.564 8.75415 177.395 8.75415C178.994 8.75415 180.171 9.34315 180.58 9.65665C180.776 9.7754 180.839 9.94165 180.839 10.1839V16.2354H180.844ZM175.444 11.8939C175.415 12.4211 175.43 13.1289 175.444 13.6419C175.535 14.8199 176.146 15.5894 177.38 15.5894C178.615 15.5894 179.316 15.1951 179.609 14.9719V10.4641C179.561 10.4166 178.74 9.92265 177.548 9.92265C176.165 9.9179 175.555 10.7159 175.444 11.8939Z" fill="white"/>
<path d="M184.048 7.65707C183.62 7.65707 183.298 7.29607 183.298 6.88757C183.298 6.46482 183.62 6.13232 184.048 6.13232C184.475 6.13232 184.812 6.46482 184.812 6.88757C184.812 7.29607 184.475 7.65707 184.048 7.65707ZM184.672 9.49532V16.2213C184.672 16.5823 184.413 16.8531 184.048 16.8531C183.726 16.8531 183.438 16.5823 183.438 16.2213V9.49532C183.438 9.14857 183.697 8.86357 184.048 8.86357C184.398 8.86357 184.672 9.14857 184.672 9.49532Z" fill="white"/>
<path d="M194.054 11.7419C194.102 12.3594 194.102 13.2809 194.054 13.8842C193.949 15.6464 192.546 16.9289 190.653 16.9289C188.779 16.9289 187.358 15.6464 187.252 13.8842C187.223 13.2809 187.223 12.3594 187.252 11.7419C187.358 9.97965 188.775 8.75415 190.653 8.75415C192.541 8.7589 193.944 9.97965 194.054 11.7419ZM188.486 11.8322C188.458 12.3594 188.458 13.2951 188.486 13.8081C188.592 14.9862 189.418 15.7841 190.653 15.7841C191.888 15.7841 192.714 14.9862 192.82 13.8081C192.848 13.2951 192.848 12.3594 192.82 11.8322C192.743 10.7159 191.936 9.90365 190.653 9.90365C189.37 9.90365 188.563 10.7159 188.486 11.8322Z" fill="white"/>
<path d="M111.417 28.1676H106.551L105.422 31.3168C105.302 31.6351 104.932 31.7823 104.601 31.6636C104.279 31.5448 104.144 31.1648 104.25 30.8656L107.42 22.1208C107.709 21.3371 108.304 20.9761 108.991 20.9761C109.678 20.9761 110.274 21.3371 110.548 22.1208L113.718 30.8656C113.824 31.1506 113.69 31.5448 113.368 31.6636C113.046 31.7823 112.666 31.6351 112.546 31.3168L111.417 28.1676ZM106.978 26.9943H110.99L109.39 22.4866C109.328 22.3061 109.193 22.1873 108.991 22.1873C108.794 22.1873 108.655 22.3061 108.593 22.4866L106.978 26.9943Z" fill="white"/>
<path d="M126.055 31.127C126.055 31.488 125.795 31.7588 125.445 31.7588C125.108 31.7588 124.82 31.488 124.82 31.127V26.814C124.82 25.427 124.21 24.8238 123.081 24.8238C122.226 24.8238 121.649 25.199 121.342 25.6218V31.127C121.342 31.488 121.083 31.7588 120.732 31.7588C120.396 31.7588 120.107 31.488 120.107 31.127V26.6763C120.107 25.3795 119.435 24.8238 118.368 24.8238C117.177 24.8238 116.677 25.2893 116.629 25.3225V31.127C116.629 31.488 116.37 31.7588 116.019 31.7588C115.683 31.7588 115.395 31.488 115.395 31.127V25.0328C115.395 24.7478 115.486 24.6243 115.717 24.4438C116.298 24.0068 117.288 23.66 118.354 23.66C119.468 23.66 120.228 23.9783 120.703 24.5815C121.174 24.1873 121.875 23.66 123.115 23.66C125.204 23.66 126.059 24.762 126.059 26.738V31.127H126.055Z" fill="white"/>
<path d="M133.957 29.4218C133.957 30.899 132.766 31.8348 130.998 31.8348C129.855 31.8348 128.971 31.5498 128.284 30.9893C128.039 30.7945 127.996 30.4145 128.164 30.177C128.361 29.9205 128.697 29.8445 129.019 30.0583C129.538 30.4335 130.009 30.7375 131.109 30.7375C132.146 30.7375 132.742 30.196 132.742 29.4835C132.742 28.9563 132.391 28.6095 131.522 28.3958C131.003 28.277 131.003 28.2913 130.422 28.1393C129.005 27.7783 128.27 27.1275 128.27 25.997C128.27 24.5625 129.442 23.66 131.123 23.66C131.993 23.66 132.833 23.945 133.304 24.3108C133.607 24.553 133.564 24.9615 133.381 25.1563C133.184 25.3843 132.848 25.3985 132.559 25.2323C132.069 24.9473 131.613 24.781 131.08 24.781C130.013 24.781 129.48 25.218 129.48 25.959C129.48 26.4435 129.754 26.757 130.672 26.9993C131.162 27.137 131.695 27.2415 131.935 27.2985C133.256 27.6263 133.957 28.3198 133.957 29.4218Z" fill="white"/>
<path d="M138.305 31.8345C136.672 31.8345 135.956 30.7657 135.956 29.3455V22.7857C135.956 22.439 136.23 22.1682 136.566 22.1682C136.917 22.1682 137.19 22.439 137.19 22.7857V24.0207H139.491C139.794 24.0207 140.073 24.263 140.073 24.5765C140.073 24.89 139.799 25.1322 139.491 25.1322H137.19V29.3835C137.19 30.1387 137.541 30.6945 138.363 30.6945C138.805 30.6945 139.218 30.5282 139.583 30.4237C140.087 30.305 140.375 30.6042 140.375 30.9795C140.375 31.2502 140.222 31.445 139.871 31.5685C139.477 31.73 138.886 31.8345 138.305 31.8345Z" fill="white"/>
<path d="M148.494 27.384C148.494 27.9113 148.22 28.258 147.596 28.258H143.037V28.5003C143.037 29.9158 143.969 30.7185 145.309 30.7185C145.857 30.7185 146.481 30.5665 147.168 30.3243C147.716 30.1153 148.052 30.462 148.052 30.8088C148.052 31.0035 147.975 31.184 147.716 31.3503C147.226 31.6353 146.159 31.8348 145.29 31.8348C143.186 31.8348 141.937 30.5238 141.826 28.5905C141.797 28.0158 141.797 27.2463 141.841 26.7808C142.009 24.8333 143.349 23.66 145.213 23.66C147.226 23.66 148.494 25.0185 148.494 26.9328V27.384ZM147.091 27.2368C147.211 27.2368 147.274 27.175 147.288 27.0563C147.38 25.6835 146.539 24.762 145.227 24.762C143.733 24.762 142.984 25.7263 143.032 27.2368H147.091Z" fill="white"/>
<path d="M154.975 24.401C154.975 24.6433 154.792 24.9568 154.364 24.9568C154.062 24.9568 153.692 24.838 153.159 24.838C152.304 24.8523 151.924 25.275 151.924 26.1965V31.1413C151.924 31.488 151.65 31.7588 151.3 31.7588C150.963 31.7588 150.675 31.488 150.675 31.1413V26.0588C150.675 24.5815 151.559 23.66 153.159 23.66C153.678 23.66 154.196 23.736 154.485 23.8263C154.835 23.9165 154.975 24.1113 154.975 24.401Z" fill="white"/>
<path d="M159.413 23.6597C160.235 23.6597 161.061 23.902 161.609 24.1442V21.6125C161.609 21.2657 161.883 20.9807 162.219 20.9807C162.584 20.9807 162.843 21.2657 162.843 21.6125V30.4332C162.843 30.6422 162.795 30.78 162.584 30.932C162.219 31.1885 160.97 31.8345 159.581 31.8345C157.554 31.8345 156.363 30.6422 156.209 28.7897C156.161 28.2625 156.161 27.208 156.209 26.6617C156.363 24.776 157.477 23.6597 159.413 23.6597ZM159.596 30.6897C160.326 30.6897 161.272 30.3287 161.609 30.0722V25.3365C161.244 25.1275 160.36 24.8092 159.457 24.8092C158.145 24.8092 157.535 25.4885 157.444 26.7235C157.415 27.1747 157.415 28.1865 157.444 28.6995C157.569 30.0105 158.27 30.6897 159.596 30.6897Z" fill="white"/>
<path d="M171.414 30.4904C171.414 30.7184 171.351 30.8657 171.154 30.9892C170.741 31.2884 169.521 31.8347 168.041 31.8347C166.043 31.8347 164.991 30.7802 164.991 29.2697C164.991 27.9444 166 26.8282 168.056 26.8282C168.786 26.8282 169.396 26.9327 170.189 27.1464V26.5289C170.189 25.3082 169.578 24.7952 168.281 24.7952C167.58 24.7952 166.907 25.0232 166.466 25.1894C165.947 25.3842 165.582 25.0992 165.582 24.7239C165.582 24.5149 165.687 24.2869 165.98 24.1492C166.451 23.9212 167.369 23.6647 168.406 23.6647C170.222 23.6647 171.409 24.5102 171.409 26.4862V30.4904H171.414ZM170.193 30.1769V28.2009C169.415 28.0062 168.853 27.8684 168.075 27.8684C167.037 27.8684 166.23 28.3672 166.23 29.2412C166.23 30.1912 166.869 30.7327 168.181 30.7327C169.415 30.7327 170.059 30.3099 170.193 30.1769Z" fill="white"/>
<path d="M184.625 31.127C184.625 31.488 184.365 31.7588 184.014 31.7588C183.678 31.7588 183.39 31.488 183.39 31.127V26.814C183.39 25.427 182.78 24.8238 181.651 24.8238C180.796 24.8238 180.219 25.199 179.912 25.6218V31.127C179.912 31.488 179.652 31.7588 179.302 31.7588C178.965 31.7588 178.677 31.488 178.677 31.127V26.6763C178.677 25.3795 178.005 24.8238 176.938 24.8238C175.747 24.8238 175.247 25.2893 175.199 25.3225V31.127C175.199 31.488 174.94 31.7588 174.589 31.7588C174.253 31.7588 173.965 31.488 173.965 31.127V25.0328C173.965 24.7478 174.056 24.6243 174.286 24.4438C174.868 24.0068 175.857 23.66 176.924 23.66C178.038 23.66 178.797 23.9783 179.273 24.5815C179.744 24.1873 180.445 23.66 181.685 23.66C183.774 23.66 184.629 24.762 184.629 26.738V31.127H184.625Z" fill="white"/>
<defs>
<radialGradient id="paint0_radial_20_460" cx="0" cy="0" r="1" gradientUnits="userSpaceOnUse" gradientTransform="translate(46.3783 18.9557) scale(33.3865 33.0117)">
<stop offset="0.35" stop-color="#E5316C"/>
<stop offset="1" stop-color="#B6006C"/>
</radialGradient>
</defs>
</svg>
